<svg width="323" height="65" viewBox="0 0 323 65" fill="none" xmlns="http://www.w3.org/2000/svg">
  <path d="M61.1175 2.41538C58.5636 3.22796 54.849 4.85312 52.8756 6.01394C49.3931 7.98735 49.2771 7.98735 45.6784 5.31744C43.0086 3.34404 39.9904 2.53146 34.5345 2.18321C23.855 1.48672 15.9613 5.43352 8.8803 14.9523C2.72789 23.3102 0.290161 30.9717 0.290161 41.8834C0.290161 51.1701 3.19223 58.5993 7.95161 61.7336C13.6396 65.4482 24.4353 63.707 32.9094 57.5546L36.2757 55.1169L40.3387 58.7155C45.4463 63.1266 48.1162 63.8231 58.2154 63.2427C65.6447 62.8945 67.0377 62.314 74.467 57.3225C84.6822 50.2414 85.3787 49.4288 83.4054 46.6429C81.8962 44.5534 81.4319 44.6694 72.2614 49.3128C61.814 54.6526 57.1706 55.3491 53.8043 51.9826C46.2589 44.4373 51.1344 17.1578 61.1175 11.1216C65.8768 8.21951 71.797 8.21951 73.4222 11.1216C76.5565 17.1578 72.9579 23.4263 61.93 30.9717C57.1706 34.222 56.0098 35.615 56.0098 38.401C56.0098 41.0709 56.3581 41.5352 58.0993 40.9548C62.2783 39.3296 79.6907 27.8375 83.4054 24.355C90.0221 17.8543 89.6738 9.26427 82.5927 4.04054C78.762 1.13847 67.502 0.325894 61.1175 2.41538ZM38.3652 10.309C40.3387 12.2824 40.1065 19.2473 37.9009 25.2837C36.8562 28.0697 35.6954 34.3381 35.3471 39.0975C34.5345 47.6876 34.5345 47.8037 29.8912 50.3575C19.5598 56.1616 14.9166 52.0988 14.9166 37.3562C14.9166 27.257 18.399 18.783 24.7836 12.9789C29.543 8.68384 35.5793 7.52301 38.3652 10.309Z" fill="black"/>
  <path d="M132.857 13.7915C130.767 15.881 131.231 19.1313 133.669 20.5243C136.572 22.0333 139.241 20.9886 140.17 18.0865C141.563 13.6754 136.107 10.5411 132.857 13.7915Z" fill="black"/>
  <path d="M106.157 16.6935C105.113 18.5508 96.6388 49.4288 96.6388 51.1701C96.6388 51.5183 98.4958 51.8666 100.702 51.8666C103.952 51.8666 104.997 51.2861 105.926 49.0806C106.738 46.875 108.015 46.1786 111.729 45.8303C115.096 45.5981 116.837 45.8303 117.07 46.875C117.301 47.6876 117.766 49.1966 118.114 50.1253C118.463 51.2861 120.204 51.8666 123.338 51.8666C125.892 51.8666 127.981 51.7505 127.981 51.5183C127.865 51.4023 125.659 43.1604 122.873 33.2934L117.998 15.3005L112.542 14.9523C108.363 14.7201 106.97 15.0683 106.157 16.6935ZM113.935 32.3647C114.98 36.5437 114.863 36.7759 112.194 36.7759C109.524 36.7759 109.408 36.5437 110.105 32.3647C110.917 27.6053 111.962 25.2837 112.426 26.9088C112.658 27.6053 113.239 30.043 113.935 32.3647Z" fill="black"/>
  <path d="M166.752 16.2292C166.521 17.0418 166.404 25.2837 166.521 34.4542L166.869 51.2862L177.665 51.6345L188.344 51.9827V48.3841C188.344 44.9016 188.344 44.9016 181.96 44.9016H175.575V40.9548C175.575 37.0081 175.691 36.8919 181.147 36.5437C186.139 36.1954 186.603 35.9633 186.603 33.2934C186.603 30.6234 186.139 30.3913 181.147 30.0431C175.691 29.6948 175.575 29.5787 175.575 25.6319V21.6851H181.96C188.228 21.6851 188.344 21.6851 188.344 18.2027V14.7202H177.896C170.352 14.7202 167.217 15.1845 166.752 16.2292Z" fill="black"/>
  <path d="M282.139 23.3102C280.165 24.355 278.657 24.471 277.96 23.7745C277.38 23.1942 275.638 22.8459 274.13 23.078L271.344 23.4263V41.9996V60.5728H275.406C279.237 60.5728 279.469 60.3406 279.817 56.1616C280.165 51.9826 280.281 51.8666 284.809 51.8666C290.845 51.8666 294.676 48.1519 295.721 41.1869C297.578 28.7662 290.265 19.1313 282.139 23.3102ZM285.853 30.5074C288.059 33.0612 287.827 42.2317 285.505 44.5534C282.023 48.0358 280.05 45.5981 280.05 37.5884C280.05 33.5255 280.398 29.8109 280.862 29.4627C282.139 28.0697 284.344 28.534 285.853 30.5074Z" fill="black"/>
  <path d="M132.741 24.355C131.812 25.5159 131.464 30.1591 131.696 38.6332L132.044 51.2862L135.875 51.6345L139.706 51.9827L139.358 37.7045C139.009 24.2389 138.893 23.4264 136.572 23.0781C135.294 22.8459 133.553 23.5424 132.741 24.355Z" fill="black"/>
  <path d="M155.841 24.8194C153.867 26.2124 152.939 26.3284 152.591 25.3997C152.359 24.5872 150.85 24.0067 149.34 24.0067H146.554V38.0528V51.9827L150.385 51.6345L154.1 51.2862L154.448 41.6513L154.796 32.1326H158.163C161.413 32.1326 161.645 31.9004 161.645 27.4892C161.645 22.2655 160.368 21.6851 155.841 24.8194Z" fill="black"/>
  <path d="M193.8 23.5424C192.523 24.8193 192.871 42.9282 194.264 46.9911C195.89 51.7505 201.229 53.7239 205.873 51.4023C207.846 50.4736 209.471 50.2414 209.935 50.8218C210.283 51.4023 212.025 51.8666 213.998 51.8666H217.365V38.1689C217.365 30.6235 217.133 24.1228 216.784 23.7745C216.436 23.4263 214.462 23.5424 212.373 23.8907L208.659 24.7032L208.311 34.6864C208.078 42.5799 207.614 44.7856 206.105 45.3659C202.506 46.7589 201.229 43.8569 200.881 33.5255C200.533 23.6585 200.417 23.4263 197.631 23.078C196.005 22.8459 194.264 23.078 193.8 23.5424Z" fill="black"/>
  <path d="M232.804 24.5872C231.178 25.748 230.018 25.864 229.554 25.1675C229.206 24.5872 227.58 24.0067 225.955 24.0067H223.169V37.9367V51.8666H227.232H231.295V42.1156V32.2486L235.126 31.9004C238.492 31.5521 238.84 31.2039 238.84 27.4892C238.84 22.8459 236.75 21.8012 232.804 24.5872Z" fill="black"/>
  <path d="M249.287 24.0067C244.644 25.8641 241.394 30.7396 240.929 36.4276C239.305 54.7687 263.565 58.4833 266.7 40.3744C268.558 29.5787 258.458 20.176 249.287 24.0067ZM256.6 31.3199C260.548 35.9633 258.458 44.9016 253.35 44.9016C248.707 44.9016 247.082 36.0794 251.029 32.1326C253.699 29.4627 254.976 29.2305 256.6 31.3199Z" fill="black"/>
  <path d="M302.569 24.355C300.596 25.3997 300.248 26.3284 301.06 28.3019C301.873 30.3913 302.453 30.6234 306.052 29.8109C308.838 29.2305 310.811 29.3466 312.089 30.3913C314.875 32.3647 313.133 34.4542 308.722 34.4542C301.176 34.4542 296.766 41.3031 300.016 47.9198C302.105 52.331 306.865 53.724 311.624 51.4023C314.178 50.0093 315.571 49.8932 316.035 50.8218C316.499 51.5183 318.125 51.8666 319.633 51.6345C322.303 51.2862 322.419 51.054 322.419 39.9101C322.419 28.7662 322.304 28.3019 319.169 25.6319C315.454 22.4977 306.981 21.8012 302.569 24.355ZM313.481 42.8121C313.017 46.4107 306.748 47.4555 306.748 43.973C306.748 41.0709 307.677 40.2583 311.044 40.2583C313.365 40.2583 313.83 40.8388 313.481 42.8121Z" fill="black"/>
  </svg>
  