<svg width="323" height="74" viewBox="0 0 323 74" fill="none" xmlns="http://www.w3.org/2000/svg">
   <g clip-path="url(#clip0_5_526)">
   <mask id="mask0_5_526" style="mask-type:luminance" maskUnits="userSpaceOnUse" x="-220" y="-2000" width="1434" height="2561">
   <path d="M-219.521 -1999.36H1213.65V560.64H-219.521V-1999.36Z" fill="white"/>
   </mask>
   <g mask="url(#mask0_5_526)">
   <path d="M33.405 49.4653C31.7237 48.1133 30.3503 46.968 28.9343 45.88C23.9275 42.0293 22.1679 35.66 23.8904 30.2613C24.8604 27.2213 26.7766 24.8653 29.4758 23.2187C32.0143 21.6693 34.8024 20.8147 37.7961 21.1133C40.8336 21.4173 43.5659 22.5973 45.8325 24.676C48.164 26.816 49.6383 29.4867 49.9422 32.6587C50.4093 37.528 49.1633 41.7827 45.1292 44.9C44.8545 45.112 44.6209 45.376 44.3529 45.5987C39.9671 49.2293 35.572 52.848 31.1982 56.4947C30.2083 57.32 29.2966 58.2427 28.296 59.1693C31.1982 61.7867 33.9637 64.2787 36.7504 66.7907C37.8625 65.8573 38.8272 65.0627 39.776 64.2507C43.3165 61.2253 46.8715 58.2173 50.3841 55.1613C53.269 52.6507 56.0797 50.0627 58.0768 46.724C59.8842 43.7013 61.1342 40.4827 61.3744 36.944C61.7394 31.584 60.5411 26.592 57.757 21.9853C54.965 17.3667 51.1511 13.9493 46.1324 11.972C42.0173 10.3507 37.7988 9.67066 33.344 10.3333C24.9228 11.5867 18.7509 16.0067 14.5933 23.3653C12.4834 27.0987 11.8106 31.1627 11.9327 35.4373C12.0495 39.4533 13.1867 43.092 15.3351 46.4387C17.0855 49.1653 19.4024 51.3853 21.8282 53.4733C22.9628 54.4493 24.3177 55.1653 25.6367 56.0413C28.2284 53.848 30.6555 51.7933 33.405 49.4653ZM39.6274 -7.1462e-07C39.9167 0.145333 40.198 0.395997 40.4979 0.42133C47.2351 0.987997 53.2213 3.46533 58.5638 7.57066C65.3528 12.7893 69.9084 19.5373 71.8485 27.9133C74.5941 39.764 72.2108 50.584 64.5672 60.0213C58.8995 67.0213 51.4192 71.1587 42.576 72.7973C41.594 72.9787 40.4833 72.488 39.6274 73.344H33.3705C33.0122 73.1947 32.6659 72.976 32.293 72.9093C31.1411 72.704 29.9588 72.6427 28.8229 72.3733C20.2517 70.3467 13.0965 66.0227 7.71013 58.9547C3.54597 53.4907 1.04588 47.34 0.440767 40.448C0.408919 40.0867 0.152805 39.7467 0.000198364 39.3973V33.948C0.152805 33.5987 0.4129 33.2573 0.43944 32.8973C0.776501 28.3347 2.07166 24.028 4.16436 20.0107C6.78786 14.9693 10.2859 10.6613 14.9702 7.29866C20.2676 3.49733 26.0255 1.096 32.5013 0.425333C32.8026 0.393333 33.0812 0.146666 33.3705 -7.1462e-07H39.6274Z" fill="#0E121A"/>
   </g>
   <mask id="mask1_5_526" style="mask-type:luminance" maskUnits="userSpaceOnUse" x="-220" y="-2000" width="1434" height="2561">
   <path d="M-219.521 -1999.36H1213.65V560.64H-219.521V-1999.36Z" fill="white"/>
   </mask>
   <g mask="url(#mask1_5_526)">
   <path d="M146.827 52.6024H139.823V50.8931C139.823 45.0984 139.818 39.3051 139.826 33.5104C139.83 31.1078 140.368 28.8331 141.489 26.6984C143.846 22.2158 147.686 20.1131 152.579 19.7651C155.697 19.5424 158.679 20.0438 161.243 21.9985C162.166 22.7038 162.968 23.5704 163.907 24.4398C164.315 24.0571 164.681 23.7544 164.999 23.4078C169.572 18.4491 178.458 18.6918 183.091 22.5971C185.925 24.9864 187.515 28.1731 187.618 31.8825C187.774 37.4638 187.689 43.0504 187.705 48.6344C187.709 49.8891 187.705 51.1438 187.705 52.4598C186.513 52.8944 185.332 52.6331 184.181 52.6811C183.084 52.7278 181.983 52.6918 180.664 52.6918V50.9464C180.664 45.3624 180.685 39.7771 180.644 34.1931C180.636 33.1638 180.524 32.0851 180.196 31.1211C179.278 28.4198 176.944 26.7064 173.345 27.0251C169.672 27.3504 167.306 30.2705 167.277 34.2158C167.237 39.5211 167.266 44.8264 167.266 50.1318V52.6744C166.029 52.6798 164.871 52.6878 163.712 52.6904C162.614 52.6931 161.515 52.6918 160.225 52.6918C160.225 51.8544 160.225 51.1758 160.225 50.4958C160.225 45.0504 160.237 39.6064 160.212 34.1611C160.208 33.3371 160.117 32.4891 159.905 31.6958C159.064 28.5438 156.88 26.8598 153.732 26.8478C151.009 26.8384 148.254 28.6251 147.437 31.1598C147.038 32.3918 146.87 33.7464 146.854 35.0491C146.789 40.1438 146.827 45.2398 146.827 50.3358V52.6024Z" fill="#0E121A"/>
   </g>
   <mask id="mask2_5_526" style="mask-type:luminance" maskUnits="userSpaceOnUse" x="-220" y="-2000" width="1434" height="2561">
   <path d="M-219.521 -1999.36H1213.65V560.64H-219.521V-1999.36Z" fill="white"/>
   </mask>
   <g mask="url(#mask2_5_526)">
   <path d="M276.061 20.3817V27.4777C275.184 27.2537 274.4 27.0671 273.622 26.8551C268.186 25.3764 264.199 28.6737 262.656 32.4071C260.752 37.0124 262.351 42.2204 266.616 44.7871C270.544 47.1524 275.223 45.9177 277.861 42.7697C279.606 40.6871 280.3 38.2831 280.303 35.6284C280.309 27.3857 280.305 19.1444 280.305 10.9017C280.305 10.1484 280.305 9.39374 280.305 8.53107C282.803 8.2364 285.137 8.44707 287.588 8.37107C287.64 9.02573 287.719 9.56307 287.721 10.1017C287.729 19.1111 287.867 28.1244 287.681 37.1311C287.533 44.3071 283.497 51.1017 275.053 52.9791C268.06 54.5324 261.958 52.5417 257.647 46.5271C254.908 42.7057 254.034 38.3431 254.782 33.6404C255.418 29.6311 257.109 26.2271 260.098 23.4977C262.644 21.1724 265.619 19.7951 269.095 19.7257C271.373 19.6804 273.675 19.5337 276.061 20.3817Z" fill="#0E121A"/>
   </g>
   <mask id="mask3_5_526" style="mask-type:luminance" maskUnits="userSpaceOnUse" x="-220" y="-2000" width="1434" height="2561">
   <path d="M-219.521 -1999.36H1213.65V560.64H-219.521V-1999.36Z" fill="white"/>
   </mask>
   <g mask="url(#mask3_5_526)">
   <path d="M111.636 45.7294V52.5588C105.301 54.3241 99.4208 53.7108 94.5546 48.8908C91.5503 45.9148 89.9698 42.1441 89.7349 37.8588C89.5412 34.3028 90.1144 30.9068 91.9351 27.8121C94.82 22.9094 99.0943 20.1734 104.769 19.7521C108.057 19.5081 111.248 19.8201 114.275 21.3574C117.87 23.1841 120.277 26.0161 121.701 29.7334C122.58 32.0241 122.974 34.4174 122.967 36.8788C122.955 41.4868 122.963 46.0934 122.963 50.7014V52.6081H115.625C115.596 52.0134 115.547 51.4788 115.547 50.9441C115.54 46.6161 115.576 42.2868 115.528 37.9588C115.505 35.8681 115.277 33.7961 114.182 31.9281C112.111 28.3921 109.072 26.6668 104.985 27.1721C101.426 27.6121 99.1315 29.7388 97.7779 33.0241C96.1099 37.0681 97.4913 41.9921 100.934 44.6788C102.937 46.2414 105.22 46.9014 107.768 46.4241C108.985 46.1961 110.205 45.9854 111.636 45.7294Z" fill="#0E121A"/>
   </g>
   <mask id="mask4_5_526" style="mask-type:luminance" maskUnits="userSpaceOnUse" x="-220" y="-2000" width="1434" height="2561">
   <path d="M-219.521 -1999.36H1213.65V560.64H-219.521V-1999.36Z" fill="white"/>
   </mask>
   <g mask="url(#mask4_5_526)">
   <path d="M306.918 27.0728C306.168 27.1742 305.402 27.2048 304.673 27.3875C300.863 28.3435 298.266 31.5675 297.769 34.9195C297.146 39.1328 298.761 42.4408 302.253 44.7408C303.761 45.7328 305.574 46.2595 307.39 46.0208C312.242 45.3862 314.928 41.8675 315.676 38.3942C316.839 33.0048 312.44 27.0062 306.918 27.0728ZM322.999 36.6102C323.089 44.0088 318.001 51.1902 310.448 52.8875C305.578 53.9808 300.905 53.2008 296.906 49.9355C294.03 47.5888 292.083 44.6142 291.101 40.9755C288.622 31.7982 294.245 22.1502 303.204 20.1568C311.592 18.2902 320.071 23.3048 322.339 32.0848C322.717 33.5515 322.786 35.0995 322.999 36.6102Z" fill="#0E121A"/>
   </g>
   <mask id="mask5_5_526" style="mask-type:luminance" maskUnits="userSpaceOnUse" x="-220" y="-2000" width="1434" height="2561">
   <path d="M-219.521 -1999.36H1213.65V560.64H-219.521V-1999.36Z" fill="white"/>
   </mask>
   <g mask="url(#mask5_5_526)">
   <path d="M230.618 52.6098H223.706C223.658 52.2844 223.585 52.0258 223.585 51.7658C223.578 45.5551 223.543 39.3431 223.59 33.1324C223.63 28.1618 225.748 24.2604 229.941 21.6084C232.887 19.7444 236.229 19.3791 239.573 19.8351C244.878 20.5591 248.68 23.3551 250.304 28.6658C250.665 29.8484 250.979 31.1031 250.99 32.3284C251.057 39.0244 251.022 45.7218 251.022 52.5031C249.857 52.8671 248.679 52.6404 247.524 52.6831C246.427 52.7218 245.325 52.6911 244.102 52.6911C244.067 51.9978 244.02 51.4618 244.018 50.9258C244.013 45.5511 244.028 40.1778 244.002 34.8031C243.998 33.9791 243.845 33.1524 243.73 32.3311C243.107 27.8364 239.014 26.0124 235.012 27.3564C232.27 28.2778 230.635 30.6964 230.624 33.7884C230.604 39.3031 230.618 44.8164 230.618 50.3298V52.6098Z" fill="#0E121A"/>
   </g>
   <mask id="mask6_5_526" style="mask-type:luminance" maskUnits="userSpaceOnUse" x="-220" y="-2000" width="1434" height="2561">
   <path d="M-219.521 -1999.36H1213.65V560.64H-219.521V-1999.36Z" fill="white"/>
   </mask>
   <g mask="url(#mask6_5_526)">
   <path d="M191.957 20.6858H198.917V22.8218C198.917 28.1298 198.899 33.4378 198.934 38.7445C198.941 39.7072 199.086 40.6885 199.313 41.6245C200.614 47.0152 207.207 47.1418 209.889 44.6818C211.67 43.0472 212.369 41.0578 212.366 38.7178C212.36 33.2698 212.365 27.8232 212.365 22.3752V20.8472C213.534 20.3525 214.718 20.6538 215.866 20.5978C216.959 20.5458 218.058 20.5872 219.356 20.5872V22.3845C219.356 28.1818 219.324 33.9778 219.365 39.7752C219.408 45.8765 215.598 51.4498 209.532 52.8978C204.318 54.1418 199.477 53.4165 195.5 49.4725C193.285 47.2778 192.067 44.4885 192.002 41.4218C191.858 34.5845 191.957 27.7418 191.957 20.6858Z" fill="#0E121A"/>
   </g>
   <mask id="mask7_5_526" style="mask-type:luminance" maskUnits="userSpaceOnUse" x="-220" y="-2000" width="1434" height="2561">
   <path d="M-219.521 -1999.36H1213.65V560.64H-219.521V-1999.36Z" fill="white"/>
   </mask>
   <g mask="url(#mask7_5_526)">
   <path d="M134.618 52.5952H127.446V8.53925C129.745 8.30991 132.072 8.49125 134.292 8.43258C134.448 8.57125 134.505 8.61258 134.551 8.66458C134.595 8.71391 134.659 8.77258 134.659 8.82725C134.685 23.1246 134.708 37.4219 134.725 51.7192C134.725 51.9819 134.661 52.2459 134.618 52.5952Z" fill="#0E121A"/>
   </g>
   </g>
   <defs>
   <clipPath id="clip0_5_526">
   <rect width="323" height="73.344" fill="white"/>
   </clipPath>
   </defs>
   </svg>
   