<?xml version="1.0" encoding="UTF-8" standalone="no"?>
<!-- Created with Inkscape (http://www.inkscape.org/) -->

<svg
   version="1.1"
   id="svg1"
   width="324.53906"
   height="73.343994"
   viewBox="0 0 324.53906 73.343994"
   xmlns="http://www.w3.org/2000/svg"
   xmlns:svg="http://www.w3.org/2000/svg">
  <defs
     id="defs1">
    <clipPath
       clipPathUnits="userSpaceOnUse"
       id="clipPath333">
      <path
         d="M 0,1920 H 1080 V 0 H 0 Z"
         transform="translate(-190.5987,-383.38111)"
         id="path333" />
    </clipPath>
    <clipPath
       clipPathUnits="userSpaceOnUse"
       id="clipPath335">
      <path
         d="M 0,1920 H 1080 V 0 H 0 Z"
         transform="translate(-276.07081,-381.02828)"
         id="path335" />
    </clipPath>
    <clipPath
       clipPathUnits="userSpaceOnUse"
       id="clipPath337">
      <path
         d="M 0,1920 H 1080 V 0 H 0 Z"
         transform="translate(-373.45823,-405.19381)"
         id="path337" />
    </clipPath>
    <clipPath
       clipPathUnits="userSpaceOnUse"
       id="clipPath339">
      <path
         d="M 0,1920 H 1080 V 0 H 0 Z"
         transform="translate(-249.55141,-386.18303)"
         id="path339" />
    </clipPath>
    <clipPath
       clipPathUnits="userSpaceOnUse"
       id="clipPath341">
      <path
         d="M 0,1920 H 1080 V 0 H 0 Z"
         transform="translate(-396.71078,-400.17549)"
         id="path341" />
    </clipPath>
    <clipPath
       clipPathUnits="userSpaceOnUse"
       id="clipPath343">
      <path
         d="M 0,1920 H 1080 V 0 H 0 Z"
         transform="translate(-339.21338,-381.02281)"
         id="path343" />
    </clipPath>
    <clipPath
       clipPathUnits="userSpaceOnUse"
       id="clipPath345">
      <path
         d="M 0,1920 H 1080 V 0 H 0 Z"
         transform="translate(-310.07933,-404.96574)"
         id="path345" />
    </clipPath>
    <clipPath
       clipPathUnits="userSpaceOnUse"
       id="clipPath347">
      <path
         d="M 0,1920 H 1080 V 0 H 0 Z"
         transform="translate(-266.86981,-381.03368)"
         id="path347" />
    </clipPath>
  </defs>
  <g
     id="layer-MC0"
     transform="translate(-4600.5674,-1999.3599)">
    <path
       id="path332"
       d="m 0,0 c -1.267,1.014 -2.302,1.873 -3.369,2.689 -3.773,2.888 -5.099,7.665 -3.801,11.714 0.731,2.28 2.175,4.047 4.209,5.282 1.913,1.162 4.014,1.803 6.27,1.579 2.289,-0.228 4.348,-1.113 6.056,-2.672 1.757,-1.605 2.868,-3.608 3.097,-5.987 C 12.814,8.953 11.875,5.762 8.835,3.424 8.628,3.265 8.452,3.067 8.25,2.9 4.945,0.177 1.633,-2.537 -1.663,-5.272 -2.409,-5.891 -3.096,-6.583 -3.85,-7.278 c 2.187,-1.963 4.271,-3.832 6.371,-5.716 0.838,0.7 1.565,1.296 2.28,1.905 2.668,2.269 5.347,4.525 7.994,6.817 2.174,1.883 4.292,3.824 5.797,6.328 1.362,2.267 2.304,4.681 2.485,7.335 0.275,4.02 -0.628,7.764 -2.726,11.219 -2.104,3.464 -4.978,6.027 -8.76,7.51 -3.101,1.216 -6.28,1.726 -9.637,1.229 -6.346,-0.94 -10.997,-4.255 -14.13,-9.774 -1.59,-2.8 -2.097,-5.848 -2.005,-9.054 0.088,-3.012 0.945,-5.741 2.564,-8.251 1.319,-2.045 3.065,-3.71 4.893,-5.276 0.855,-0.732 1.876,-1.269 2.87,-1.926 C -3.901,-3.287 -2.072,-1.746 0,0 m 4.689,37.099 c 0.218,-0.109 0.43,-0.297 0.656,-0.316 5.077,-0.425 9.588,-2.283 13.614,-5.362 5.116,-3.914 8.549,-8.975 10.011,-15.257 2.069,-8.888 0.273,-17.003 -5.487,-24.081 -4.271,-5.25 -9.908,-8.353 -16.572,-9.582 -0.74,-0.136 -1.577,0.232 -2.222,-0.41 h -4.715 c -0.27,0.112 -0.531,0.276 -0.812,0.326 -0.868,0.154 -1.759,0.2 -2.615,0.402 -6.459,1.52 -11.851,4.763 -15.91,10.064 -3.138,4.098 -5.022,8.711 -5.478,13.88 -0.024,0.271 -0.217,0.526 -0.332,0.788 v 4.087 c 0.115,0.262 0.311,0.518 0.331,0.788 0.254,3.422 1.23,6.652 2.807,9.665 1.977,3.781 4.613,7.012 8.143,9.534 3.992,2.851 8.331,4.652 13.211,5.155 0.227,0.024 0.437,0.209 0.655,0.319 z"
       style="fill:#0e121a;fill-opacity:1;fill-rule:nonzero;stroke:none"
       transform="matrix(1.3333333,0,0,-1.3333333,4634.1316,2048.8252)"
       clip-path="url(#clipPath333)" />
    <path
       id="path334"
       d="m 0,0 h -5.278 v 1.282 c 0,4.346 -0.004,8.691 0.002,13.037 0.003,1.802 0.408,3.508 1.253,5.109 1.776,3.362 4.67,4.939 8.357,5.2 2.35,0.167 4.597,-0.209 6.529,-1.675 0.696,-0.529 1.3,-1.179 2.008,-1.831 0.307,0.287 0.583,0.514 0.823,0.774 3.446,3.719 10.142,3.537 13.633,0.608 2.136,-1.792 3.334,-4.182 3.412,-6.964 0.117,-4.186 0.053,-8.376 0.065,-12.564 0.003,-0.941 0,-1.882 0,-2.869 -0.898,-0.326 -1.788,-0.13 -2.655,-0.166 -0.827,-0.035 -1.657,-0.008 -2.651,-0.008 v 1.309 c 0,4.188 0.016,8.377 -0.015,12.565 -0.006,0.772 -0.09,1.581 -0.337,2.304 -0.692,2.026 -2.451,3.311 -5.163,3.072 C 17.215,18.939 15.432,16.749 15.41,13.79 15.38,9.811 15.402,5.832 15.402,1.853 v -1.907 c -0.932,-0.004 -1.805,-0.01 -2.678,-0.012 -0.828,-0.002 -1.656,-0.001 -2.628,-0.001 0,0.628 0,1.137 0,1.647 0,4.084 0.009,8.167 -0.01,12.251 -0.003,0.618 -0.071,1.254 -0.231,1.849 -0.634,2.364 -2.28,3.627 -4.652,3.636 C 3.151,19.323 1.075,17.983 0.459,16.082 0.159,15.158 0.032,14.142 0.02,13.165 -0.029,9.344 0,5.522 0,1.7 Z"
       style="fill:#0e121a;fill-opacity:1;fill-rule:nonzero;stroke:none"
       transform="matrix(1.3333333,0,0,-1.3333333,4748.0944,2051.9623)"
       clip-path="url(#clipPath335)" />
    <path
       id="path336"
       d="m 0,0 v -5.322 c -0.661,0.168 -1.252,0.308 -1.838,0.467 -4.097,1.109 -7.101,-1.364 -8.264,-4.164 -1.435,-3.454 -0.23,-7.36 2.984,-9.285 2.96,-1.774 6.486,-0.848 8.474,1.513 1.315,1.562 1.838,3.365 1.84,5.356 0.005,6.182 0.002,12.363 0.002,18.545 0,0.565 0,1.131 0,1.778 C 5.08,9.109 6.839,8.951 8.686,9.008 8.725,8.517 8.785,8.114 8.786,7.71 8.792,0.953 8.896,-5.807 8.756,-12.562 8.645,-17.944 5.603,-23.04 -0.76,-24.448 c -5.27,-1.165 -9.868,0.328 -13.117,4.839 -2.064,2.866 -2.722,6.138 -2.159,9.665 0.48,3.007 1.754,5.56 4.006,7.607 1.919,1.744 4.161,2.777 6.78,2.829 C -3.533,0.526 -1.798,0.636 0,0"
       style="fill:#0e121a;fill-opacity:1;fill-rule:nonzero;stroke:none"
       transform="matrix(1.3333333,0,0,-1.3333333,4877.9443,2019.7416)"
       clip-path="url(#clipPath337)" />
    <path
       id="path338"
       d="m 0,0 v -5.122 c -4.774,-1.324 -9.205,-0.864 -12.872,2.751 -2.264,2.232 -3.455,5.06 -3.632,8.274 -0.146,2.667 0.286,5.214 1.658,7.535 2.174,3.677 5.395,5.729 9.671,6.045 2.478,0.183 4.883,-0.051 7.164,-1.204 2.709,-1.37 4.523,-3.494 5.596,-6.282 C 8.247,10.279 8.544,8.484 8.539,6.638 8.53,3.182 8.536,-0.273 8.536,-3.729 v -1.43 H 3.006 C 2.984,-4.713 2.947,-4.312 2.947,-3.911 2.942,-0.665 2.969,2.582 2.933,5.828 2.916,7.396 2.744,8.95 1.919,10.351 c -1.561,2.652 -3.851,3.946 -6.931,3.567 -2.682,-0.33 -4.411,-1.925 -5.431,-4.389 -1.257,-3.033 -0.216,-6.726 2.378,-8.741 1.51,-1.172 3.23,-1.667 5.15,-1.309 C -1.998,-0.35 -1.078,-0.192 0,0"
       style="fill:#0e121a;fill-opacity:1;fill-rule:nonzero;stroke:none"
       transform="matrix(1.3333333,0,0,-1.3333333,4712.7352,2045.0893)"
       clip-path="url(#clipPath339)" />
    <path
       id="path340"
       d="m 0,0 c -0.565,-0.076 -1.142,-0.099 -1.692,-0.236 -2.871,-0.717 -4.828,-3.135 -5.202,-5.649 -0.47,-3.16 0.747,-5.641 3.379,-7.366 1.136,-0.744 2.502,-1.139 3.871,-0.96 3.656,0.476 5.68,3.115 6.244,5.72 C 7.476,-4.449 4.161,0.05 0,0 m 12.118,-7.153 c 0.068,-5.549 -3.766,-10.935 -9.458,-12.208 -3.67,-0.82 -7.191,-0.235 -10.205,2.214 -2.167,1.76 -3.634,3.991 -4.374,6.72 -1.868,6.883 2.369,14.119 9.12,15.614 6.321,1.4 12.711,-2.361 14.42,-8.946 0.285,-1.1 0.337,-2.261 0.497,-3.394"
       style="fill:#0e121a;fill-opacity:1;fill-rule:nonzero;stroke:none"
       transform="matrix(1.3333333,0,0,-1.3333333,4908.9477,2026.4327)"
       clip-path="url(#clipPath341)" />
    <path
       id="path342"
       d="M 0,0 H -5.209 C -5.245,0.244 -5.3,0.438 -5.3,0.633 c -0.005,4.658 -0.032,9.317 0.004,13.975 0.03,3.728 1.626,6.654 4.786,8.643 2.22,1.398 4.738,1.672 7.258,1.33 3.998,-0.543 6.863,-2.64 8.087,-6.623 0.272,-0.887 0.508,-1.828 0.517,-2.747 C 15.402,10.189 15.376,5.166 15.376,0.08 14.498,-0.193 13.61,-0.023 12.74,-0.055 11.913,-0.084 11.083,-0.061 10.161,-0.061 10.135,0.459 10.099,0.861 10.098,1.263 10.094,5.294 10.105,9.324 10.086,13.355 10.083,13.973 9.967,14.593 9.881,15.209 9.411,18.58 6.327,19.948 3.311,18.94 1.245,18.249 0.013,16.435 0.004,14.116 -0.011,9.98 0,5.845 0,1.71 Z"
       style="fill:#0e121a;fill-opacity:1;fill-rule:nonzero;stroke:none"
       transform="matrix(1.3333333,0,0,-1.3333333,4832.2845,2051.9696)"
       clip-path="url(#clipPath343)" />
    <path
       id="path344"
       d="m 0,0 h 5.245 v -1.602 c 0,-3.981 -0.014,-7.962 0.013,-11.942 0.005,-0.722 0.114,-1.458 0.285,-2.16 0.981,-4.043 5.949,-4.138 7.97,-2.293 1.342,1.226 1.869,2.718 1.867,4.473 -0.005,4.086 -0.001,8.171 -0.001,12.257 v 1.146 c 0.881,0.371 1.773,0.145 2.638,0.187 0.824,0.039 1.652,0.008 2.63,0.008 v -1.348 c 0,-4.348 -0.024,-8.695 0.007,-13.043 0.032,-4.576 -2.839,-8.756 -7.41,-9.842 -3.929,-0.933 -7.577,-0.389 -10.574,2.569 -1.669,1.646 -2.587,3.738 -2.636,6.038 C -0.075,-10.424 0,-5.292 0,0"
       style="fill:#0e121a;fill-opacity:1;fill-rule:nonzero;stroke:none"
       transform="matrix(1.3333333,0,0,-1.3333333,4793.4391,2020.0457)"
       clip-path="url(#clipPath345)" />
    <path
       id="path346"
       d="m 0,0 h -5.404 v 33.042 c 1.732,0.172 3.486,0.036 5.159,0.08 0.117,-0.104 0.16,-0.135 0.195,-0.174 0.033,-0.037 0.081,-0.081 0.081,-0.122 C 0.051,22.103 0.068,11.38 0.081,0.657 0.081,0.46 0.033,0.262 0,0"
       style="fill:#0e121a;fill-opacity:1;fill-rule:nonzero;stroke:none"
       transform="matrix(1.3333333,0,0,-1.3333333,4735.8264,2051.9551)"
       clip-path="url(#clipPath347)" />
  </g>
</svg>
