<?xml version="1.0" encoding="UTF-8" standalone="no"?>
<!-- Created with Inkscape (http://www.inkscape.org/) -->

<svg
   version="1.1"
   id="svg1"
   width="375.36084"
   height="111.68256"
   viewBox="0 0 375.36084 111.68256"
   xmlns="http://www.w3.org/2000/svg"
   xmlns:svg="http://www.w3.org/2000/svg">
  <defs
     id="defs1">
    <clipPath
       clipPathUnits="userSpaceOnUse"
       id="clipPath221">
      <path
         d="M 0,1920 H 1080 V 0 H 0 Z"
         transform="translate(-187.8705,-1361.778)"
         id="path221" />
    </clipPath>
    <clipPath
       clipPathUnits="userSpaceOnUse"
       id="clipPath223">
      <path
         d="M 0,1920 H 1080 V 0 H 0 Z"
         transform="translate(-386.18483,-1303.7502)"
         id="path223" />
    </clipPath>
    <clipPath
       clipPathUnits="userSpaceOnUse"
       id="clipPath225">
      <path
         d="M 0,1920 H 1080 V 0 H 0 Z"
         transform="translate(-248.79451,-1350.2908)"
         id="path225" />
    </clipPath>
    <clipPath
       clipPathUnits="userSpaceOnUse"
       id="clipPath227">
      <path
         d="M 0,1920 H 1080 V 0 H 0 Z"
         transform="translate(-381.20641,-1342.8593)"
         id="path227" />
    </clipPath>
    <clipPath
       clipPathUnits="userSpaceOnUse"
       id="clipPath229">
      <path
         d="M 0,1920 H 1080 V 0 H 0 Z"
         transform="translate(-281.92553,-1300.2639)"
         id="path229" />
    </clipPath>
    <clipPath
       clipPathUnits="userSpaceOnUse"
       id="clipPath231">
      <path
         d="M 0,1920 H 1080 V 0 H 0 Z"
         transform="translate(-337.48471,-1285.6658)"
         id="path231" />
    </clipPath>
    <clipPath
       clipPathUnits="userSpaceOnUse"
       id="clipPath233">
      <path
         d="M 0,1920 H 1080 V 0 H 0 Z"
         transform="translate(-315.01568,-1328.7821)"
         id="path233" />
    </clipPath>
    <clipPath
       clipPathUnits="userSpaceOnUse"
       id="clipPath235">
      <path
         d="M 0,1920 H 1080 V 0 H 0 Z"
         id="path235" />
    </clipPath>
    <clipPath
       clipPathUnits="userSpaceOnUse"
       id="clipPath237">
      <path
         d="M 0,1920 H 1080 V 0 H 0 Z"
         transform="translate(-192.55418,-1337.6809)"
         id="path237" />
    </clipPath>
    <clipPath
       clipPathUnits="userSpaceOnUse"
       id="clipPath239">
      <path
         d="M 0,1920 H 1080 V 0 H 0 Z"
         transform="translate(-176.46788,-1337.6882)"
         id="path239" />
    </clipPath>
    <clipPath
       clipPathUnits="userSpaceOnUse"
       id="clipPath241">
      <path
         d="M 0,1920 H 1080 V 0 H 0 Z"
         transform="translate(-273.84998,-1285.6458)"
         id="path241" />
    </clipPath>
    <clipPath
       clipPathUnits="userSpaceOnUse"
       id="clipPath243">
      <path
         d="M 0,1920 H 1080 V 0 H 0 Z"
         transform="translate(-371.02261,-1330.8794)"
         id="path243" />
    </clipPath>
    <clipPath
       clipPathUnits="userSpaceOnUse"
       id="clipPath245">
      <path
         d="M 0,1920 H 1080 V 0 H 0 Z"
         transform="translate(-270.81811,-1338.8206)"
         id="path245" />
    </clipPath>
    <clipPath
       clipPathUnits="userSpaceOnUse"
       id="clipPath247">
      <path
         d="M 0,1920 H 1080 V 0 H 0 Z"
         transform="translate(-297.28448,-1341.3682)"
         id="path247" />
    </clipPath>
    <clipPath
       clipPathUnits="userSpaceOnUse"
       id="clipPath249">
      <path
         d="M 0,1920 H 1080 V 0 H 0 Z"
         transform="translate(-307.47578,-1298.256)"
         id="path249" />
    </clipPath>
    <clipPath
       clipPathUnits="userSpaceOnUse"
       id="clipPath251">
      <path
         d="M 0,1920 H 1080 V 0 H 0 Z"
         transform="translate(-406.86931,-1341.3741)"
         id="path251" />
    </clipPath>
    <clipPath
       clipPathUnits="userSpaceOnUse"
       id="clipPath253">
      <path
         d="M 0,1920 H 1080 V 0 H 0 Z"
         transform="translate(-359.75393,-1298.2574)"
         id="path253" />
    </clipPath>
    <clipPath
       clipPathUnits="userSpaceOnUse"
       id="clipPath255">
      <path
         d="M 0,1920 H 1080 V 0 H 0 Z"
         transform="translate(-251.48791,-1285.6604)"
         id="path255" />
    </clipPath>
    <clipPath
       clipPathUnits="userSpaceOnUse"
       id="clipPath257">
      <path
         d="M 0,1920 H 1080 V 0 H 0 Z"
         transform="translate(-314.87453,-1314.069)"
         id="path257" />
    </clipPath>
    <clipPath
       clipPathUnits="userSpaceOnUse"
       id="clipPath259">
      <path
         d="M 0,1920 H 1080 V 0 H 0 Z"
         transform="translate(-417.52809,-1346.4355)"
         id="path259" />
    </clipPath>
    <clipPath
       clipPathUnits="userSpaceOnUse"
       id="clipPath261">
      <path
         d="M 0,1920 H 1080 V 0 H 0 Z"
         transform="translate(-326.66431,-1346.8756)"
         id="path261" />
    </clipPath>
    <clipPath
       clipPathUnits="userSpaceOnUse"
       id="clipPath263">
      <path
         d="M 0,1920 H 1080 V 0 H 0 Z"
         transform="translate(-200.57521,-1311.6234)"
         id="path263" />
    </clipPath>
    <clipPath
       clipPathUnits="userSpaceOnUse"
       id="clipPath265">
      <path
         d="M 0,1920 H 1080 V 0 H 0 Z"
         transform="translate(-168.46373,-1311.6224)"
         id="path265" />
    </clipPath>
    <clipPath
       clipPathUnits="userSpaceOnUse"
       id="clipPath267">
      <path
         d="M 0,1920 H 1080 V 0 H 0 Z"
         transform="translate(-176.45378,-1340.7262)"
         id="path267" />
    </clipPath>
    <clipPath
       clipPathUnits="userSpaceOnUse"
       id="clipPath269">
      <path
         d="M 0,1920 H 1080 V 0 H 0 Z"
         transform="translate(-376.39021,-1285.6586)"
         id="path269" />
    </clipPath>
    <clipPath
       clipPathUnits="userSpaceOnUse"
       id="clipPath271">
      <path
         d="M 0,1920 H 1080 V 0 H 0 Z"
         transform="translate(-342.15151,-1328.7837)"
         id="path271" />
    </clipPath>
    <clipPath
       clipPathUnits="userSpaceOnUse"
       id="clipPath273">
      <path
         d="M 0,1920 H 1080 V 0 H 0 Z"
         transform="translate(-371.85061,-1316.6002)"
         id="path273" />
    </clipPath>
    <clipPath
       clipPathUnits="userSpaceOnUse"
       id="clipPath275">
      <path
         d="M 0,1920 H 1080 V 0 H 0 Z"
         transform="translate(-348.71153,-1356.9756)"
         id="path275" />
    </clipPath>
  </defs>
  <g
     id="layer-MC0"
     transform="translate(-4575.1567,-744.29602)">
    <path
       id="path220"
       d="m 0,0 c 0.778,-0.074 1.556,-0.153 2.335,-0.222 17.336,-1.554 31.75,-14.303 35.472,-31.377 3.456,-15.852 -3.1,-32.381 -16.443,-41.456 -0.167,-0.114 -0.338,-0.221 -0.601,-0.392 -0.024,0.27 -0.055,0.458 -0.056,0.647 -0.002,7.34 0.002,14.68 -0.011,22.021 -0.001,0.498 0.12,0.686 0.655,0.664 1.06,-0.044 2.123,-0.013 3.252,-0.013 v -15.935 c 0.174,0.127 0.27,0.171 0.329,0.244 3.334,4.177 6.298,8.571 8.095,13.661 1.742,4.936 2.403,10.016 1.882,15.208 -1.285,12.804 -7.537,22.49 -18.637,28.987 -4.694,2.748 -9.833,4.162 -15.27,4.528 -18.376,1.235 -34.516,-11.577 -38.038,-29.218 -1.966,-9.847 -0.328,-19.072 5.242,-27.509 1.325,-2.006 2.745,-3.951 4.121,-5.924 0.061,0.025 0.122,0.049 0.183,0.074 v 15.837 h 3.997 v -23.246 c -0.153,0.086 -0.295,0.152 -0.42,0.239 -8.781,6.128 -14.415,14.378 -16.662,24.86 -0.44,2.051 -0.555,4.171 -0.822,6.259 -0.026,0.201 -0.07,0.399 -0.106,0.599 v 2.689 c 0.037,0.274 0.082,0.546 0.109,0.82 0.128,1.299 0.186,2.608 0.386,3.896 1.108,7.141 3.888,13.572 8.492,19.15 7.124,8.628 16.274,13.551 27.436,14.686 0.758,0.077 1.517,0.149 2.276,0.223 z"
       style="fill:#0e121a;fill-opacity:1;fill-rule:nonzero;stroke:none"
       transform="matrix(1.3333333,0,0,-1.3333333,4630.494,744.296)"
       clip-path="url(#clipPath221)" />
    <path
       id="path222"
       d="m 0,0 c 0.737,0.502 1.328,0.959 1.968,1.331 1.639,0.953 3.386,1.353 5.271,0.884 1.413,-0.353 2.491,-1.151 3.196,-2.494 0.43,0.372 0.812,0.717 1.21,1.043 1.958,1.603 4.167,2.114 6.612,1.432 1.827,-0.509 2.998,-1.967 3.157,-3.855 0.046,-0.539 0.071,-1.081 0.072,-1.621 0.006,-4.015 0.01,-8.029 -0.007,-12.044 -0.002,-0.438 0.115,-0.646 0.558,-0.7 0.388,-0.047 0.772,-0.141 1.148,-0.248 0.231,-0.066 0.616,-0.17 0.635,-0.299 0.067,-0.472 0.017,-0.963 -0.014,-1.445 -0.002,-0.042 -0.19,-0.104 -0.291,-0.104 -2.728,0 -5.457,0.007 -8.185,0.014 -0.034,0 -0.068,0.027 -0.184,0.076 0,0.405 -0.025,0.847 0.017,1.283 0.011,0.125 0.199,0.293 0.338,0.336 0.463,0.141 0.938,0.25 1.414,0.338 0.293,0.055 0.402,0.183 0.401,0.485 -0.013,4.146 -0.014,8.291 -0.025,12.436 -0.001,0.222 -0.05,0.445 -0.093,0.663 -0.332,1.669 -1.367,2.4 -3.027,2.125 -1.298,-0.214 -2.273,-0.999 -3.182,-1.873 -0.11,-0.106 -0.134,-0.339 -0.135,-0.513 -0.007,-4.22 -10e-4,-8.44 -0.013,-12.66 -10e-4,-0.361 0.086,-0.571 0.465,-0.604 0.092,-0.008 0.182,-0.039 0.273,-0.061 1.476,-0.357 1.498,-0.392 1.228,-1.993 -0.187,-0.011 -0.386,-0.035 -0.586,-0.035 -2.355,-0.003 -4.71,0.009 -7.065,-0.011 -0.488,-0.004 -0.695,0.098 -0.672,0.644 0.043,0.992 0.009,0.993 0.971,1.191 1.403,0.289 1.403,0.289 1.403,1.744 0,3.436 0.005,6.872 -0.005,10.308 -10e-4,0.501 -0.033,1.008 -0.11,1.504 -0.28,1.79 -1.491,2.652 -3.279,2.357 C 2.207,-0.573 1.236,-1.287 0.361,-2.151 0.25,-2.26 0.214,-2.486 0.214,-2.658 0.206,-6.915 0.211,-11.173 0.202,-15.43 c -0.001,-0.328 0.062,-0.546 0.426,-0.576 0.055,-0.005 0.108,-0.032 0.162,-0.046 1.482,-0.384 1.482,-0.384 1.289,-2.038 -0.17,-0.012 -0.351,-0.035 -0.531,-0.035 -2.43,-0.002 -4.86,0.009 -7.289,-0.011 -0.463,-0.004 -0.615,0.129 -0.605,0.599 0.022,1.053 -0.001,1.053 1.028,1.259 1.428,0.285 1.428,0.285 1.428,1.769 0,4.501 -0.007,9.001 0.009,13.501 0.002,0.454 -0.09,0.669 -0.586,0.713 -0.608,0.055 -1.207,0.209 -1.868,0.332 0,0.355 -0.034,0.693 0.015,1.018 0.023,0.156 0.179,0.379 0.317,0.416 1.64,0.438 3.284,0.858 4.935,1.251 0.315,0.075 0.662,0.011 1.068,0.011 z"
       style="fill:#0e121a;fill-opacity:1;fill-rule:nonzero;stroke:none"
       transform="matrix(1.3333333,0,0,-1.3333333,4894.9131,821.6664)"
       clip-path="url(#clipPath223)" />
    <path
       id="path224"
       d="m 0,0 c 0,-1.624 0.013,-3.249 -0.009,-4.873 -0.006,-0.446 0.142,-0.591 0.581,-0.57 0.728,0.034 1.459,-0.008 2.186,0.027 2.458,0.119 3.831,1.127 4.378,3.257 C 7.533,-0.617 7.552,0.95 7.152,2.495 6.703,4.227 5.634,5.384 3.84,5.761 2.737,5.992 1.651,5.835 0.575,5.535 0.153,5.417 -0.023,5.231 -0.013,4.761 0.02,3.174 0,1.587 0,0 M 2.011,-7.318 2.003,-7.38 c -0.467,0 -0.936,-0.032 -1.4,0.008 -0.513,0.045 -0.619,-0.17 -0.617,-0.644 0.017,-3.563 0.018,-7.127 -10e-4,-10.69 -0.003,-0.454 0.172,-0.68 0.559,-0.839 1.168,-0.477 2.37,-0.454 3.579,-0.243 2.628,0.457 4.277,1.95 4.787,4.446 0.174,0.848 0.198,1.744 0.158,2.612 -0.127,2.741 -1.659,4.527 -4.342,5.077 -0.891,0.182 -1.81,0.227 -2.715,0.335 M -7,-21.552 v 1.623 c 0.81,0.149 1.608,0.321 2.415,0.433 0.373,0.052 0.443,0.215 0.443,0.549 -0.007,7.879 -0.007,15.757 0.001,23.636 0,0.358 -0.076,0.528 -0.472,0.581 -0.792,0.105 -1.576,0.278 -2.386,0.427 v 1.652 c 0.092,0.026 0.16,0.061 0.228,0.062 C -3.093,7.495 0.585,7.596 4.264,7.646 5.767,7.666 7.242,7.432 8.617,6.764 12.565,4.843 13.518,-0.751 10.381,-3.944 9.637,-4.702 8.652,-5.224 7.774,-5.849 7.643,-5.942 7.491,-6.007 7.232,-6.148 c 0.406,-0.11 0.697,-0.187 0.987,-0.267 3.31,-0.908 5.446,-3.552 5.636,-6.979 0.258,-4.629 -2.705,-8.013 -7.343,-8.144 -4.126,-0.116 -8.257,-0.017 -12.386,-0.014 -0.354,0.001 -0.708,0 -1.126,0"
       style="fill:#0e121a;fill-opacity:1;fill-rule:nonzero;stroke:none"
       transform="matrix(1.3333333,0,0,-1.3333333,4711.726,759.61227)"
       clip-path="url(#clipPath225)" />
    <path
       id="path226"
       d="M 0,0 C 0.18,-1.025 0.313,-2.151 0.589,-3.242 0.803,-4.092 1.392,-4.71 2.272,-4.964 3.891,-5.431 5.207,-4.618 5.658,-2.855 6.024,-1.426 5.967,0.031 5.83,1.479 5.773,2.083 5.628,2.696 5.417,3.266 4.974,4.465 4.045,5.066 2.842,5.029 1.667,4.992 0.814,4.363 0.485,3.09 0.237,2.127 0.168,1.117 0,0 m 2.908,-19.616 c 1.431,0.161 2.833,0.304 4.091,0.979 0.593,0.319 1.193,0.74 1.602,1.262 1.026,1.308 0.35,3.053 -1.28,3.268 -2.328,0.308 -4.672,0.496 -7.011,0.724 -0.129,0.012 -0.326,-0.045 -0.394,-0.14 -0.461,-0.645 -1.044,-1.254 -1.308,-1.977 -0.584,-1.601 0.087,-2.964 1.696,-3.541 0.83,-0.298 1.734,-0.39 2.604,-0.575 m -3.667,13.632 c -0.292,0.207 -0.5,0.358 -0.712,0.504 -2.207,1.514 -2.986,3.674 -2.677,6.233 0.334,2.766 1.864,4.656 4.501,5.612 1.54,0.558 3.109,0.573 4.684,0.163 C 6.296,6.2 7.561,6.093 8.865,6.187 c 1.074,0.078 2.158,0.016 3.314,0.016 0,-0.677 0.016,-1.398 -0.021,-2.117 C 12.154,4 11.865,3.866 11.706,3.862 10.792,3.84 9.878,3.851 8.885,3.851 8.972,3.702 9.046,3.547 9.144,3.409 11.886,-0.428 9.856,-6.26 4.165,-6.946 3.258,-7.055 2.315,-6.838 1.387,-6.813 1.103,-6.805 0.76,-6.858 0.541,-7.018 c -0.37,-0.27 -0.703,-0.617 -0.979,-0.986 -0.355,-0.475 -0.256,-0.887 0.276,-1.152 0.323,-0.162 0.703,-0.272 1.063,-0.289 1.997,-0.095 3.996,-0.138 5.993,-0.236 0.611,-0.03 1.23,-0.124 1.82,-0.281 2.123,-0.563 3.208,-1.983 3.312,-4.233 0.107,-2.343 -0.859,-4.158 -2.729,-5.513 -1.535,-1.113 -3.298,-1.633 -5.156,-1.863 -2.173,-0.27 -4.328,-0.213 -6.418,0.512 -0.558,0.193 -1.108,0.461 -1.598,0.789 -1.749,1.17 -2.135,3.23 -0.891,4.931 0.445,0.608 1.06,1.093 1.616,1.615 0.242,0.228 0.529,0.407 0.849,0.648 -0.306,0.149 -0.568,0.267 -0.822,0.401 -1.567,0.829 -1.966,2.399 -0.975,3.869 0.683,1.015 1.668,1.699 2.657,2.374 0.199,0.136 0.403,0.264 0.682,0.448"
       style="fill:#0e121a;fill-opacity:1;fill-rule:nonzero;stroke:none"
       transform="matrix(1.3333333,0,0,-1.3333333,4888.2752,769.52093)"
       clip-path="url(#clipPath227)" />
    <path
       id="path228"
       d="M 0,0 C 0.079,-1.086 0.109,-1.813 0.195,-2.534 0.242,-2.937 0.354,-3.339 0.488,-3.723 0.813,-4.659 1.39,-5.354 2.429,-5.524 3.892,-5.763 4.951,-5.15 5.458,-3.756 5.907,-2.523 5.982,-1.23 5.844,0.051 5.734,1.057 5.545,2.081 5.204,3.03 4.801,4.152 3.806,4.663 2.623,4.598 1.578,4.541 0.791,3.952 0.483,2.78 0.215,1.763 0.117,0.701 0,0 m 2.769,-20.071 c 0.913,0.121 1.678,0.178 2.424,0.329 1.223,0.248 2.381,0.674 3.231,1.649 1.17,1.341 0.578,3.139 -1.141,3.51 -0.255,0.055 -0.512,0.111 -0.771,0.136 -1.82,0.175 -3.649,0.282 -5.457,0.534 -0.994,0.139 -1.606,-0.207 -2.056,-1.017 -0.136,-0.243 -0.278,-0.488 -0.374,-0.748 -0.671,-1.816 -0.014,-3.297 1.822,-3.92 0.782,-0.266 1.63,-0.338 2.322,-0.473 m -5.126,6.496 c -0.422,0.224 -0.764,0.376 -1.076,0.575 -1.26,0.805 -1.603,2.13 -0.885,3.457 0.634,1.171 1.673,1.94 2.735,2.681 0.208,0.145 0.421,0.283 0.686,0.461 -0.214,0.153 -0.355,0.266 -0.508,0.362 -2.341,1.464 -3.185,3.637 -2.875,6.284 0.299,2.556 1.66,4.396 4.033,5.438 1.535,0.674 3.16,0.851 4.769,0.412 1.919,-0.523 3.846,-0.426 5.787,-0.354 0.592,0.022 1.185,0.003 1.81,0.003 V 3.387 H 8.726 C 8.865,3.152 8.951,2.976 9.064,2.819 11.509,-0.569 10.069,-6.093 4.817,-7.27 3.631,-7.535 2.447,-7.49 1.261,-7.235 c -0.22,0.047 -0.535,0 -0.703,-0.133 -0.419,-0.334 -0.832,-0.702 -1.148,-1.13 -0.361,-0.49 -0.202,-0.939 0.37,-1.164 0.34,-0.134 0.721,-0.198 1.087,-0.22 2.089,-0.125 4.181,-0.207 6.268,-0.352 0.625,-0.044 1.259,-0.188 1.856,-0.386 2.207,-0.732 3.061,-2.436 2.878,-4.913 -0.199,-2.677 -1.773,-4.446 -4.122,-5.488 -3.338,-1.479 -6.797,-1.592 -10.279,-0.494 -0.525,0.166 -1.031,0.444 -1.492,0.752 -1.661,1.109 -2.126,3.107 -0.987,4.744 0.55,0.791 1.386,1.385 2.101,2.059 0.143,0.135 0.325,0.229 0.553,0.385"
       style="fill:#0e121a;fill-opacity:1;fill-rule:nonzero;stroke:none"
       transform="matrix(1.3333333,0,0,-1.3333333,4755.9007,826.3148)"
       clip-path="url(#clipPath229)" />
    <path
       id="path230"
       d="M 0,0 C 0,0.46 -0.026,0.888 0.016,1.308 0.028,1.44 0.205,1.621 0.341,1.661 0.751,1.781 1.177,1.851 1.6,1.923 1.909,1.975 2.031,2.123 2.029,2.45 1.999,6.65 1.981,10.851 1.958,15.051 1.957,15.2 1.947,15.351 1.924,15.498 1.645,17.222 0.577,17.959 -1.17,17.604 -2.385,17.358 -3.337,16.63 -4.236,15.831 -4.337,15.74 -4.373,15.531 -4.373,15.377 -4.38,11.12 -4.375,6.862 -4.385,2.605 -4.386,2.284 -4.291,2.134 -3.97,2.079 -3.603,2.017 -3.249,1.867 -2.882,1.825 -2.398,1.77 -2.234,1.567 -2.252,1.067 -2.291,-0.041 -2.262,-0.042 -3.401,-0.042 h -6.728 -0.705 c 0,0.5 -0.031,0.929 0.017,1.349 0.016,0.136 0.219,0.316 0.369,0.358 0.502,0.14 1.015,0.267 1.531,0.32 0.478,0.049 0.552,0.283 0.549,0.702 -0.014,2.987 -0.007,5.975 -0.007,8.962 0,5.228 -0.006,10.457 0.01,15.685 10e-4,0.48 -0.105,0.704 -0.623,0.747 -0.571,0.048 -1.133,0.204 -1.719,0.317 v 1.388 c 2.08,0.353 4.099,1.101 6.32,1.18 v -12.84 c 0.285,0.213 0.472,0.35 0.656,0.49 1.498,1.148 3.111,1.99 5.071,1.937 C 4.33,20.471 6.144,18.672 6.163,15.677 6.19,11.419 6.185,7.162 6.157,2.905 6.153,2.315 6.318,2.042 6.897,2.014 7.025,2.007 7.15,1.951 7.277,1.922 8.404,1.664 8.387,1.664 8.39,0.494 8.391,0.078 8.265,-0.053 7.846,-0.05 5.416,-0.033 2.986,-0.043 0.557,-0.04 0.393,-0.04 0.229,-0.017 0,0"
       style="fill:#0e121a;fill-opacity:1;fill-rule:nonzero;stroke:none"
       transform="matrix(1.3333333,0,0,-1.3333333,4829.9796,845.77893)"
       clip-path="url(#clipPath231)" />
    <path
       id="path232"
       d="M 0,0 V 1.574 C 0.552,1.694 1.102,1.788 1.632,1.947 1.785,1.992 1.987,2.225 1.987,2.373 1.997,6.536 1.985,10.7 1.972,14.864 1.971,15.048 1.921,15.233 1.888,15.416 1.574,17.177 0.492,17.89 -1.265,17.498 -2.393,17.246 -3.32,16.628 -4.168,15.881 -4.287,15.775 -4.372,15.562 -4.372,15.398 -4.381,11.048 -4.378,6.697 -4.374,2.347 c 0,-0.072 0.028,-0.145 0.049,-0.253 0.539,-0.12 1.087,-0.225 1.623,-0.374 0.137,-0.038 0.324,-0.208 0.335,-0.33 0.04,-0.458 0.016,-0.922 0.016,-1.406 h -8.432 v 1.604 c 0.588,0.122 1.196,0.28 1.813,0.366 0.491,0.069 0.619,0.293 0.618,0.773 -0.016,6.237 -0.01,12.473 -0.011,18.71 0,1.96 -0.01,3.921 0.008,5.881 0.004,0.409 -0.105,0.611 -0.535,0.668 -0.479,0.063 -0.944,0.228 -1.423,0.296 -0.344,0.049 -0.412,0.217 -0.419,0.524 -0.02,0.965 -0.029,0.958 0.9,1.142 1.354,0.268 2.703,0.561 4.06,0.815 0.431,0.081 0.879,0.074 1.383,0.111 V 18.113 c 0.28,0.199 0.452,0.316 0.619,0.44 1.098,0.821 2.235,1.588 3.605,1.855 3.042,0.593 6.332,-0.582 6.349,-5.167 C 6.2,11.096 6.188,6.951 6.188,2.806 V 2.102 C 6.915,1.952 7.602,1.81 8.322,1.661 V 0 Z"
       style="fill:#0e121a;fill-opacity:1;fill-rule:nonzero;stroke:none"
       transform="matrix(1.3333333,0,0,-1.3333333,4800.0209,788.29053)"
       clip-path="url(#clipPath233)" />
    <path
       id="path234"
       d="m 188.369,1281.753 h -3.82 v 55.887 h 3.82 z"
       style="fill:#0e121a;fill-opacity:1;fill-rule:nonzero;stroke:none"
       transform="matrix(1.3333333,0,0,-1.3333333,4380,2560)"
       clip-path="url(#clipPath235)" />
    <path
       id="path236"
       d="m 0,0 c 1.206,0 2.363,0.009 3.519,-0.014 0.117,-0.002 0.279,-0.182 0.332,-0.314 0.059,-0.145 0.018,-0.331 0.018,-0.499 0,-17.718 -0.003,-35.437 0.013,-53.155 10e-4,-0.577 -0.124,-0.87 -0.731,-0.982 C 2.112,-55.157 1.087,-55.43 0,-55.683 Z"
       style="fill:#0e121a;fill-opacity:1;fill-rule:nonzero;stroke:none"
       transform="matrix(1.3333333,0,0,-1.3333333,4636.7389,776.42547)"
       clip-path="url(#clipPath237)" />
    <path
       id="path238"
       d="M 0,0 C 1.25,0 2.407,0.009 3.564,-0.014 3.68,-0.017 3.846,-0.2 3.892,-0.332 3.95,-0.5 3.909,-0.701 3.909,-0.888 c 0,-17.944 0,-35.889 0,-53.834 v -0.936 c -1.269,0.291 -2.432,0.545 -3.586,0.836 -0.134,0.034 -0.243,0.258 -0.313,0.417 -0.049,0.109 -0.01,0.257 -0.01,0.388 0,17.739 0,35.478 0,53.217 z"
       style="fill:#0e121a;fill-opacity:1;fill-rule:nonzero;stroke:none"
       transform="matrix(1.3333333,0,0,-1.3333333,4615.2905,776.41573)"
       clip-path="url(#clipPath239)" />
    <path
       id="path240"
       d="m 0,0 h -8.406 v 1.611 c 0.549,0.107 1.111,0.233 1.678,0.321 0.379,0.059 0.517,0.218 0.516,0.622 -0.017,4.034 -0.007,8.068 -0.02,12.102 -0.002,0.462 -0.06,0.934 -0.168,1.384 -0.321,1.333 -1.181,1.941 -2.541,1.817 -1.406,-0.128 -2.526,-0.858 -3.545,-1.764 -0.112,-0.1 -0.146,-0.333 -0.146,-0.505 -0.008,-4.295 0,-8.59 -0.017,-12.885 -0.002,-0.411 0.146,-0.559 0.516,-0.621 0.441,-0.074 0.874,-0.195 1.313,-0.283 0.28,-0.056 0.388,-0.196 0.398,-0.497 0.047,-1.332 0.057,-1.332 -1.257,-1.332 -2.28,0 -4.561,0.01 -6.841,-0.008 -0.43,-0.004 -0.588,0.101 -0.579,0.56 0.023,1.087 -0.001,1.087 1.099,1.307 1.366,0.272 1.366,0.272 1.366,1.647 v 13.334 0.703 c -0.829,0.125 -1.616,0.242 -2.424,0.363 v 1.645 c 2.058,0.402 4.044,1.251 6.294,1.372 v -2.588 c 0.303,0.205 0.48,0.315 0.647,0.439 1.221,0.909 2.48,1.758 4.038,1.949 2.917,0.357 5.788,-0.885 5.868,-4.724 C -2.12,11.639 -2.167,7.305 -2.19,2.972 -2.194,2.37 -2.026,2.136 -1.429,2.022 0.154,1.72 0.148,1.69 0,0"
       style="fill:#0e121a;fill-opacity:1;fill-rule:nonzero;stroke:none"
       transform="matrix(1.3333333,0,0,-1.3333333,4745.1333,845.8056)"
       clip-path="url(#clipPath241)" />
    <path
       id="path242"
       d="M 0,0 C 0.649,-0.131 1.236,-0.234 1.812,-0.378 1.951,-0.412 2.149,-0.574 2.159,-0.692 2.2,-1.15 2.176,-1.614 2.176,-2.109 h -8.39 v 1.592 c 0.542,0.111 1.098,0.253 1.664,0.332 0.349,0.049 0.468,0.178 0.467,0.533 -0.014,4.164 -0.014,8.327 -0.019,12.491 0,0.13 -0.003,0.261 -0.013,0.392 -0.157,1.994 -1.505,2.914 -3.429,2.346 -1.03,-0.305 -1.876,-0.908 -2.642,-1.631 -0.129,-0.121 -0.212,-0.355 -0.213,-0.537 -0.012,-4.331 -0.006,-8.663 -0.015,-12.995 0,-0.329 0.123,-0.457 0.438,-0.508 0.548,-0.09 1.09,-0.22 1.656,-0.338 v -1.67 h -8.545 v 1.589 c 0.639,0.135 1.288,0.289 1.943,0.405 0.33,0.059 0.474,0.184 0.473,0.542 -0.01,4.836 -0.009,9.672 -10e-4,14.507 0,0.357 -0.126,0.492 -0.483,0.515 -0.646,0.042 -1.288,0.131 -1.95,0.202 v 1.561 c 1.258,0.606 5.496,1.515 6.319,1.335 v -2.457 c 0.252,0.186 0.407,0.297 0.557,0.414 1.249,0.975 2.567,1.824 4.192,1.986 2.601,0.259 5.078,-0.66 5.659,-3.727 0.113,-0.6 0.147,-1.223 0.149,-1.836 C 0.006,8.863 0,4.793 0,0.723 Z"
       style="fill:#0e121a;fill-opacity:1;fill-rule:nonzero;stroke:none"
       transform="matrix(1.3333333,0,0,-1.3333333,4874.6968,785.49413)"
       clip-path="url(#clipPath243)" />
    <path
       id="path244"
       d="m 0,0 c 0.053,-0.912 0.069,-1.828 0.167,-2.734 0.159,-1.469 0.422,-2.919 1.204,-4.211 1.195,-1.973 3.472,-2.063 4.741,-0.133 0.461,0.702 0.8,1.528 1.005,2.345 0.739,2.932 0.739,5.91 0.323,8.888 C 7.267,5.395 6.969,6.613 6.257,7.677 5.157,9.323 3.09,9.468 1.859,7.915 1.363,7.29 0.999,6.514 0.748,5.749 0.136,3.89 0.039,1.948 0,0 m 12.18,0.674 c 0.022,-2.532 -0.353,-4.781 -1.501,-6.839 -1.332,-2.388 -3.288,-3.951 -6.074,-4.266 -3.109,-0.351 -5.502,0.881 -7.204,3.459 -1.24,1.879 -1.689,4.012 -1.765,6.223 -0.091,2.653 0.361,5.209 1.66,7.559 1.073,1.941 2.594,3.372 4.81,3.908 4.09,0.991 8.001,-1.269 9.374,-5.394 0.525,-1.575 0.722,-3.198 0.7,-4.65"
       style="fill:#0e121a;fill-opacity:1;fill-rule:nonzero;stroke:none"
       transform="matrix(1.3333333,0,0,-1.3333333,4741.0908,774.90587)"
       clip-path="url(#clipPath245)" />
    <path
       id="path246"
       d="M 0,0 C -0.055,0.788 -0.033,1.524 -0.172,2.228 -0.362,3.187 -0.546,4.184 -0.963,5.055 -1.714,6.617 -3.697,6.812 -4.814,5.476 -6.126,3.906 -6.256,1.957 -6.488,0 Z M 4.218,-2.007 H -6.487 c 0.139,-2.352 0.289,-4.649 1.734,-6.581 1.48,-1.978 4.201,-2.115 5.929,-0.352 0.351,0.358 0.62,0.796 0.966,1.159 0.113,0.118 0.377,0.201 0.527,0.154 0.476,-0.149 0.932,-0.367 1.391,-0.557 -0.795,-2.601 -3.273,-4.61 -5.945,-4.784 -0.887,-0.058 -1.803,-0.083 -2.673,0.068 -2.548,0.443 -4.151,2.068 -5.113,4.385 -0.868,2.093 -1.061,4.299 -0.967,6.534 0.079,1.891 0.375,3.751 1.098,5.514 0.846,2.064 2.118,3.743 4.353,4.442 C -3.454,8.517 -1.72,8.428 -0.03,7.774 1.124,7.328 2.01,6.536 2.638,5.476 3.993,3.188 4.142,0.648 4.218,-2.007"
       style="fill:#0e121a;fill-opacity:1;fill-rule:nonzero;stroke:none"
       transform="matrix(1.3333333,0,0,-1.3333333,4776.3793,771.50907)"
       clip-path="url(#clipPath247)" />
    <path
       id="path248"
       d="M 0,0 C -0.061,1.721 -0.099,3.387 -0.835,4.922 -1.662,6.646 -3.662,6.895 -4.858,5.403 -6.109,3.843 -6.239,1.927 -6.474,0 Z M 4.17,-1.989 H -6.498 c 0.102,-0.973 0.12,-1.905 0.316,-2.797 0.222,-1.011 0.486,-2.045 0.939,-2.968 1.398,-2.848 4.695,-3.226 6.766,-0.83 0.291,0.337 0.546,0.705 0.855,1.107 0.569,-0.231 1.146,-0.465 1.719,-0.698 -1.019,-2.911 -3.509,-4.715 -6.488,-4.844 -2.443,-0.106 -4.545,0.533 -6.105,2.511 -1.067,1.353 -1.623,2.931 -1.884,4.61 -0.496,3.188 -0.319,6.331 0.843,9.365 0.797,2.081 2.075,3.772 4.299,4.493 1.764,0.572 3.544,0.501 5.264,-0.193 1.771,-0.714 2.79,-2.134 3.386,-3.881 0.62,-1.82 0.804,-3.71 0.808,-5.622 0,-0.07 -0.027,-0.14 -0.05,-0.253"
       style="fill:#0e121a;fill-opacity:1;fill-rule:nonzero;stroke:none"
       transform="matrix(1.3333333,0,0,-1.3333333,4789.9677,828.992)"
       clip-path="url(#clipPath249)" />
    <path
       id="path250"
       d="M 0,0 C -0.026,1.649 -0.088,3.249 -0.746,4.744 -1.611,6.711 -3.766,6.933 -5.006,5.176 -6.088,3.642 -6.233,1.831 -6.457,0 Z M 4.252,-2.009 H -6.545 c 0.206,-1.341 0.324,-2.621 0.622,-3.856 0.206,-0.855 0.554,-1.719 1.027,-2.458 1.459,-2.276 4.406,-2.487 6.234,-0.504 0.377,0.409 0.705,0.864 1.081,1.33 0.558,-0.23 1.122,-0.462 1.682,-0.693 -0.728,-2.479 -3.264,-4.594 -5.782,-4.772 -0.943,-0.067 -1.918,-0.104 -2.841,0.06 -2.842,0.506 -4.447,2.419 -5.348,5.017 -0.785,2.266 -0.837,4.615 -0.642,6.973 0.139,1.681 0.494,3.322 1.201,4.864 0.937,2.043 2.323,3.647 4.62,4.132 3.603,0.76 7.16,-0.395 8.339,-4.899 0.438,-1.674 0.585,-3.374 0.604,-5.194"
       style="fill:#0e121a;fill-opacity:1;fill-rule:nonzero;stroke:none"
       transform="matrix(1.3333333,0,0,-1.3333333,4922.4924,771.5012)"
       clip-path="url(#clipPath251)" />
    <path
       id="path252"
       d="M 0,0 C -0.051,1.751 -0.081,3.47 -0.894,5.037 -1.74,6.669 -3.744,6.859 -4.853,5.376 -5.331,4.737 -5.67,3.949 -5.895,3.177 -6.193,2.159 -6.317,1.089 -6.523,0 Z M 4.232,-1.998 H -6.494 c 0.098,-0.937 0.11,-1.834 0.302,-2.691 0.235,-1.047 0.498,-2.12 0.966,-3.076 1.387,-2.829 4.655,-3.211 6.729,-0.854 0.086,0.098 0.17,0.199 0.251,0.301 0.656,0.838 0.656,0.839 1.658,0.426 0.222,-0.092 0.441,-0.19 0.656,-0.283 -0.478,-2.113 -2.967,-4.412 -5.251,-4.682 -1.206,-0.143 -2.482,-0.178 -3.664,0.054 -2.538,0.498 -4.039,2.271 -4.918,4.603 -0.916,2.429 -0.991,4.958 -0.744,7.505 0.174,1.792 0.591,3.525 1.412,5.146 1.965,3.884 5.733,4.507 8.985,3.367 C 1.318,7.318 2.31,6.291 2.966,4.952 4.028,2.785 4.202,0.45 4.232,-1.998"
       style="fill:#0e121a;fill-opacity:1;fill-rule:nonzero;stroke:none"
       transform="matrix(1.3333333,0,0,-1.3333333,4859.6719,828.99013)"
       clip-path="url(#clipPath253)" />
    <path
       id="path254"
       d="m 0,0 h -9.538 c 0,0.466 -0.025,0.909 0.017,1.346 0.012,0.121 0.208,0.288 0.347,0.321 0.58,0.138 1.166,0.277 1.757,0.331 0.504,0.045 0.584,0.277 0.583,0.725 -0.012,7.392 -0.009,14.783 -0.009,22.175 v 1.888 c -0.793,0.128 -1.54,0.267 -2.293,0.362 -0.305,0.038 -0.425,0.142 -0.411,0.451 0.019,0.445 0.005,0.892 0.005,1.38 h 9.583 v -1.681 c -0.589,-0.12 -1.183,-0.27 -1.786,-0.356 -0.503,-0.072 -0.696,-0.25 -0.694,-0.814 0.025,-6.794 0.016,-13.588 0.016,-20.382 0,-0.971 0.037,-1.944 -0.014,-2.911 C -2.466,2.301 -2.259,2.111 -1.778,2.046 -1.316,1.984 -0.863,1.866 -0.404,1.785 -0.127,1.736 0.022,1.618 0.006,1.305 -0.017,0.883 0,0.459 0,0"
       style="fill:#0e121a;fill-opacity:1;fill-rule:nonzero;stroke:none"
       transform="matrix(1.3333333,0,0,-1.3333333,4715.3172,845.78613)"
       clip-path="url(#clipPath255)" />
    <path
       id="path256"
       d="M 0,0 V 1.389 C 2.097,1.735 4.101,2.494 6.327,2.561 V 1.78 c 0,-9.093 0.007,-18.186 -0.016,-27.279 -0.001,-0.595 0.172,-0.861 0.745,-0.886 0.056,-0.002 0.111,-0.018 0.165,-0.031 1.433,-0.335 1.482,-0.413 1.213,-1.99 h -8.555 c 0,0.464 -0.025,0.908 0.017,1.346 0.011,0.121 0.206,0.287 0.344,0.322 0.56,0.143 1.128,0.254 1.698,0.353 0.294,0.051 0.43,0.187 0.399,0.488 -0.01,0.092 -0.001,0.186 -0.001,0.28 0,8.215 -0.005,16.43 0.011,24.646 10e-4,0.528 -0.101,0.778 -0.683,0.78 C 1.127,-0.189 0.591,-0.073 0,0"
       style="fill:#0e121a;fill-opacity:1;fill-rule:nonzero;stroke:none"
       transform="matrix(1.3333333,0,0,-1.3333333,4799.8327,807.908)"
       clip-path="url(#clipPath257)" />
    <path
       id="path258"
       d="m 0,0 c -0.701,0.123 -1.341,0.249 -1.985,0.342 -0.315,0.046 -0.503,0.175 -0.442,0.502 0.063,0.34 -0.252,0.825 0.334,0.979 1.569,0.413 3.134,0.842 4.712,1.216 1.097,0.26 1.221,0.132 1.221,-0.969 0,-0.887 0,-1.773 0,-2.66 0.041,-0.012 0.083,-0.024 0.125,-0.035 0.206,0.318 0.394,0.651 0.621,0.954 C 5.01,0.895 5.418,1.481 5.903,1.992 6.632,2.76 7.584,2.94 8.59,2.746 10.103,2.454 10.856,0.603 10.002,-0.758 9.73,-1.191 9.324,-1.547 8.944,-1.901 8.853,-1.986 8.596,-1.981 8.463,-1.917 7.925,-1.659 7.417,-1.337 6.874,-1.093 6.691,-1.011 6.379,-1.004 6.223,-1.108 4.83,-2.037 3.916,-3.28 3.909,-5.023 c -0.014,-3.305 0.002,-6.609 -0.012,-9.913 -0.002,-0.442 0.075,-0.673 0.586,-0.714 0.778,-0.061 1.548,-0.217 2.359,-0.338 v -1.661 h -9.268 c 0,0.447 -0.027,0.891 0.017,1.327 0.012,0.122 0.212,0.286 0.355,0.323 0.504,0.131 1.017,0.24 1.534,0.311 0.418,0.058 0.532,0.251 0.529,0.664 C -0.008,-11.907 0,-8.789 0,-5.671 0,-3.807 0,-1.942 0,0"
       style="fill:#0e121a;fill-opacity:1;fill-rule:nonzero;stroke:none"
       transform="matrix(1.3333333,0,0,-1.3333333,4936.7041,764.75267)"
       clip-path="url(#clipPath259)" />
    <path
       id="path260"
       d="M 0,0 V 1.301 C 2.049,1.704 4.006,2.58 6.256,2.669 V -1.047 C 6.304,-1.056 6.352,-1.066 6.4,-1.075 6.64,-0.708 6.855,-0.32 7.127,0.022 7.59,0.603 8.045,1.202 8.585,1.708 9.288,2.366 10.19,2.495 11.106,2.297 12.509,1.994 13.263,0.181 12.513,-1.124 12.25,-1.582 11.833,-1.958 11.451,-2.336 11.366,-2.42 11.103,-2.406 10.968,-2.342 10.446,-2.094 9.955,-1.779 9.426,-1.549 9.227,-1.462 8.892,-1.446 8.728,-1.558 7.308,-2.53 6.331,-3.769 6.34,-5.604 c 0.015,-3.248 0.01,-6.495 -0.003,-9.743 -0.002,-0.449 0.043,-0.723 0.604,-0.749 0.667,-0.031 1.331,-0.169 1.99,-0.294 0.135,-0.026 0.334,-0.193 0.345,-0.309 0.04,-0.457 0.016,-0.92 0.016,-1.411 h -9.27 v 1.6 c 0.602,0.124 1.198,0.266 1.802,0.363 0.449,0.073 0.639,0.236 0.636,0.749 -0.024,4.778 -0.024,9.556 0,14.334 C 2.463,-0.52 2.261,-0.366 1.779,-0.311 1.19,-0.244 0.608,-0.11 0,0"
       style="fill:#0e121a;fill-opacity:1;fill-rule:nonzero;stroke:none"
       transform="matrix(1.3333333,0,0,-1.3333333,4815.5524,764.16587)"
       clip-path="url(#clipPath261)" />
    <path
       id="path262"
       d="m 0,0 h 3.979 v -0.615 c 0,-8.159 -0.003,-16.318 0.01,-24.477 0,-0.409 -0.101,-0.641 -0.49,-0.808 C 2.453,-26.347 1.425,-26.835 0.388,-27.304 0.274,-27.355 0.147,-27.38 0,-27.426 Z"
       style="fill:#0e121a;fill-opacity:1;fill-rule:nonzero;stroke:none"
       transform="matrix(1.3333333,0,0,-1.3333333,4647.4336,811.1688)"
       clip-path="url(#clipPath263)" />
    <path
       id="path264"
       d="m 0,0 h 3.866 v -27.456 c -1.262,0.58 -2.464,1.119 -3.647,1.7 -0.133,0.065 -0.209,0.367 -0.21,0.561 C -0.005,-22.824 0,-20.452 0,-18.08 c 0,5.789 0,11.578 0,17.367 z"
       style="fill:#0e121a;fill-opacity:1;fill-rule:nonzero;stroke:none"
       transform="matrix(1.3333333,0,0,-1.3333333,4604.6183,811.17013)"
       clip-path="url(#clipPath265)" />
    <path
       id="path266"
       d="M 0,0 C -0.731,0.955 -1.423,1.857 -2.161,2.822 1.912,5.99 5.971,9.147 10.047,12.318 14.114,9.152 18.15,6.011 22.245,2.824 21.527,1.879 20.831,0.965 20.096,-0.001 16.74,2.589 13.405,5.163 10.046,7.756 6.693,5.167 3.369,2.601 0,0"
       style="fill:#0e121a;fill-opacity:1;fill-rule:nonzero;stroke:none"
       transform="matrix(1.3333333,0,0,-1.3333333,4615.2717,772.36507)"
       clip-path="url(#clipPath267)" />
    <path
       id="path268"
       d="m 0,0 c -0.205,-0.012 -0.403,-0.033 -0.601,-0.033 -2.41,-0.003 -4.82,0.013 -7.229,-0.013 -0.529,-0.006 -0.72,0.129 -0.699,0.681 0.039,0.967 0.007,0.969 0.939,1.183 1.258,0.291 1.258,0.291 1.258,1.59 0,4.479 -0.007,8.959 0.011,13.438 0.002,0.464 -0.113,0.68 -0.592,0.726 -0.367,0.035 -0.722,0.204 -1.09,0.237 -0.504,0.045 -0.529,0.346 -0.519,0.736 0.01,0.399 -0.038,0.729 0.529,0.851 1.456,0.315 2.895,0.715 4.34,1.081 0.055,0.013 0.109,0.025 0.164,0.036 1.141,0.234 1.249,0.148 1.249,-0.987 0,-5.562 0.009,-11.124 -0.015,-16.685 C -2.257,2.319 -2.097,2.089 -1.606,2.047 -1.551,2.042 -1.495,2.032 -1.44,2.02 0.086,1.698 0.086,1.698 0,0"
       style="fill:#0e121a;fill-opacity:1;fill-rule:nonzero;stroke:none"
       transform="matrix(1.3333333,0,0,-1.3333333,4881.8536,845.78853)"
       clip-path="url(#clipPath269)" />
    <path
       id="path270"
       d="m 0,0 v 1.579 c 0.553,0.13 1.123,0.275 1.699,0.394 0.315,0.065 0.477,0.186 0.477,0.547 -0.011,4.797 -0.01,9.594 -0.001,14.391 0,0.335 -0.145,0.459 -0.443,0.518 -0.457,0.092 -0.904,0.237 -1.364,0.308 -0.343,0.052 -0.428,0.222 -0.401,0.53 0.018,0.203 -0.038,0.422 0.017,0.612 0.046,0.157 0.182,0.371 0.319,0.407 1.584,0.425 3.173,0.836 4.769,1.214 0.334,0.079 0.704,0.011 1.156,0.011 V 19.818 C 6.228,14.125 6.237,8.432 6.214,2.739 6.212,2.21 6.386,2.017 6.874,1.958 7.426,1.891 7.973,1.774 8.555,1.672 V 0 Z"
       style="fill:#0e121a;fill-opacity:1;fill-rule:nonzero;stroke:none"
       transform="matrix(1.3333333,0,0,-1.3333333,4836.202,788.2884)"
       clip-path="url(#clipPath271)" />
    <path
       id="path272"
       d="M 0,0 C 1.439,-0.012 2.561,-1.209 2.542,-2.709 2.522,-4.189 1.356,-5.396 -0.055,-5.394 -1.542,-5.393 -2.815,-4.149 -2.8,-2.711 -2.785,-1.253 -1.478,0.013 0,0"
       style="fill:#0e121a;fill-opacity:1;fill-rule:nonzero;stroke:none"
       transform="matrix(1.3333333,0,0,-1.3333333,4875.8008,804.53307)"
       clip-path="url(#clipPath273)" />
    <path
       id="path274"
       d="m 0,0 c 0.005,-1.467 -1.19,-2.677 -2.652,-2.683 -1.516,-0.006 -2.739,1.176 -2.746,2.654 -0.006,1.472 1.182,2.673 2.651,2.68 C -1.231,2.659 -0.005,1.475 0,0"
       style="fill:#0e121a;fill-opacity:1;fill-rule:nonzero;stroke:none"
       transform="matrix(1.3333333,0,0,-1.3333333,4844.9487,750.6992)"
       clip-path="url(#clipPath275)" />
  </g>
</svg>
