
<svg
   version="1.1"
   id="svg1"
   width="147.31738"
   height="182.48401"
   viewBox="0 0 147.31738 182.48401"
   xmlns="http://www.w3.org/2000/svg"
   xmlns:svg="http://www.w3.org/2000/svg">
  <defs
     id="defs1">
    <clipPath
       clipPathUnits="userSpaceOnUse"
       id="clipPath93">
      <path
         d="M 0,1920 H 1080 V 0 H 0 Z"
         transform="translate(-761.86569,-1124.5474)"
         id="path93" />
    </clipPath>
    <clipPath
       clipPathUnits="userSpaceOnUse"
       id="clipPath95">
      <path
         d="M 0,1920 H 1080 V 0 H 0 Z"
         transform="translate(-806.33702,-1118.2633)"
         id="path95" />
    </clipPath>
    <clipPath
       clipPathUnits="userSpaceOnUse"
       id="clipPath97">
      <path
         d="M 0,1920 H 1080 V 0 H 0 Z"
         transform="translate(-821.0701,-1055.0547)"
         id="path97" />
    </clipPath>
    <clipPath
       clipPathUnits="userSpaceOnUse"
       id="clipPath99">
      <path
         d="M 0,1920 H 1080 V 0 H 0 Z"
         transform="translate(-817.30135,-1109.6775)"
         id="path99" />
    </clipPath>
    <clipPath
       clipPathUnits="userSpaceOnUse"
       id="clipPath101">
      <path
         d="M 0,1920 H 1080 V 0 H 0 Z"
         transform="translate(-833.39522,-1099.1751)"
         id="path101" />
    </clipPath>
    <clipPath
       clipPathUnits="userSpaceOnUse"
       id="clipPath103">
      <path
         d="M 0,1920 H 1080 V 0 H 0 Z"
         transform="translate(-804.81242,-1089.057)"
         id="path103" />
    </clipPath>
    <clipPath
       clipPathUnits="userSpaceOnUse"
       id="clipPath105">
      <path
         d="M 0,1920 H 1080 V 0 H 0 Z"
         transform="translate(-809.51425,-1063.4542)"
         id="path105" />
    </clipPath>
    <clipPath
       clipPathUnits="userSpaceOnUse"
       id="clipPath107">
      <path
         d="M 0,1920 H 1080 V 0 H 0 Z"
         transform="translate(-806.3158,-1118.2845)"
         id="path107" />
    </clipPath>
  </defs>
  <g
     id="layer-MC0"
     transform="translate(-5391.1821,-1031.9048)">
    <path
       id="path92"
       d="m 0,0 c 0.216,-0.437 0.382,-0.783 0.556,-1.125 1.604,-3.155 2.912,-6.43 4,-9.796 1.857,-5.745 3.117,-11.621 3.941,-17.6 0.466,-3.383 0.747,-6.781 0.994,-10.184 0.182,-2.515 0.338,-5.033 0.545,-7.546 0.294,-3.551 0.825,-7.073 1.502,-10.568 1.426,-7.364 3.543,-14.517 6.641,-21.364 4.089,-9.038 9.599,-17.057 17.018,-23.699 4.071,-3.644 8.531,-6.721 13.485,-9.053 1.068,-0.503 2.169,-0.939 3.19,-1.378 0.735,0.302 1.367,0.558 1.996,0.821 0.274,0.114 0.543,0.239 0.812,0.364 5.551,2.565 10.489,6.036 14.94,10.206 7.491,7.017 12.943,15.432 16.887,24.861 3.188,7.622 5.234,15.556 6.473,23.716 0.709,4.671 1.067,9.371 1.358,14.08 0.118,1.895 0.23,3.793 0.428,5.681 0.397,3.777 0.955,7.531 1.721,11.254 1.459,7.09 3.552,13.966 6.832,20.448 0.144,0.285 0.269,0.58 0.387,0.837 C 102.769,1.085 85.615,17.861 85.029,18.214 84.55,17.992 84.047,17.742 83.53,17.524 82.3,17.007 81.083,16.448 79.826,16.007 75.86,14.617 71.743,13.889 67.59,13.353 63.553,12.833 59.492,12.601 55.427,12.496 50.408,12.366 45.395,12.515 40.388,12.933 36.836,13.23 33.31,13.686 29.82,14.411 26.352,15.132 22.972,16.123 19.797,17.731 19.43,17.917 19.05,18.076 18.616,18.275 12.423,12.195 6.239,6.125 0,0 m 51.409,-115.339 c -0.249,0.138 -0.486,0.307 -0.749,0.41 -6.657,2.618 -12.531,6.476 -17.816,11.262 -5.801,5.254 -10.486,11.384 -14.279,18.212 -3.49,6.284 -6.064,12.935 -7.971,19.857 -1.327,4.812 -2.288,9.698 -2.953,14.639 -0.351,2.615 -0.573,5.249 -0.788,7.879 -0.225,2.751 -0.316,5.512 -0.563,8.26 -0.759,8.448 -2.295,16.74 -5.099,24.772 -1.226,3.513 -2.837,6.85 -4.5,10.166 -0.038,0.076 -0.113,0.133 -0.17,0.199 v 0.356 c 0.523,0.468 1.067,0.916 1.568,1.407 6.418,6.293 12.831,12.591 19.241,18.892 0.159,0.157 0.266,0.367 0.397,0.552 h 0.535 c 0.317,-0.195 0.622,-0.414 0.953,-0.58 2.416,-1.211 4.878,-2.296 7.496,-3.021 4.305,-1.192 8.696,-1.886 13.132,-2.243 3.577,-0.287 7.17,-0.458 10.758,-0.506 3.172,-0.042 6.349,0.127 9.521,0.257 3.768,0.154 7.502,0.628 11.222,1.255 4.78,0.805 9.32,2.296 13.602,4.567 0.121,0.064 0.215,0.179 0.322,0.271 h 0.356 c 0.245,-0.258 0.483,-0.523 0.736,-0.772 4.239,-4.158 8.481,-8.311 12.719,-12.47 2.394,-2.35 4.778,-4.71 7.175,-7.056 0.221,-0.216 0.502,-0.37 0.755,-0.553 V 0.317 c -0.09,-0.109 -0.203,-0.206 -0.268,-0.328 -3.48,-6.542 -5.886,-13.466 -7.429,-20.705 -0.717,-3.369 -1.299,-6.759 -1.702,-10.176 -0.278,-2.356 -0.432,-4.726 -0.618,-7.092 -0.249,-3.166 -0.393,-6.341 -0.726,-9.497 -0.837,-7.927 -2.402,-15.709 -4.933,-23.281 -2.565,-7.673 -6.025,-14.903 -10.687,-21.536 -4.921,-7.001 -10.885,-12.932 -18.073,-17.606 -2.995,-1.947 -6.137,-3.61 -9.47,-4.907 -0.344,-0.133 -0.655,-0.35 -0.982,-0.528 z"
       style="fill:#0e121a;fill-opacity:1;fill-rule:nonzero;stroke:none"
       transform="matrix(1.3333333,0,0,-1.3333333,5395.8209,1060.6035)"
       clip-path="url(#clipPath93)" />
    <path
       id="path94"
       d="m 0,0 c 0.139,0.321 0.247,0.66 0.421,0.96 2.696,4.642 5.401,9.28 8.105,13.919 0.149,0.254 0.31,0.5 0.443,0.715 0.105,0.038 0.159,0.073 0.215,0.075 1.63,0.059 3.26,0.11 4.89,0.17 2.933,0.108 5.855,0.352 8.771,0.695 3.359,0.395 6.685,0.959 9.962,1.795 2.359,0.602 4.674,1.335 6.881,2.38 0.105,0.049 0.217,0.084 0.384,0.149 4.968,-4.879 9.939,-9.76 14.936,-14.668 -5.541,-9.546 -11.058,-19.053 -16.631,-28.655 -0.222,0.645 -0.4,1.177 -0.588,1.705 -1.393,3.901 -3.452,7.41 -6.2,10.512 C 27.003,-5.07 21.341,-1.695 14.617,-0.078 11.416,0.692 8.17,0.903 4.901,0.683 3.517,0.59 2.148,0.289 0.771,0.089 0.509,0.051 0.243,0.043 -0.021,0.021 Z"
       style="fill:#0e121a;fill-opacity:1;fill-rule:nonzero;stroke:none"
       transform="matrix(1.3333333,0,0,-1.3333333,5455.116,1068.9823)"
       clip-path="url(#clipPath95)" />
    <path
       id="path96"
       d="m 0,0 c -6.371,-10.979 -12.635,-21.774 -18.95,-32.656 -1.154,0.984 -2.284,1.895 -3.354,2.871 -5.468,4.99 -9.887,10.794 -13.409,17.297 -3.582,6.615 -6.108,13.623 -7.874,20.919 -0.313,1.294 -0.587,2.598 -0.885,3.924 1.938,3.329 3.874,6.655 5.888,10.114 C -35.975,14.224 -31.11,7.897 -23.768,3.594 -16.414,-0.716 -8.497,-1.771 0,0"
       style="fill:#0e121a;fill-opacity:1;fill-rule:nonzero;stroke:none"
       transform="matrix(1.3333333,0,0,-1.3333333,5474.7601,1153.2604)"
       clip-path="url(#clipPath97)" />
    <path
       id="path98"
       d="m 0,0 c -0.152,-0.757 -0.148,-31.106 0.017,-31.867 1.372,0.575 2.528,1.409 3.447,2.465 V -0.775 C 2.414,-0.312 0.833,0.037 0,0 m -4.721,5.703 c 0.743,0 1.537,0.036 2.327,-0.007 C -0.228,5.578 1.913,5.267 4.001,4.662 4.511,4.515 5.015,4.323 5.496,4.096 7.243,3.271 8.118,1.848 8.255,-0.052 8.285,-0.466 8.273,-0.883 8.273,-1.299 8.274,-10.443 8.227,-19.587 8.3,-28.73 c 0.024,-2.964 -1.136,-5.14 -3.555,-6.734 -0.173,-0.113 -0.336,-0.241 -0.501,-0.364 -0.022,-0.017 -0.032,-0.05 -0.092,-0.146 1.884,-4.098 3.787,-8.238 5.718,-12.439 -1.421,-0.775 -2.841,-1.404 -4.433,-1.892 -1.804,4.137 -3.588,8.228 -5.372,12.319 -0.051,-0.013 -0.102,-0.024 -0.154,-0.036 v -13.515 c -1.578,-0.329 -3.109,-0.292 -4.6,-0.273 -0.062,0.066 -0.083,0.086 -0.101,0.109 -0.019,0.022 -0.049,0.047 -0.049,0.071 -0.012,5.788 -0.031,11.577 -0.03,17.365 0.002,13.24 0.015,26.48 0.026,39.72 0,0.051 0.049,0.103 0.122,0.248"
       style="fill:#0e121a;fill-opacity:1;fill-rule:nonzero;stroke:none"
       transform="matrix(1.3333333,0,0,-1.3333333,5469.7351,1080.43)"
       clip-path="url(#clipPath99)" />
    <path
       id="path100"
       d="m 0,0 c -0.041,-0.026 -0.082,-0.053 -0.124,-0.079 v -21.283 c 0.366,0.263 0.664,0.441 0.92,0.668 1.265,1.118 2.011,2.552 2.423,4.163 0.473,1.852 0.566,3.728 0.422,5.641 C 3.366,-7.245 2.31,-3.864 0.475,-0.715 0.331,-0.468 0.159,-0.238 0,0 m -4.854,11.986 c 1.272,-0.715 2.361,-1.531 3.402,-2.404 5.012,-4.202 8.274,-9.487 9.76,-15.86 0.646,-2.769 0.88,-5.589 0.568,-8.403 -0.641,-5.794 -3.493,-10.182 -8.657,-12.997 -0.102,-0.056 -0.202,-0.118 -0.364,-0.213 v -5.641 c -1.455,-1.354 -2.959,-2.533 -4.643,-3.519 -0.167,0.71 -0.227,47.382 -0.066,49.037"
       style="fill:#0e121a;fill-opacity:1;fill-rule:nonzero;stroke:none"
       transform="matrix(1.3333333,0,0,-1.3333333,5491.1936,1094.4333)"
       clip-path="url(#clipPath101)" />
    <path
       id="path102"
       d="M 0,0 V 9.597 C -2.563,8.546 -6.109,2.78 -5.911,0 Z m 4.711,17.619 v -40.076 c -1.639,0.27 -3.114,0.833 -4.657,1.542 -0.006,5.315 0.002,10.646 -0.004,15.959 -0.725,0.176 -5.043,0.203 -6.055,0.04 0.032,-0.276 0.037,-0.566 0.102,-0.841 0.463,-1.958 1.264,-3.769 2.458,-5.389 0.321,-0.435 0.456,-0.863 0.449,-1.394 -0.021,-1.841 -0.008,-3.682 -0.008,-5.524 v -0.895 c -0.242,0.106 -0.409,0.142 -0.531,0.237 -4.175,3.247 -6.842,7.428 -7.809,12.656 -1.936,10.469 4.597,20.635 14.939,23.425 0.34,0.091 0.687,0.16 1.116,0.26"
       style="fill:#0e121a;fill-opacity:1;fill-rule:nonzero;stroke:none"
       transform="matrix(1.3333333,0,0,-1.3333333,5453.0832,1107.9241)"
       clip-path="url(#clipPath103)" />
    <path
       id="path104"
       d="m 0,0 v -5.189 c -10.689,1 -24.259,10.944 -24.663,27.722 -0.39,16.181 12.161,27.566 24.588,29.03 C 0.083,50.939 0.119,47.452 -0.029,46.3 -6.5,45.009 -11.698,41.686 -15.424,36.188 -18.294,31.952 -19.597,27.23 -19.377,22.124 -18.927,11.701 -11.367,2.164 0,0"
       style="fill:#0e121a;fill-opacity:1;fill-rule:nonzero;stroke:none"
       transform="matrix(1.3333333,0,0,-1.3333333,5459.3523,1142.0611)"
       clip-path="url(#clipPath105)" />
    <path
       id="path106"
       d="m 0,0 c -0.01,-0.025 -0.02,-0.051 -0.03,-0.076 l 0.051,0.055 z"
       style="fill:#0e121a;fill-opacity:1;fill-rule:nonzero;stroke:none"
       transform="matrix(1.3333333,0,0,-1.3333333,5455.0877,1068.954)"
       clip-path="url(#clipPath107)" />
  </g>
</svg>
