<svg width="148" height="204" viewBox="0 0 148 204" fill="none" xmlns="http://www.w3.org/2000/svg">
  <path d="M56.1169 0.524034C51.813 1.26895 46.7641 4.0003 46.0192 5.90397C45.6881 6.89719 46.5158 7.1455 50.9025 7.1455C53.7994 7.1455 56.448 7.47657 56.6963 7.97318C56.9446 8.38702 56.9446 8.80086 56.5308 8.80086C53.9649 8.9664 39.646 11.2839 38.9011 11.6978C37.3285 12.691 38.0734 15.8362 40.5565 18.4847C42.9568 21.1333 43.2878 21.2161 49.4127 21.2161C59.3449 21.2161 59.4276 22.5404 49.5782 23.2853C36.5008 24.1958 30.2932 27.0926 31.9486 31.4794C32.528 32.8864 35.4248 32.8864 49.2471 31.1483C52.4751 30.7345 57.9378 30.6517 61.4141 30.9C67.0423 31.3138 67.9528 31.1483 70.022 29.5757C72.4223 27.672 76.5607 27.4237 83.7615 28.5825C91.0451 29.7412 91.5417 26.1822 84.5064 22.7887C82.1062 21.6299 79.8714 20.2229 79.5403 19.809C78.5471 18.1537 75.6502 17.2432 69.9392 16.6638C63.1522 16.0017 61.2485 15.5879 61.2485 14.6774C61.2485 11.9461 77.3056 10.9528 83.5132 13.2703C89.8036 15.5879 91.79 14.6774 88.9759 10.7045C87.4033 8.46979 79.5403 3.25539 75.4847 1.84833C71.2635 0.358498 61.0002 -0.386417 56.1169 0.524034Z" fill="black"/>
  <path d="M89.5553 35.866C89.1414 36.6937 88.1482 39.3423 87.4033 41.7426C86.3273 44.8878 84.0925 48.1985 78.8781 54.1578C74.988 58.5445 70.353 64.0072 68.6976 66.3247C66.9595 68.5595 64.2282 71.7874 62.5728 73.2773C60.8347 75.0154 59.5931 77.0018 59.5931 78.0778C59.5931 79.816 59.9242 79.9815 63.9799 79.9815C69.0287 79.9815 76.2296 77.0018 78.1332 74.0222C78.7954 72.9462 79.9541 70.3804 80.699 68.3939C82.52 63.0968 85.1685 57.5513 86.9894 55.2338C88.9759 52.7507 92.7004 41.0804 92.7004 37.2731C92.7004 34.2107 90.8795 33.383 89.5553 35.866Z" fill="black"/>
  <path d="M34.7627 38.3491C34.7627 40.6666 36.9147 42.322 42.2118 43.9773C44.6949 44.7222 47.509 45.881 48.5022 46.4604C51.2336 48.1985 58.7655 50.1849 62.4073 50.1849C64.311 50.1849 67.2079 49.44 68.8632 48.5296C70.5186 47.7019 74.8225 45.7982 78.4643 44.3912C85.0858 41.8253 86.9067 40.2527 84.9203 38.6801C84.3409 38.1835 76.9745 37.8525 65.6353 37.8525C55.5375 37.9352 44.4466 37.6869 41.0531 37.3559C35.1765 36.7765 34.7627 36.8592 34.7627 38.3491Z" fill="black"/>
  <path d="M36.9974 47.4536C34.7627 49.6883 38.0734 61.1931 41.9635 64.9177C43.2878 66.1592 45.5225 69.8838 46.8468 73.2773C48.1711 76.6708 51.7302 84.5338 54.7098 90.7414C58.931 99.4321 61.4968 103.488 65.8835 108.454C71.0979 114.413 75.3191 117.724 76.3951 116.731C77.14 115.986 76.064 113.751 73.2499 110.192C67.7044 103.074 59.7587 87.4307 58.3516 80.8092C58.0206 79.2366 56.8618 76.8363 55.7858 75.5948C54.3787 73.9394 53.7994 72.2013 53.7994 69.8838C53.7994 66.8214 53.1372 65.8281 46.8468 58.8756C42.9567 54.7372 39.5632 50.2677 39.3149 49.1089C38.7355 46.8742 37.9906 46.3776 36.9974 47.4536Z" fill="black"/>
  <path d="M92.0383 57.3858C91.6245 58.2135 90.7968 60.3654 90.2174 62.1863C89.638 64.0072 88.4793 66.4075 87.7343 67.5663C86.9067 68.725 85.003 72.4496 83.4304 75.8431C81.8578 79.3194 79.3748 83.2095 77.8849 84.5338C76.3951 85.9408 74.2431 87.8445 73.0844 88.9205C71.1807 90.6586 71.0152 91.238 71.5118 95.542C72.2567 101.667 73.581 105.64 74.8225 105.64C75.9813 105.64 82.1889 99.3493 83.5132 96.7835C85.0858 93.6383 87.5688 84.8648 88.4793 79.2366C88.9759 76.3397 89.8863 73.3601 90.4657 72.6151C94.1903 68.4767 96.2595 58.7928 93.942 56.8064C93.0315 56.0615 92.6177 56.227 92.0383 57.3858Z" fill="black"/>
  <path d="M37.6596 70.2976C37.0802 72.4496 38.57 80.892 41.798 94.0521C42.874 98.3561 43.95 104.729 44.281 108.123C44.7777 113.751 46.6813 119.545 50.737 127.987C51.3163 129.063 53.7994 132.208 56.3652 135.022C58.8483 137.754 61.7451 141.147 62.7384 142.554C63.6488 143.961 65.9663 146.113 67.7045 147.355C70.9324 149.59 76.9745 151.162 76.9745 149.838C76.9745 149.424 75.1536 147.52 72.9189 145.617C68.7805 142.058 63.7316 133.533 63.7316 130.139C63.7316 127.656 60.2553 120.704 57.1929 116.896C52.3923 110.937 49.1644 101.998 42.7912 76.6708C41.3842 71.2081 40.3909 68.725 39.4805 68.5595C38.6528 68.394 37.9079 69.0561 37.6596 70.2976Z" fill="black"/>
  <path d="M28.1412 80.3953C26.7342 81.8852 26.1548 83.7061 25.9065 87.679C25.3271 94.0521 27.0652 100.177 31.1209 107.047C32.6935 109.53 35.1765 114.744 36.7491 118.634C40.722 128.318 46.2675 136.678 47.6745 135.188C48.2539 134.609 43.2878 120.207 41.7152 117.641C39.646 114.413 36.3353 100.177 35.9214 92.8106C35.3421 83.5405 34.4316 80.4781 31.9486 79.3194C30.2932 78.5744 29.7138 78.74 28.1412 80.3953Z" fill="black"/>
  <path d="M94.5213 81.3886C92.7832 82.0507 91.3761 85.8581 89.4725 95.2937C88.4792 100.26 86.8239 107.957 85.9134 112.261C83.6787 122.773 83.6787 123.435 85.6651 123.435C86.9894 123.435 87.7343 122.276 89.2242 117.476C90.7967 112.509 91.6244 111.185 93.9419 109.778C95.5145 108.785 97.0044 107.212 97.1699 106.219C97.3354 105.226 98.0804 101.584 98.8253 98.1906C100.398 90.9069 100.481 88.5894 99.2391 85.0304C98.2459 82.299 96.3422 80.8092 94.5213 81.3886Z" fill="black"/>
  <path d="M12.4152 89.9137C11.5047 90.8242 10.5943 92.4796 10.2632 93.7211C9.0217 98.7699 12.0014 111.516 16.4708 120.29C17.3813 122.193 18.209 124.511 18.209 125.421C18.209 128.07 23.8372 138.085 26.9824 141.065C30.2104 144.127 31.9485 144.127 31.7002 141.147C31.5347 139.161 27.9756 128.153 24.4166 118.469C23.3406 115.489 22.1819 109.695 21.6852 104.233C20.692 94.6315 19.3677 90.5759 16.6364 89.0861C14.4844 88.0101 14.3189 88.0101 12.4152 89.9137Z" fill="black"/>
  <path d="M105.943 93.39C105.033 95.3764 104.288 97.4456 104.288 98.1078C104.288 101.584 89.638 124.511 83.2649 131.298C78.2988 136.512 76.6434 139.161 77.3056 140.899C78.0505 142.803 83.2649 139.326 90.4657 132.374C98.8253 124.18 105.033 116.068 107.433 110.192C110.413 102.908 110.992 89.9137 108.344 89.9137C107.93 89.9137 106.771 91.4863 105.943 93.39Z" fill="black"/>
  <path d="M120.014 98.3561C119.517 98.9355 117.2 102.743 114.8 106.798C112.399 110.854 108.509 116.317 106.192 118.8C103.129 122.028 101.805 124.097 101.805 125.67C101.805 127.573 102.219 127.987 103.709 127.987C106.854 127.987 113.641 124.014 115.876 120.952C117.034 119.296 119.269 117.31 120.924 116.4C123.325 115.158 124.152 114.082 124.897 111.102C126.056 106.55 126.056 104.481 124.897 100.425C124.07 97.1973 121.835 96.2869 120.014 98.3561Z" fill="black"/>
  <path d="M75.5674 118.552C74.988 120.124 78.3815 123.849 80.4507 123.849C82.2717 123.849 82.4372 121.531 80.6163 119.048C79.1265 116.979 76.3123 116.648 75.5674 118.552Z" fill="black"/>
  <path d="M1.48983 138.83C0.662146 139.244 0 140.485 0 141.561C0 144.044 2.06921 145.865 6.29039 146.941C8.19406 147.438 11.3393 149.341 13.3257 151.079C17.9607 155.135 19.8644 160.681 20.4438 171.854C20.8576 179.469 20.7748 180.131 18.6229 184.104C17.0503 187.084 16.4709 188.905 16.8847 190.394C17.6296 193.54 19.285 193.043 23.0096 188.574C28.6378 181.787 28.8861 180.876 29.1344 166.309C29.3 153.811 29.2172 153.066 27.3963 150.086C22.2647 141.809 7.36638 135.354 1.48983 138.83Z" fill="black"/>
  <path d="M108.426 142.058C105.116 145.368 107.102 148.845 112.979 149.921C117.448 150.666 120.842 152.9 125.394 157.949C128.539 161.508 129.119 162.584 129.119 165.564C129.036 167.385 128.374 170.447 127.463 172.268C126.553 174.089 125.891 176.241 125.808 176.986C125.725 181.207 129.036 182.449 130.691 178.807C131.188 177.565 133.009 174.999 134.664 172.93C137.064 169.951 137.726 168.378 138.058 164.819C138.223 162.419 137.975 159.108 137.395 157.453C136.154 153.645 127.463 145.12 122.166 142.472C116.869 139.823 110.827 139.657 108.426 142.058Z" fill="black"/>
  <path d="M5.2144 150.5C2.31751 154.307 2.15197 156.625 2.97966 179.138C3.3935 191.305 3.72457 194.45 4.71779 194.781C8.19406 196.105 9.43558 190.725 10.7599 167.881C11.3393 157.287 11.3393 152.321 10.7599 151.162C9.76665 149.341 6.45592 148.927 5.2144 150.5Z" fill="black"/>
  <path d="M114.22 157.37C110.909 160.763 110.909 161.094 112.151 185.097C112.813 198.837 113.972 203.637 116.455 203.141C118.028 202.892 119.021 198.754 119.104 191.884C119.186 189.981 119.435 188.408 119.683 188.408C121.256 188.408 129.532 193.043 132.512 195.692C138.471 200.906 142.527 203.306 145.424 203.306C151.714 203.306 146.5 197.181 129.615 184.601C126.387 182.2 125.063 181.704 123.159 182.118L120.759 182.614L121.338 171.192C121.835 161.425 121.669 159.356 120.511 157.122C119.766 155.632 118.69 154.473 118.11 154.473C117.531 154.473 115.71 155.797 114.22 157.37Z" fill="black"/>
  <path d="M54.7926 157.122C54.3787 158.198 54.296 167.55 54.5443 177.979C54.9581 195.112 55.2064 197.016 56.5307 197.844C57.7722 198.588 58.3516 198.423 59.6759 196.768C60.5864 195.692 61.083 194.202 60.8347 193.457C60.5864 192.712 60.0897 189.815 59.8414 187.001L59.3448 181.869L64.3937 178.724C67.1251 176.986 71.0152 174.668 72.9188 173.51C74.8225 172.351 77.0572 170.282 77.8849 168.957C81.0301 163.909 79.0437 158.86 74.2431 159.77C71.3462 160.35 64.7248 164.405 62.4073 166.971C60.8347 168.709 60.8347 168.709 59.5931 162.253C58.6827 157.287 58.0205 155.632 56.9446 155.466C56.0341 155.301 55.2064 155.88 54.7926 157.122Z" fill="black"/>
  <path d="M39.7288 166.392C38.9011 168.378 35.9215 173.675 33.1901 178.062C25.9893 189.484 23.9201 193.622 24.8305 194.533C25.9893 195.692 28.5551 193.126 31.5347 187.829C34.8455 182.035 40.4737 174.999 41.3014 175.579C41.8808 175.91 43.3706 182.78 43.1223 184.27C43.1223 184.518 41.7152 184.849 40.0599 185.097C33.6867 185.925 34.5144 190.891 40.9703 190.891C44.2811 190.891 44.5294 191.057 45.7709 194.202C46.7641 196.768 47.509 197.512 48.9988 197.512C50.0748 197.512 51.3991 197.099 51.9785 196.519C53.4683 195.029 53.1373 189.236 51.2336 183.773C50.3231 181.124 48.8333 175.744 47.9229 171.937C46.102 164.24 45.2743 162.75 42.874 162.75C41.798 162.75 40.8048 163.909 39.7288 166.392Z" fill="black"/>
  <path d="M95.4318 164.571C93.6109 166.557 89.3897 174.503 89.3897 175.91C89.3897 176.738 86.4101 183.607 82.6855 191.222C81.8578 193.043 81.1129 195.774 81.1129 197.264C81.1129 199.499 81.444 199.996 82.851 199.996C84.0926 199.996 84.9203 198.92 86.1618 196.023C89.0587 189.153 94.5214 178.476 95.1835 178.476C95.5146 178.476 96.0112 179.469 96.3423 180.711C96.5906 182.035 97.0044 183.856 97.3355 184.766C97.7493 186.173 97.3355 186.753 95.2663 187.415C92.4522 188.408 90.5485 191.636 91.3762 193.788C91.79 194.864 92.7005 195.112 95.1835 194.864C97.4183 194.698 98.4943 194.864 98.4943 195.609C98.4943 197.347 102.053 199.168 105.695 199.168C108.758 199.168 109.254 198.92 109.751 197.099C110.413 194.533 109.751 191.884 106.688 184.932C105.364 181.952 103.709 176.738 103.047 173.427C100.895 163.246 98.8253 160.846 95.4318 164.571Z" fill="black"/>
  <path d="M63.0694 182.78C61.2485 184.601 62.0762 187.415 65.4697 191.057C67.2906 192.96 69.4426 195.609 70.1875 196.85C71.7601 199.582 74.4087 199.83 76.3951 197.512C79.5403 193.788 77.3883 188.242 71.3463 184.352C67.0423 181.621 64.7248 181.124 63.0694 182.78Z" fill="black"/>
  <path d="M10.0977 194.367C9.02175 195.443 8.77345 198.506 9.60113 199.416C9.9322 199.664 11.2565 199.333 12.5808 198.671C14.3189 197.761 14.8983 196.933 14.7328 195.609C14.4845 193.54 11.6703 192.795 10.0977 194.367Z" fill="black"/>
  </svg>
  