<?xml version="1.0" encoding="UTF-8" standalone="no"?>
<!-- Created with Inkscape (http://www.inkscape.org/) -->

<svg
   version="1.1"
   id="svg1"
   width="417.77637"
   height="52.262451"
   viewBox="0 0 417.77637 52.262451"
   xmlns="http://www.w3.org/2000/svg"
   xmlns:svg="http://www.w3.org/2000/svg">
  <defs
     id="defs1">
    <clipPath
       clipPathUnits="userSpaceOnUse"
       id="clipPath171">
      <path
         d="M 0,1920 H 1080 V 0 H 0 Z"
         transform="translate(-147.57383,-858.1132)"
         id="path171" />
    </clipPath>
    <clipPath
       clipPathUnits="userSpaceOnUse"
       id="clipPath173">
      <path
         d="M 0,1920 H 1080 V 0 H 0 Z"
         transform="translate(-324.92918,-832.65542)"
         id="path173" />
    </clipPath>
    <clipPath
       clipPathUnits="userSpaceOnUse"
       id="clipPath175">
      <path
         d="M 0,1920 H 1080 V 0 H 0 Z"
         transform="translate(-229.95548,-841.65805)"
         id="path175" />
    </clipPath>
    <clipPath
       clipPathUnits="userSpaceOnUse"
       id="clipPath177">
      <path
         d="M 0,1920 H 1080 V 0 H 0 Z"
         transform="translate(-379.31401,-859.9612)"
         id="path177" />
    </clipPath>
    <clipPath
       clipPathUnits="userSpaceOnUse"
       id="clipPath179">
      <path
         d="M 0,1920 H 1080 V 0 H 0 Z"
         transform="translate(-264.43531,-850.53542)"
         id="path179" />
    </clipPath>
    <clipPath
       clipPathUnits="userSpaceOnUse"
       id="clipPath181">
      <path
         d="M 0,1920 H 1080 V 0 H 0 Z"
         transform="translate(-423.89604,-867.7711)"
         id="path181" />
    </clipPath>
    <clipPath
       clipPathUnits="userSpaceOnUse"
       id="clipPath183">
      <path
         d="M 0,1920 H 1080 V 0 H 0 Z"
         transform="translate(-292.87988,-853.09735)"
         id="path183" />
    </clipPath>
    <clipPath
       clipPathUnits="userSpaceOnUse"
       id="clipPath185">
      <path
         d="M 0,1920 H 1080 V 0 H 0 Z"
         transform="translate(-400.15471,-850.35662)"
         id="path185" />
    </clipPath>
    <clipPath
       clipPathUnits="userSpaceOnUse"
       id="clipPath187">
      <path
         d="M 0,1920 H 1080 V 0 H 0 Z"
         transform="translate(-213.64411,-841.58912)"
         id="path187" />
    </clipPath>
    <clipPath
       clipPathUnits="userSpaceOnUse"
       id="clipPath189">
      <path
         d="M 0,1920 H 1080 V 0 H 0 Z"
         transform="translate(-194.9649,-841.6663)"
         id="path189" />
    </clipPath>
    <clipPath
       clipPathUnits="userSpaceOnUse"
       id="clipPath191">
      <path
         d="M 0,1920 H 1080 V 0 H 0 Z"
         transform="translate(-322.11923,-867.7003)"
         id="path191" />
    </clipPath>
    <clipPath
       clipPathUnits="userSpaceOnUse"
       id="clipPath193">
      <path
         d="M 0,1920 H 1080 V 0 H 0 Z"
         transform="translate(-381.47821,-867.77005)"
         id="path193" />
    </clipPath>
    <clipPath
       clipPathUnits="userSpaceOnUse"
       id="clipPath195">
      <path
         d="M 0,1920 H 1080 V 0 H 0 Z"
         transform="translate(-307.46341,-859.6777)"
         id="path195" />
    </clipPath>
    <clipPath
       clipPathUnits="userSpaceOnUse"
       id="clipPath197">
      <path
         d="M 0,1920 H 1080 V 0 H 0 Z"
         transform="translate(-414.68011,-841.72562)"
         id="path197" />
    </clipPath>
    <clipPath
       clipPathUnits="userSpaceOnUse"
       id="clipPath199">
      <path
         d="M 0,1920 H 1080 V 0 H 0 Z"
         transform="translate(-216.14738,-859.76732)"
         id="path199" />
    </clipPath>
    <clipPath
       clipPathUnits="userSpaceOnUse"
       id="clipPath201">
      <path
         d="M 0,1920 H 1080 V 0 H 0 Z"
         transform="translate(-353.47418,-855.8683)"
         id="path201" />
    </clipPath>
    <clipPath
       clipPathUnits="userSpaceOnUse"
       id="clipPath203">
      <path
         d="M 0,1920 H 1080 V 0 H 0 Z"
         id="path203" />
    </clipPath>
  </defs>
  <g
     id="layer-MC0"
     transform="translate(-4553.9492,-1397.5304)">
    <path
       id="path170"
       d="m 0,0 c -0.159,-0.152 -0.319,-0.305 -0.478,-0.457 -2.991,5.294 -7.669,4.382 -11.893,4.036 1.751,-1.97 3.675,-3.863 5.266,-6.003 1.388,-1.87 0.67,-3.088 -1.647,-3.177 -1.709,-0.066 -3.423,-0.013 -5.178,-0.013 v -6.485 c 4.707,0.721 9.566,-1.449 13.972,2.663 v -7.015 h 8.012 v 6.711 c 4.453,-3.745 9.28,-1.735 13.828,-2.245 v 6.404 c -2.091,0 -3.988,-0.05 -5.882,0.014 -1.715,0.059 -2.1,1.133 -1.452,2.499 0.436,0.918 1.131,1.761 1.866,2.479 1.385,1.353 2.882,2.591 4.728,4.228 C 16.053,3.795 11.346,4.845 7.923,0.124 V 9.771 H 0.301 C 0.146,9.439 0.01,9.283 0.009,9.126 -0.003,6.084 0,3.042 0,0 m 6.412,13.739 c 2.704,-0.875 5.565,-1.436 8.082,-2.686 6.284,-3.122 10.213,-8.064 10.228,-15.387 0.016,-7.34 -3.981,-12.223 -10.193,-15.438 -9.721,-5.032 -22.254,-2.483 -28.213,5.882 -1.609,2.258 -2.31,5.162 -3.428,7.769 v 3.659 c 1.696,7.561 6.322,12.476 13.598,14.947 1.532,0.52 3.13,0.841 4.698,1.254 z"
       style="fill:#0e121a;fill-opacity:1;fill-rule:nonzero;stroke:none"
       transform="matrix(1.3333333,0,0,-1.3333333,4576.7651,1415.8491)"
       clip-path="url(#clipPath171)" />
    <path
       id="path172"
       d="m 0,0 c 3.699,5.253 4.686,10.578 1.373,16.571 -1.738,3.143 -2.546,6.8 -3.911,10.607 2.361,0 4.491,0.118 6.592,-0.079 0.554,-0.052 1.275,-1 1.475,-1.669 0.891,-2.987 1.62,-6.023 2.63,-9.891 1.321,3.115 2.562,5.475 3.322,7.981 0.902,2.972 2.562,4.274 5.649,3.683 0.588,-0.113 1.206,-0.066 2.174,-0.109 C 14.903,17.944 10.588,8.972 6.273,0 Z"
       style="fill:#0e121a;fill-opacity:1;fill-rule:nonzero;stroke:none"
       transform="matrix(1.3333333,0,0,-1.3333333,4813.2389,1449.7928)"
       clip-path="url(#clipPath173)" />
    <path
       id="path174"
       d="m 0,0 h -7.034 c 0.411,6.03 0.815,11.947 1.216,17.821 4.904,0.929 6.343,0.612 7.091,-1.491 5.27,3.312 8.607,3.197 12.189,-0.573 2.144,2.2 4.761,3.278 7.89,2.914 3.021,-0.35 5.222,-2.487 5.162,-5.51 C 26.429,8.839 26.072,4.523 25.823,0.074 h -6.854 c 0.24,3.372 0.523,6.637 0.687,9.909 0.094,1.869 0.501,4.057 -2.21,4.533 -2.05,0.36 -3.368,-1.112 -3.64,-4.04 -0.32,-3.445 -0.54,-6.9 -0.807,-10.405 H 6.176 C 6.413,3.494 6.748,6.764 6.813,10.04 6.838,11.342 6.533,12.825 5.854,13.892 5.513,14.429 3.668,14.671 3.088,14.247 2.092,13.519 1.082,12.231 0.915,11.059 0.401,7.468 0.285,3.819 0,0"
       style="fill:#0e121a;fill-opacity:1;fill-rule:nonzero;stroke:none"
       transform="matrix(1.3333333,0,0,-1.3333333,4686.6073,1437.7893)"
       clip-path="url(#clipPath175)" />
    <path
       id="path176"
       d="m 0,0 h -6.996 c 0.131,0.224 0.262,0.449 0.393,0.673 -1.532,0.964 -2.985,2.538 -4.616,2.751 -2.597,0.34 -4.583,-1.549 -5.098,-3.974 -0.636,-2.999 -0.82,-6.153 -0.732,-9.226 0.058,-1.996 1.446,-3.568 3.622,-3.899 2.262,-0.345 4.02,0.428 5.292,2.483 0.427,0.69 1.483,1.262 2.32,1.373 1.617,0.214 3.283,0.062 5.228,0.062 -0.037,-2.807 -1.263,-4.761 -3.233,-6.294 -3.723,-2.897 -11.807,-3.42 -15.917,-1.057 -2.392,1.376 -3.876,3.471 -4.439,6.153 -2.369,11.281 3.703,20.11 14.369,19.632 4.974,-0.223 8.289,-2.39 9.389,-6.064 C -0.182,1.825 -0.15,0.977 0,0"
       style="fill:#0e121a;fill-opacity:1;fill-rule:nonzero;stroke:none"
       transform="matrix(1.3333333,0,0,-1.3333333,4885.752,1413.3851)"
       clip-path="url(#clipPath177)" />
    <path
       id="path178"
       d="m 0,0 c 0.109,-0.906 0.159,-1.338 0.214,-1.769 0.231,-1.816 0.673,-3.569 2.89,-3.741 2.337,-0.18 3.589,1.378 3.961,3.385 0.326,1.757 0.437,3.701 0.004,5.398 C 6.793,4.355 5.422,5.768 4.411,5.882 3.349,6.003 1.72,5.018 1.085,4.035 0.291,2.805 0.259,1.083 0,0 m 0.129,-7.3 c -1.429,-3.345 -4.453,-0.848 -7.169,-1.933 0.622,9.12 1.21,17.724 1.807,26.472 H 1.415 C 1.213,13.907 1.018,10.688 0.819,7.413 2.654,8.273 4.187,9.396 5.868,9.701 10.212,10.49 13.273,7.897 14.139,3.09 15.37,-3.75 11.02,-9.57 4.917,-9.006 3.294,-8.856 1.746,-7.899 0.129,-7.3"
       style="fill:#0e121a;fill-opacity:1;fill-rule:nonzero;stroke:none"
       transform="matrix(1.3333333,0,0,-1.3333333,4732.5804,1425.9528)"
       clip-path="url(#clipPath179)" />
    <path
       id="path180"
       d="M 0,0 H 6.7 C 6.356,-5.227 6.024,-10.284 5.64,-16.132 c 1.72,2.086 3.158,3.478 4.164,5.133 1.544,2.541 3.592,3.544 6.492,3.096 0.933,-0.144 1.907,-0.022 3.602,-0.022 -2.502,-2.803 -4.637,-5.194 -6.849,-7.671 2.139,-3.445 4.235,-6.819 6.57,-10.58 -2.685,0 -4.997,-0.111 -7.286,0.071 -0.649,0.051 -1.429,0.841 -1.808,1.491 -1.523,2.612 -2.912,5.302 -4.853,7.914 -0.267,-3.031 -0.534,-6.062 -0.819,-9.288 h -6.655 c 0.289,4.385 0.561,8.692 0.86,12.999 C -0.648,-8.74 -0.327,-4.493 0,0"
       style="fill:#0e121a;fill-opacity:1;fill-rule:nonzero;stroke:none"
       transform="matrix(1.3333333,0,0,-1.3333333,4945.1947,1402.9719)"
       clip-path="url(#clipPath181)" />
    <path
       id="path182"
       d="M 0,0 C 0.12,2.609 -0.931,4.086 -2.812,4.065 -4.814,4.042 -6.02,2.459 -5.865,0 Z m 5.888,-5.299 c -1.059,-6.483 -7.55,-7.106 -13,-6.121 -4.838,0.874 -6.95,5.225 -5.726,11.321 1.028,5.12 6.54,8.283 12.659,7.265 C 4.832,6.332 7.151,2.649 6.246,-3.422 H -6.468 c -0.374,-2.003 -0.263,-3.575 1.444,-4.498 1.703,-0.921 2.928,0.12 4.446,0.972 1.764,0.989 4.032,1.078 6.466,1.649"
       style="fill:#0e121a;fill-opacity:1;fill-rule:nonzero;stroke:none"
       transform="matrix(1.3333333,0,0,-1.3333333,4770.5065,1422.5369)"
       clip-path="url(#clipPath183)" />
    <path
       id="path184"
       d="M 0,0 C -3.707,0.422 -5.666,-0.585 -5.78,-2.861 -5.86,-4.443 -5.069,-5.335 -3.521,-5.435 -1.204,-5.585 0.037,-3.684 0,0 m 6.126,-8.918 c -2.349,0.9 -5.304,-1.485 -6.614,1.547 -2.262,-0.485 -4.459,-1.252 -6.687,-1.358 -2.738,-0.13 -4.377,1.456 -4.97,4.042 -0.581,2.538 0.237,4.819 2.793,5.757 2.465,0.906 5.207,1.04 7.806,1.611 0.719,0.158 1.94,0.676 1.933,1.008 C 0.366,4.721 0.144,6.052 -0.54,6.669 -1.05,7.13 -3.072,6.979 -3.265,6.564 -4.866,3.116 -7.762,4.675 -10.28,4.406 c -0.265,2.483 0.934,4.206 3.001,4.627 2.92,0.596 6.026,1.022 8.95,0.669 C 5.421,9.248 6.92,6.945 6.79,3.093 6.661,-0.724 6.375,-4.536 6.126,-8.918"
       style="fill:#0e121a;fill-opacity:1;fill-rule:nonzero;stroke:none"
       transform="matrix(1.3333333,0,0,-1.3333333,4913.5396,1426.1912)"
       clip-path="url(#clipPath185)" />
    <path
       id="path186"
       d="m 0,0 c -2.921,0 -5.344,-0.093 -7.752,0.059 -0.696,0.043 -1.616,0.635 -1.974,1.244 -2.329,3.965 -4.595,7.971 -6.709,12.053 -0.345,0.665 -0.129,1.988 0.338,2.641 1.972,2.752 4.253,5.286 6.19,8.061 1.241,1.776 2.659,2.526 4.796,2.314 1.612,-0.16 3.252,-0.031 5.519,-0.031 -2.897,-3.408 -5.266,-6.476 -7.949,-9.24 C -9.112,15.482 -8.89,14.342 -7.791,12.655 -5.19,8.665 -2.781,4.548 0,0"
       style="fill:#0e121a;fill-opacity:1;fill-rule:nonzero;stroke:none"
       transform="matrix(1.3333333,0,0,-1.3333333,4664.8588,1437.8812)"
       clip-path="url(#clipPath187)" />
    <path
       id="path188"
       d="m 0,0 h -7.535 c 0.605,8.689 1.203,17.273 1.815,26.057 H 1.802 C 1.204,17.409 0.609,8.81 0,0"
       style="fill:#0e121a;fill-opacity:1;fill-rule:nonzero;stroke:none"
       transform="matrix(1.3333333,0,0,-1.3333333,4639.9532,1437.7783)"
       clip-path="url(#clipPath189)" />
    <path
       id="path190"
       d="M 0,0 C -0.606,-8.727 -1.202,-17.29 -1.805,-25.976 H -8.299 C -7.704,-17.308 -7.118,-8.765 -6.517,0 Z"
       style="fill:#0e121a;fill-opacity:1;fill-rule:nonzero;stroke:none"
       transform="matrix(1.3333333,0,0,-1.3333333,4809.4923,1403.0663)"
       clip-path="url(#clipPath191)" />
    <path
       id="path192"
       d="M 0,0 H 6.51 C 5.909,-8.711 5.318,-17.266 4.715,-25.996 H -1.782 C -1.191,-17.373 -0.6,-8.762 0,0"
       style="fill:#0e121a;fill-opacity:1;fill-rule:nonzero;stroke:none"
       transform="matrix(1.3333333,0,0,-1.3333333,4888.6376,1402.9733)"
       clip-path="url(#clipPath193)" />
    <path
       id="path194"
       d="m 0,0 c 0.126,-0.637 0.265,-1.338 0.362,-1.832 1.98,0.795 3.817,1.533 6.171,2.479 C 6.382,-1.797 6.277,-3.5 6.163,-5.34 5.316,-5.42 4.655,-5.508 3.99,-5.541 1.783,-5.65 0.332,-6.692 0.08,-8.947 c -0.327,-2.924 -0.516,-5.864 -0.779,-8.964 h -6.817 c 0.382,5.909 0.764,11.827 1.158,17.911 z"
       style="fill:#0e121a;fill-opacity:1;fill-rule:nonzero;stroke:none"
       transform="matrix(1.3333333,0,0,-1.3333333,4789.9512,1413.7631)"
       clip-path="url(#clipPath195)" />
    <path
       id="path196"
       d="m 0,0 h -6.724 c 0.388,5.964 0.772,11.882 1.154,17.76 4.863,0.978 6.11,0.639 6.907,-1.585 1.833,0.753 3.683,1.512 6.08,2.496 C 7.184,16.165 7.021,14.404 6.861,12.681 1.12,11.869 1.015,11.735 0.574,5.79 0.434,3.898 0.202,2.012 0,0"
       style="fill:#0e121a;fill-opacity:1;fill-rule:nonzero;stroke:none"
       transform="matrix(1.3333333,0,0,-1.3333333,4932.9068,1437.6992)"
       clip-path="url(#clipPath197)" />
    <path
       id="path198"
       d="M 0,0 H 6.333 C 5.927,-6.016 5.527,-11.937 5.116,-18.017 H -1.209 C -0.81,-12.069 -0.412,-6.141 0,0"
       style="fill:#0e121a;fill-opacity:1;fill-rule:nonzero;stroke:none"
       transform="matrix(1.3333333,0,0,-1.3333333,4668.1965,1413.6436)"
       clip-path="url(#clipPath199)" />
    <path
       id="path200"
       d="M 0,0 C -1.554,-5.502 -2.979,-6.187 -10.538,-5.061 -8.92,0.492 -7.416,1.214 0,0"
       style="fill:#0e121a;fill-opacity:1;fill-rule:nonzero;stroke:none"
       transform="matrix(1.3333333,0,0,-1.3333333,4851.2989,1418.8423)"
       clip-path="url(#clipPath201)" />
    <path
       id="path202"
       d="m 216.852,867.787 h 5.991 v -4.121 h -5.991 z"
       style="fill:#0e121a;fill-opacity:1;fill-rule:nonzero;stroke:none"
       transform="matrix(1.3333333,0,0,-1.3333333,4380,2560)"
       clip-path="url(#clipPath203)" />
  </g>
</svg>
