<?xml version="1.0" encoding="UTF-8" standalone="no"?>
<!-- Created with Inkscape (http://www.inkscape.org/) -->

<svg
   id="svg1"
   width="73.06055"
   height="169.46268"
   viewBox="0 0 105.06055 169.46268"
   xmlns="http://www.w3.org/2000/svg"
   xmlns:svg="http://www.w3.org/2000/svg">
  <defs
     id="defs1">
    <clipPath
       clipPathUnits="userSpaceOnUse"
       id="clipPath31">
      <path
         d="M 0,1920 H 1080 V 0 H 0 Z"
         transform="translate(-957.8401,-1694.9043)"
         id="path31" />
    </clipPath>
    <clipPath
       clipPathUnits="userSpaceOnUse"
       id="clipPath33">
      <path
         d="M 0,1920 H 1080 V 0 H 0 Z"
         transform="translate(-934.4536,-1694.9043)"
         id="path33" />
    </clipPath>
  </defs>
  <g
     id="layer-MC0"
     transform="translate(-2670.0684,-278.01559)">
    <path
       id="path30"
       d="m 0,0 v -38.825 c 0.459,0 0.828,-0.013 1.108,-0.038 0.28,-0.026 0.547,-0.065 0.803,-0.115 2.037,0 3.374,0.459 4.012,1.376 0.637,0.917 0.955,2.649 0.955,5.197 v 24.381 c 0,3.363 -0.267,5.54 -0.802,6.534 C 5.541,-0.497 3.999,0 1.452,0 Z M -21.782,16.584 H 4.855 c 6.888,0 11.991,-0.752 15.309,-2.254 3.317,-1.504 5.537,-4.077 6.659,-7.719 1.123,-3.643 1.684,-8.93 1.684,-15.858 v -16.585 c 0,-4.383 -0.217,-7.872 -0.649,-10.471 -0.434,-2.598 -1.365,-4.828 -2.79,-6.687 -1.427,-1.86 -3.567,-3.453 -6.42,-4.776 3.821,-1.428 6.42,-3.657 7.796,-6.688 1.375,-3.032 2.063,-7.325 2.063,-12.877 v -43.182 H 6.878 v 47.079 c 0,2.14 -0.382,3.642 -1.146,4.509 -0.764,0.866 -2.09,1.299 -3.974,1.299 -0.357,0 -0.663,-0.013 -0.917,-0.038 C 0.585,-57.69 0.306,-57.729 0,-57.779 v -52.734 h -21.782 z"
       style="fill:#0e1620;fill-opacity:1;fill-rule:nonzero;stroke:none"
       transform="matrix(1.3333333,0,0,-1.3333333,2737.1201,300.1276)"
       clip-path="url(#clipPath31)" />
    <path
       id="path32"
       d="m 0,0 c -2.496,0 -3.999,-0.485 -4.509,-1.453 -0.509,-0.968 -0.764,-3.159 -0.764,-6.571 v -33.17 c 0,-3.261 0.255,-5.349 0.764,-6.266 0.51,-0.918 1.91,-1.377 4.203,-1.377 H 1.605 V 0 Z M 23.387,-110.513 H 1.605 v 44.939 h -5.044 c -5.503,0 -9.77,0.383 -12.801,1.146 -3.031,0.765 -5.312,2.075 -6.841,3.937 -1.528,1.859 -2.547,4.394 -3.057,7.604 -0.508,3.21 -0.764,7.642 -0.764,13.298 v 30.342 c 0,7.489 0.523,12.991 1.569,16.508 1.046,3.515 3.216,5.948 6.507,7.298 3.291,1.349 8.483,2.025 15.576,2.025 h 26.637 z"
       style="fill:#0e1620;fill-opacity:1;fill-rule:nonzero;stroke:none"
       transform="matrix(1.3333333,0,0,-1.3333333,2705.9381,300.1276)"
       clip-path="url(#clipPath33)" />
  </g>
</svg>
