<svg width="324" height="327" viewBox="0 0 324 327" fill="none" xmlns="http://www.w3.org/2000/svg">
   <g clip-path="url(#clip0_5_81)">
      <mask id="mask0_5_81" style="mask-type:luminance" maskUnits="userSpaceOnUse" x="-1903" y="-1360" width="2741"
         height="4873">
         <path d="M-1902.96 -1359.33H837.657V3512.89H-1902.96V-1359.33Z" fill="white" />
      </mask>
      <g mask="url(#mask0_5_81)">
         <path
            d="M54.3861 36.8908C53.3711 41.4864 52.4017 45.8663 51.4323 50.2462C48.4811 63.5738 45.5248 76.8988 42.5735 90.2238C41.1448 96.6693 39.6908 103.112 38.3027 109.568C37.4856 113.379 38.8661 115.965 42.5938 117.214C44.7457 117.935 47.0296 118.48 49.2855 118.63C56.8577 119.127 64.4401 119.406 72.02 119.777C82.3252 120.282 92.6279 120.794 102.933 121.304C109.805 121.644 116.677 122.002 123.551 122.319C126.195 122.441 128.845 122.5 131.494 122.535C132.075 122.543 132.661 122.337 133.182 122.241C133.765 119.561 134.303 101.772 133.879 99.7145C131.705 99.7145 129.51 99.5901 127.335 99.7373C118.448 100.339 109.566 101.034 100.682 101.671C93.5567 102.181 86.426 102.653 79.3004 103.148C76.7856 103.323 74.352 102.97 72.1367 101.76C70.0533 100.62 68.9368 99.0141 69.287 96.3623C70.0279 90.7694 70.4898 85.1384 71.0633 79.5252C71.6622 73.6456 72.2458 67.7685 72.8548 61.8913C73.4918 55.7503 74.1465 49.6118 74.7987 43.4734C75.258 39.1772 75.763 34.8861 76.1791 30.5848C76.3441 28.8796 76.7958 27.1489 76.0979 24.9361C68.579 28.7806 61.3138 32.6276 54.3861 36.8908Z"
            fill="#0E121A" />
      </g>
      <mask id="mask1_5_81" style="mask-type:luminance" maskUnits="userSpaceOnUse" x="-1903" y="-1360" width="2741"
         height="4873">
         <path d="M-1902.96 -1359.33H837.656V3512.89H-1902.96V-1359.33Z" fill="white" />
      </mask>
      <g mask="url(#mask1_5_81)">
         <path
            d="M126.551 216.715C127.289 225.119 127.901 232.989 129.022 240.921C129.979 241.056 130.654 241.226 131.329 241.231C133.184 241.246 135.039 241.215 136.892 241.16C145.707 240.893 154.52 240.589 163.336 240.343C168.19 240.205 173.047 240.147 177.902 240.063C178.519 240.053 179.148 240.041 179.749 240.15C182.454 240.637 183.609 243.464 181.845 245.562C181.153 246.385 180.056 247.011 179.021 247.379C164.843 252.429 150.648 257.426 136.453 262.417C132.123 263.937 131.228 265.183 131.316 269.807C131.321 270.071 131.319 270.337 131.337 270.601C131.735 277.024 132.149 283.446 132.529 289.872C132.595 290.983 132.765 291.98 134.159 292.635C134.869 292.635 135.836 292.638 136.803 292.635C152.523 292.61 168.244 292.595 183.967 292.546C186.961 292.536 189.958 292.359 192.955 292.31C194.132 292.293 195.008 291.909 195.655 290.435C195.505 285.616 195.345 280.442 195.196 275.59C193.843 274.352 192.572 274.524 191.349 274.555C184.647 274.73 177.945 274.93 171.243 275.1C168.86 275.161 166.472 275.232 164.092 275.161C162.252 275.105 160.636 273.854 160.23 272.433C159.768 270.812 160.509 268.946 162.113 267.83C162.763 267.378 163.476 267.018 164.168 266.632C173.634 261.344 183.066 255.995 192.59 250.808C195.861 249.026 197.249 246.423 197.19 242.855C197.109 237.914 197.028 232.973 196.924 228.035C196.878 225.929 196.767 223.825 196.68 221.534C195.838 221.381 195.087 221.173 194.325 221.12C185.791 220.529 177.255 219.968 168.721 219.384C165.818 219.186 162.917 218.938 160.014 218.725C153.597 218.25 147.176 217.791 140.759 217.311C137.067 217.037 133.377 216.707 129.68 216.469C128.776 216.41 127.858 216.603 126.551 216.715Z"
            fill="#0E121A" />
      </g>
      <mask id="mask2_5_81" style="mask-type:luminance" maskUnits="userSpaceOnUse" x="-1903" y="-1360" width="2741"
         height="4873">
         <path d="M-1902.96 -1359.33H837.656V3512.89H-1902.96V-1359.33Z" fill="white" />
      </mask>
      <g mask="url(#mask2_5_81)">
         <path
            d="M197.578 125.378C196.563 119.498 195.625 114.078 194.683 108.622C193.78 108.541 193.173 108.406 192.574 108.442C184.83 108.906 177.082 109.383 169.34 109.881C166.8 110.043 164.432 109.602 162.326 108.097C160.699 106.934 159.849 105.323 159.93 103.344C160.192 96.9997 160.517 90.6557 160.824 84.3142C161.014 80.3479 161.207 76.3842 161.418 72.4204C161.872 63.79 162.356 55.1596 162.795 46.5292C163.049 41.5072 163.224 36.4802 163.455 31.4583C163.648 27.3169 163.871 23.1755 164.085 19.0367C164.379 13.3118 164.686 7.58696 164.95 1.85957C164.978 1.29875 164.749 0.725249 164.61 -0.000508348C157.969 0.765851 151.516 1.50937 144.872 2.27573C144.664 3.2451 144.38 4.16372 144.276 5.10263C143.182 15.0222 143.126 24.9975 142.743 34.9526C142.548 40.0659 142.583 45.1918 142.436 50.3077C142.215 57.8875 141.913 65.4674 141.67 73.0472C141.474 79.1299 141.294 85.2151 141.145 91.3002C140.921 100.474 140.777 109.647 140.497 118.821C140.401 121.98 141.812 123.962 144.553 125.281C147.428 126.667 150.478 126.926 153.581 126.842C158.695 126.7 163.805 126.479 168.916 126.327C177.557 126.068 186.197 125.84 194.835 125.591C195.602 125.568 196.365 125.474 197.578 125.378Z"
            fill="#0E121A" />
      </g>
      <mask id="mask3_5_81" style="mask-type:luminance" maskUnits="userSpaceOnUse" x="-1903" y="-1360" width="2741"
         height="4873">
         <path d="M-1902.96 -1359.33H837.656V3512.89H-1902.96V-1359.33Z" fill="white" />
      </mask>
      <g mask="url(#mask3_5_81)">
         <path
            d="M293.219 186.553C292.034 186.553 291.159 186.508 290.286 186.561C281.219 187.119 272.149 187.678 263.083 188.269C259.741 188.485 256.406 188.817 253.064 189.04C248.925 189.319 244.786 189.555 240.645 189.779C238.777 189.878 236.953 189.647 235.209 188.893C232.423 187.688 231.51 186.361 231.779 183.376C232.134 179.423 232.621 175.482 233.052 171.538C233.677 165.839 234.306 160.142 234.928 154.442C235.539 148.832 236.136 143.219 236.752 137.608C237.364 132.086 238.006 126.567 238.597 121.042C238.668 120.388 238.513 119.708 238.455 118.903C233.971 118.619 229.665 118.413 225.371 118.056C221.017 117.69 216.67 117.292 212.239 117.165C212.181 117.919 212.122 118.353 212.12 118.784C211.965 136.712 211.81 154.64 211.665 172.571C211.645 175.043 211.668 177.52 211.658 179.994C211.638 185.559 211.668 191.126 211.554 196.691C211.511 198.734 212.366 200.061 214.066 200.952C214.84 201.36 215.65 201.802 216.492 201.952C218.91 202.383 221.354 202.959 223.79 202.967C232.263 202.987 240.739 202.764 249.214 202.69C258.931 202.609 268.648 202.589 278.367 202.543C282.607 202.523 286.847 202.515 291.088 202.479C291.851 202.472 292.613 202.358 293.673 202.266C293.521 196.991 293.374 191.923 293.219 186.553Z"
            fill="#0E121A" />
      </g>
      <mask id="mask4_5_81" style="mask-type:luminance" maskUnits="userSpaceOnUse" x="-1903" y="-1360" width="2741"
         height="4873">
         <path d="M-1902.96 -1359.33H837.656V3512.89H-1902.96V-1359.33Z" fill="white" />
      </mask>
      <g mask="url(#mask4_5_81)">
         <path
            d="M173.619 4.04836C173.542 4.91115 173.499 5.25627 173.484 5.60393C173.213 11.5064 172.971 17.4089 172.667 23.3088C172.231 31.7591 171.728 40.2043 171.294 48.6545C171.048 53.4988 170.903 58.3482 170.675 63.1925C170.48 67.3313 170.223 71.4651 170.01 75.6014C169.657 82.3794 169.338 89.1599 168.954 95.9353C168.828 98.1659 169.845 99.6631 171.713 100.632C172.639 101.112 173.659 101.579 174.674 101.688C177.204 101.965 179.757 102.165 182.3 102.16C189.712 102.142 197.122 102.021 204.532 101.914C205.207 101.906 205.877 101.724 206.638 101.609C206.506 95.306 206.379 89.1751 206.245 82.8057C203.085 82.8057 200.111 82.7448 197.14 82.826C194.983 82.8869 192.927 82.6814 191.049 81.5344C189.501 80.5853 188.606 79.2657 188.717 77.3904C188.801 75.9821 188.877 74.5711 189.009 73.1653C189.458 68.4276 189.935 63.6949 190.39 58.9572C190.821 54.4834 191.232 50.0071 191.664 45.5307C192.113 40.8818 192.575 36.2354 193.036 31.5891C193.498 26.9402 193.983 22.2938 194.424 17.6424C194.782 13.8892 195.087 10.131 195.44 6.06323C188.108 5.38569 180.968 4.72591 173.619 4.04836Z"
            fill="#0E121A" />
      </g>
      <mask id="mask5_5_81" style="mask-type:luminance" maskUnits="userSpaceOnUse" x="-1903" y="-1360" width="2741"
         height="4873">
         <path d="M-1902.96 -1359.33H837.656V3512.89H-1902.96V-1359.33Z" fill="white" />
      </mask>
      <g mask="url(#mask5_5_81)">
         <path
            d="M153.057 301.329V309.815C153.057 312.55 153.017 315.286 153.068 318.021C153.121 320.803 152.824 323.609 153.268 326.319C155.933 327.182 158.31 327.345 160.878 326.099C160.878 324.094 160.797 322.074 160.901 320.064C161.005 318.039 160.409 315.933 161.447 313.695C164.568 317.945 166.476 322.648 169.605 326.629C171.222 326.629 172.719 326.692 174.211 326.611C175.668 326.53 177.2 327.02 178.545 326.2C179.048 323.919 179.043 303.514 178.517 301.189C176.023 300.454 173.518 300.213 170.828 301.588V313.51C170.653 313.565 170.478 313.619 170.303 313.675C168.956 311.771 167.971 309.64 166.819 307.615C165.606 305.486 164.416 303.341 163.337 301.423C160.807 300.806 156.054 300.75 153.057 301.329Z"
            fill="#0E121A" />
      </g>
      <mask id="mask6_5_81" style="mask-type:luminance" maskUnits="userSpaceOnUse" x="-1903" y="-1360" width="2741"
         height="4873">
         <path d="M-1902.96 -1359.33H837.656V3512.89H-1902.96V-1359.33Z" fill="white" />
      </mask>
      <g mask="url(#mask6_5_81)">
         <path
            d="M116.612 318.31C112.633 319.452 110.806 318.465 110.106 314.715C109.804 313.098 109.781 311.365 109.991 309.731C110.54 305.47 112.859 304.924 116.363 305.582C117.127 305.724 117.838 306.143 118.576 306.427C119.134 306.64 119.695 306.838 120.226 307.031C122.152 305.853 123.24 304.239 123.915 302.374C123.167 300.565 121.672 299.963 120.157 299.532C116.335 298.446 112.453 298.499 108.695 299.674C105.513 300.669 103.257 302.836 102.196 306.115C100.876 310.198 100.93 314.258 102.315 318.308C103.457 321.642 105.794 323.764 109.113 324.791C111.674 325.586 114.331 325.794 116.962 325.365C119.741 324.913 122.479 324.215 124.732 321.914C124.768 318.199 125.105 314.369 124.529 310.644C122.413 310.038 116.709 309.921 113.552 310.35C112.656 312.337 112.638 313.956 113.542 316.23C114.488 316.339 115.506 316.46 116.612 316.59V318.31Z"
            fill="#0E121A" />
      </g>
      <mask id="mask7_5_81" style="mask-type:luminance" maskUnits="userSpaceOnUse" x="-1903" y="-1360" width="2741"
         height="4873">
         <path d="M-1902.96 -1359.33H837.656V3512.89H-1902.96V-1359.33Z" fill="white" />
      </mask>
      <g mask="url(#mask7_5_81)">
         <path
            d="M137.665 306.776H147.623C148.407 304.601 148.887 302.69 147.603 300.556C141.705 300.551 135.752 300.412 129.573 300.653C129.431 301.779 129.215 302.711 129.21 303.642C129.182 310.169 129.182 316.695 129.21 323.222C129.215 324.148 129.421 325.075 129.545 326.09H148.816C149.907 323.933 149.805 321.963 148.577 319.776H137.752V316.723C140.459 316.401 142.979 316.099 145.522 315.797C146.707 314.018 146.674 312.336 145.471 310.554C142.888 310.224 140.31 309.895 137.665 309.56V306.776Z"
            fill="#0E121A" />
      </g>
      <mask id="mask8_5_81" style="mask-type:luminance" maskUnits="userSpaceOnUse" x="-1903" y="-1360" width="2741"
         height="4873">
         <path d="M-1902.96 -1359.33H837.656V3512.89H-1902.96V-1359.33Z" fill="white" />
      </mask>
      <g mask="url(#mask8_5_81)">
         <path
            d="M189.767 306.692C189.823 313.384 189.744 319.621 189.815 325.818C192.7 326.749 195.241 326.838 197.999 325.795V319.37C197.999 317.251 197.943 315.13 198.014 313.013C198.083 310.94 197.666 308.824 198.397 306.57H204.665C205.645 303.934 205.657 303.111 204.845 300.8C201.975 300.31 184.613 300.429 182.781 300.952C182.098 303.581 182.179 304.598 183.364 306.692H189.767Z"
            fill="#0E121A" />
      </g>
      <mask id="mask9_5_81" style="mask-type:luminance" maskUnits="userSpaceOnUse" x="-1903" y="-1360" width="2741"
         height="4873">
         <path d="M-1902.96 -1359.33H837.656V3512.89H-1902.96V-1359.33Z" fill="white" />
      </mask>
      <g mask="url(#mask9_5_81)">
         <path
            d="M216.92 324.805V299.957C214.147 299.289 211.561 299.084 209.01 300.109V324.848C211.454 325.848 214.598 325.838 216.92 324.805Z"
            fill="#0E121A" />
      </g>
      <mask id="mask10_5_81" style="mask-type:luminance" maskUnits="userSpaceOnUse" x="-1903" y="-1360" width="2741"
         height="4873">
         <path d="M-1902.96 -1359.33H837.656V3512.89H-1902.96V-1359.33Z" fill="white" />
      </mask>
      <g mask="url(#mask10_5_81)">
         <path
            d="M184.083 192.559C183.776 195.658 181.805 197.513 178.894 198.15C176.849 198.596 174.707 198.617 172.601 198.754C171.372 198.835 170.132 198.769 168.896 198.769C168.888 198.865 168.881 198.962 168.873 199.061C165.546 198.789 162.207 198.624 158.9 198.211C156.883 197.957 155.081 196.988 153.381 195.82C149.673 193.278 149.506 186.906 152.531 184.152C155.084 181.828 158.111 180.592 161.362 180.389C166.8 180.052 172.281 179.97 177.724 180.227C181.949 180.425 183.682 182.34 184.142 186.51C184.363 188.502 184.281 190.557 184.083 192.559ZM204.275 195.341C203.593 189.205 203.151 183.043 202.633 176.89C202.034 169.769 201.484 162.644 200.862 155.526C200.717 153.861 200.537 152.171 200.096 150.57C197.911 142.64 191.143 136.011 181.183 136.199C173.329 136.344 165.475 136.496 157.624 136.679C151.889 136.813 146.141 136.806 140.424 137.217C133.428 137.719 127.637 140.876 122.95 146.098C118.484 151.075 117.946 156.931 118.928 163.402C119.889 163.598 120.813 163.938 121.737 163.943C125.005 163.961 128.271 163.867 131.537 163.806C132.74 163.78 133.775 163.395 134.516 162.362C134.501 162.093 134.491 161.832 134.468 161.573C134.075 156.87 135.899 153.96 140.312 152.445C141.55 152.019 142.865 151.638 144.159 151.587C150.242 151.346 156.332 151.166 162.42 151.11C163.975 151.095 165.574 151.491 167.092 151.922C171.801 153.262 173.441 155.454 174.133 160.253C174.824 165.016 172.786 168.102 168.475 170.178C165.719 171.502 162.78 172.005 159.753 172.053C154.721 172.139 149.681 172.068 144.657 172.297C141.233 172.451 137.769 172.731 134.427 173.439C127.88 174.822 124.396 179.668 124.719 186.319C124.873 189.491 125.094 192.666 125.064 195.838C125.015 201.043 127.964 205.534 133.582 206.74C136.32 207.326 139.158 207.509 141.962 207.691C148.567 208.123 155.177 208.453 161.785 208.805C166.807 209.074 171.842 209.209 176.854 209.6C180.391 209.876 183.891 209.978 187.403 209.397C191.983 208.638 196.338 207.298 200.086 204.466C203.082 202.2 204.719 199.327 204.275 195.341Z"
            fill="#0E121A" />
      </g>
      <mask id="mask11_5_81" style="mask-type:luminance" maskUnits="userSpaceOnUse" x="-1903" y="-1360" width="2741"
         height="4873">
         <path d="M-1902.96 -1359.33H837.656V3512.89H-1902.96V-1359.33Z" fill="white" />
      </mask>
      <g mask="url(#mask11_5_81)">
         <path
            d="M64.0497 145.507C66.3615 144.109 68.9194 143.299 71.5534 143.195C76.5627 143 81.5846 143.036 86.6015 143.114C88.7331 143.15 90.7479 143.863 92.5446 145.076C94.3158 146.271 95.4755 147.811 95.5466 150.06C95.6937 154.729 95.8942 159.396 96.0617 163.793C96.0617 167.861 96.016 171.657 96.0769 175.451C96.1175 177.902 95.0416 179.641 93.0673 180.973C90.9636 182.394 88.6011 183.211 86.132 183.297C81.1202 183.472 76.0958 183.483 71.084 183.351C68.4144 183.28 65.9149 182.338 63.7148 180.734C61.9663 179.46 61.0147 177.806 60.9792 175.588C60.8472 167.655 60.7229 159.72 60.4793 151.79C60.3905 148.875 61.6821 146.938 64.0497 145.507ZM56.0486 192.621C57.7158 192.76 59.3881 192.854 61.0604 192.943C65.8159 193.191 70.5739 193.42 75.3294 193.676C80.699 193.965 86.066 194.379 91.4407 194.549C96.2977 194.701 101.152 194.435 105.842 192.971C111.163 191.311 113.114 188.553 112.998 183.026C112.82 174.644 112.655 166.262 112.477 157.881C112.356 152.059 112.191 146.241 112.102 140.419C112.064 137.775 111.064 135.593 109.113 133.898C107.994 132.926 106.727 132.081 105.425 131.363C100.924 128.868 95.9576 128.046 90.918 127.82C80.699 127.366 70.4749 127.089 60.2509 126.731C50.2908 126.384 40.3307 126.003 30.3705 125.678C22.5217 125.419 14.6703 125.219 6.82149 125.008C5.51462 124.973 4.20775 125.003 2.82983 125.003C2.53039 125.491 2.30708 125.701 2.26901 125.942C1.51534 130.637 0.776902 135.334 0.0587574 140.034C-0.106187 141.125 0.0156158 142.163 1.20829 142.954C1.48997 142.954 1.92897 142.998 2.35529 142.949C9.62048 142.097 16.8831 141.206 24.1508 140.384C28.0283 139.942 29.6752 141.653 29.5027 145.538C29.1855 152.673 28.9545 159.812 28.7211 166.95C28.5993 170.744 28.5739 174.54 28.4572 178.334C28.2059 186.617 27.9141 194.902 27.6578 203.187C27.5056 208.125 27.602 213.084 27.1833 217.999C26.9422 220.829 27.871 222.567 30.2386 223.8C34.2252 225.876 38.1991 227.975 42.1856 230.048C43.2591 230.606 44.3655 231.101 45.3957 231.596C46.9944 230.492 46.7407 229.015 46.7153 227.632C46.5402 218.014 46.3981 208.397 46.1291 198.782C46.053 196.051 46.7686 194.684 49.5599 193.514C51.6281 192.646 53.8155 192.438 56.0486 192.621Z"
            fill="#0E121A" />
      </g>
      <mask id="mask12_5_81" style="mask-type:luminance" maskUnits="userSpaceOnUse" x="-1903" y="-1360" width="2741"
         height="4873">
         <path d="M-1902.96 -1359.33H837.656V3512.89H-1902.96V-1359.33Z" fill="white" />
      </mask>
      <g mask="url(#mask12_5_81)">
         <path
            d="M105.015 253.859C104.405 257.751 102.317 259.852 98.404 260.256C94.9884 260.606 91.5474 260.718 89.2331 260.865C85.7236 260.865 83.3408 260.845 80.9579 260.867C77.6388 260.903 75.2052 259.066 74.8169 254.975C74.652 253.232 74.7586 251.44 74.9514 249.694C75.7254 242.777 76.6212 235.869 77.3875 228.952C77.7047 226.077 79.0547 223.991 81.5568 222.626C83.4524 221.59 85.5256 221.179 87.6572 221.113C90.2177 221.032 92.7807 220.948 95.3361 221.017C96.7292 221.055 98.168 221.227 99.4876 221.651C102.802 222.712 104.827 225.493 104.926 229.008C105.032 232.713 105.012 236.423 105.08 240.13C105.141 243.48 105.281 246.829 105.314 250.179C105.324 251.405 105.205 252.646 105.015 253.859ZM120.902 226.039C120.608 222.174 120.535 218.253 119.776 214.475C118.537 208.321 114.934 203.929 108.664 202.264C106.557 201.706 104.319 201.416 102.139 201.411C96.6708 201.401 91.1997 201.627 85.7287 201.759C82.11 201.845 78.4838 201.84 74.8728 202.048C70.2315 202.315 65.7957 203.368 61.9766 206.22C58.7031 208.664 56.7314 211.927 56.2467 215.977C55.9295 218.598 55.8635 221.25 55.7112 223.892C55.2875 231.292 54.8865 238.691 54.4602 246.091C54.2648 249.527 53.9933 252.958 53.8283 256.394C53.6837 259.388 53.5086 262.393 53.5873 265.384C53.6609 268.153 54.5363 270.764 56.0589 273.101C59.1726 277.88 63.8164 279.851 69.3103 280.08C73.4517 280.252 77.6007 280.298 81.7471 280.351C85.0156 280.392 88.2866 280.359 91.555 280.359V280.438C96.3257 280.438 101.104 280.597 105.867 280.405C115.657 280.006 122.57 274.639 123.029 264.065C123.275 258.36 122.704 252.613 122.369 246.89C121.958 239.935 121.43 232.987 120.902 226.039Z"
            fill="#0E121A" />
      </g>
      <mask id="mask13_5_81" style="mask-type:luminance" maskUnits="userSpaceOnUse" x="-1903" y="-1360" width="2741"
         height="4873">
         <path d="M-1902.96 -1359.33H837.656V3512.89H-1902.96V-1359.33Z" fill="white" />
      </mask>
      <g mask="url(#mask13_5_81)">
         <path
            d="M252.827 75.7564C255.278 76.203 257.278 77.5581 258.582 79.6491C261.001 83.5342 261.148 87.7288 259.232 91.784C257.415 95.6335 253.997 97.3845 249.802 97.5012C246.465 97.59 243.093 97.8235 239.796 97.4504C234.521 96.8566 231.359 93.1416 231.158 87.7948C231.095 86.1454 231.092 84.4147 231.516 82.8439C232.577 78.8954 236.239 76.0939 240.464 75.7386C242.742 75.5483 245.031 75.4519 247.318 75.3148C247.328 75.2565 247.338 75.1981 247.351 75.1398C249.178 75.3377 251.023 75.429 252.827 75.7564ZM213.811 61.056C214.616 61.0306 215.407 60.5662 216.361 60.2541C216.361 57.7901 216.306 55.76 216.384 53.7375C216.43 52.5144 216.628 51.2887 216.856 50.0834C217.201 48.2487 218.427 47.1347 220.15 46.6424C221.239 46.3328 222.396 46.1425 223.528 46.1222C228.829 46.0308 234.13 46.013 239.431 45.98C239.961 45.975 240.494 45.9978 241.019 46.0587C244.821 46.5028 248.272 49.147 248.949 52.824C249.47 55.6407 249.363 58.6021 249.269 61.4874C249.201 63.6215 247.686 64.7812 245.668 65.1187C244.283 65.3522 242.864 65.3902 241.458 65.4664C236.881 65.7176 232.262 65.6465 227.732 66.248C219.13 67.3899 213.725 73.8253 213.71 82.4354C213.705 86.0591 213.727 89.6828 213.796 93.304C213.837 95.5193 214.174 97.6966 215.179 99.7114C218.054 105.482 222.875 108.299 229.169 108.583C232.156 108.717 235.163 108.388 238.162 108.296C246.808 108.03 255.453 107.814 264.096 107.51C272.212 107.223 280.322 106.845 288.435 106.515C291.5 106.39 294.571 106.289 297.842 106.17C298.476 101.45 297.037 97.1688 296.832 92.8168C296.781 91.7484 296.251 90.7004 295.933 89.6168C293.109 90.0838 290.607 90.5862 288.082 90.8907C283.969 91.3881 279.842 91.7941 275.716 92.1595C274.409 92.2762 273.047 92.2788 271.831 91.0886C271.74 90.6598 271.565 90.0761 271.489 89.4823C270.626 82.5242 271.1 75.5432 271.225 68.5775C271.377 60.1069 271.846 51.644 272.021 43.176C272.158 36.601 268.2 31.2061 261.965 29.1481C258.988 28.166 255.943 28.2066 252.824 28.4122C242.083 29.1125 231.331 29.6429 220.579 30.2012C217.341 30.3687 214.309 31.1299 211.588 32.9418C209.127 34.5811 207.163 36.7051 205.536 39.1666C201.395 45.4319 201.176 52.4205 201.752 59.5563C201.785 59.9674 202.075 60.3582 202.326 60.957C206.125 61.9391 209.982 61.1727 213.811 61.056Z"
            fill="#0E121A" />
      </g>
      <mask id="mask14_5_81" style="mask-type:luminance" maskUnits="userSpaceOnUse" x="-1903" y="-1360" width="2741"
         height="4873">
         <path d="M-1902.96 -1359.33H837.656V3512.89H-1902.96V-1359.33Z" fill="white" />
      </mask>
      <g mask="url(#mask14_5_81)">
         <path
            d="M300.131 152.292C300.039 155.39 298.623 157.659 295.789 158.996C293.599 160.029 291.262 160.461 288.874 160.567C284.205 160.773 279.533 160.91 274.864 161.059C269.471 161.232 266.386 159.06 265.018 153.792C263.693 148.691 263.675 143.487 264.678 138.32C264.942 136.975 265.584 135.635 266.32 134.46C267.649 132.344 269.613 130.974 272.184 130.882C278.442 130.661 284.705 130.512 290.965 130.38C293.439 130.329 295.357 131.522 296.872 133.389C299.207 136.267 299.846 139.723 300.07 143.286C300.159 144.694 300.085 146.11 300.085 147.524H300.138C300.138 149.115 300.176 150.703 300.131 152.292ZM323.363 159.562C322.995 154.38 322.114 149.237 321.528 144.068C321.058 139.952 320.67 135.823 320.279 131.699C319.901 127.692 318.909 123.899 316.648 120.506C314.884 117.857 312.646 115.669 309.555 114.852C307.469 114.301 305.198 114.258 303.013 114.294C293.926 114.444 284.839 114.705 275.749 114.928C270.545 115.058 265.34 115.197 260.133 115.322C255.448 115.433 252.078 117.659 250.01 121.795C249.226 123.358 248.645 125.041 248.127 126.718C246.585 131.72 246.275 136.939 245.552 142.083C244.851 147.057 244.273 152.051 243.621 157.032C242.974 161.983 242.925 166.886 244.689 171.659C246.889 177.61 251.929 181.145 257.808 180.827C260.625 180.675 263.46 180.8 266.287 180.8V180.751C276.881 180.561 287.473 180.383 298.068 180.178C301.42 180.114 304.769 179.947 308.119 179.889C310.763 179.843 313.169 179.097 315.288 177.539C321.36 173.078 323.885 166.911 323.363 159.562Z"
            fill="#0E121A" />
      </g>
      <mask id="mask15_5_81" style="mask-type:luminance" maskUnits="userSpaceOnUse" x="-1903" y="-1360" width="2741"
         height="4873">
         <path d="M-1902.97 -1359.33H837.656V3512.89H-1902.97V-1359.33Z" fill="white" />
      </mask>
      <g mask="url(#mask15_5_81)">
         <path
            d="M234.776 267.269C230.993 266.203 228.011 263.899 228.579 258.539C228.889 255.611 229.724 252.837 231.376 250.386C233.213 247.663 235.735 246.092 239.131 246.161C240.625 246.191 242.123 246.166 243.62 246.166C243.625 246.054 243.632 245.94 243.638 245.828C246.261 246.049 248.895 246.199 251.507 246.526C252.524 246.656 253.527 247.107 254.478 247.541C257.138 248.759 258.488 250.899 258.566 253.802C258.625 255.915 258.625 258.032 258.566 260.146C258.505 262.409 257.468 264.17 255.613 265.475C253.915 266.665 252.002 267.495 249.994 267.588C245.612 267.791 241.214 267.72 236.824 267.708C236.139 267.708 235.449 267.459 234.776 267.269ZM252.103 277.835C257.13 278.01 261.467 276.348 265.179 273.062C268.488 270.131 270.338 266.528 270.412 261.952C270.534 254.192 270.899 246.435 271.163 238.677C271.343 233.389 271.495 228.098 271.719 222.81C271.841 219.925 270.6 217.669 268.567 215.821C266.514 213.956 264.068 212.748 261.381 212.048C257.285 210.979 253.123 211.413 248.997 211.614C240.369 212.033 231.749 212.614 223.129 213.152C221.195 213.273 219.243 213.37 217.34 213.705C214.381 214.23 211.506 215.088 208.966 216.796C207.015 218.11 205.317 219.732 204.787 222.064C204.201 224.639 204.424 227.286 204.629 229.796C207.269 230.841 218.15 230.511 220.505 229.37C220.553 228.915 220.637 228.4 220.654 227.882C220.789 223.84 221.989 222.257 225.884 221.495C230.145 220.66 234.484 220.668 238.773 221.074C244.313 221.594 247.312 225.256 247.482 230.841C247.589 234.277 246.02 236.515 243.196 238.137C240.91 239.449 238.405 239.863 235.829 239.926C231.592 240.027 227.354 240.022 223.121 240.144C218.86 240.266 214.688 240.913 210.824 242.842C206.731 244.887 204.601 248.145 204.759 252.817C204.893 256.783 204.962 260.752 205.02 264.718C205.051 266.825 205.667 268.71 206.949 270.367C210.339 274.747 214.846 277.089 220.342 277.282C227.394 277.531 234.454 277.587 241.509 277.706C245.041 277.764 248.576 277.711 252.103 277.835Z"
            fill="#0E121A" />
      </g>
      <mask id="mask16_5_81" style="mask-type:luminance" maskUnits="userSpaceOnUse" x="-1903" y="-1360" width="2741"
         height="4873">
         <path d="M-1902.97 -1359.33H837.656V3512.89H-1902.97V-1359.33Z" fill="white" />
      </mask>
      <g mask="url(#mask16_5_81)">
         <path
            d="M126.138 65.1697C125.877 68.0651 125.456 70.9478 125.255 73.8483C125.078 76.4164 123.603 78.0481 121.647 79.3803C121.002 79.8219 120.246 80.1847 119.49 80.3624C115.582 81.2784 111.623 81.4383 107.703 80.5476C104.13 79.7381 102.632 77.8044 102.559 74.196C102.5 71.2853 102.546 68.3721 102.546 65.4615C102.457 65.4615 102.366 65.4615 102.277 65.4615C102.277 62.8148 102.363 60.163 102.257 57.5188C102.1 53.6692 104.416 51.4234 107.451 50.4465C108.611 50.0734 109.867 49.8933 111.088 49.8476C113.734 49.7435 116.396 49.6344 119.028 49.8247C120.563 49.9339 122.164 50.3957 123.54 51.091C125.753 52.2076 126.889 54.2047 126.765 56.7296C126.626 59.5463 126.395 62.3605 126.138 65.1697ZM132.703 40.5726C130.775 38.9003 128.493 37.9436 126.024 37.5909C123.502 37.2331 120.936 37.1773 118.391 36.959C111.885 36.3982 105.388 35.7588 98.8768 35.269C94.847 34.967 90.9696 35.6547 87.4626 37.8117C84.5545 39.6032 82.9203 42.1637 82.7858 45.6326C82.7375 46.8659 82.6208 48.0992 82.499 49.3274C82.0499 53.8037 81.5905 58.2801 81.1287 62.7539C80.677 67.1414 80.2025 71.5264 79.766 75.9139C79.4869 78.7231 79.0631 81.5373 79.058 84.349C79.0479 89.6602 81.8265 93.1316 86.9068 94.1594C88.5918 94.4994 90.4316 94.3827 92.1622 94.167C102.574 92.8652 112.983 91.5228 123.377 90.0662C125.352 89.7921 127.354 89.1831 129.156 88.3279C133.546 86.2496 135.758 82.702 135.695 77.7562C135.629 72.7216 135.68 67.6845 135.68 62.6473H135.814C135.814 57.5239 135.774 52.3979 135.829 47.2744C135.86 44.5008 134.751 42.3439 132.703 40.5726Z"
            fill="#0E121A" />
      </g>
      <mask id="mask17_5_81" style="mask-type:luminance" maskUnits="userSpaceOnUse" x="-1903" y="-1360" width="2741"
         height="4873">
         <path d="M-1902.96 -1359.33H837.656V3512.89H-1902.96V-1359.33Z" fill="white" />
      </mask>
      <g mask="url(#mask17_5_81)">
         <path
            d="M239.768 300.182C239.768 301.948 239.791 303.874 239.76 305.803C239.732 307.746 239.897 309.711 239.344 311.705C237.943 309.812 236.832 307.861 235.73 305.902C234.571 303.836 233.419 301.763 232.18 299.547C228.902 298.756 225.638 298.961 222.431 299.362C221.827 301.826 221.847 322.528 222.395 324.584C225.248 325.451 227.194 325.411 229.767 324.325C229.8 320.442 229.833 316.433 229.866 312.426C230.112 312.362 230.358 312.299 230.602 312.236C231.122 313.03 231.668 313.809 232.152 314.623C233.865 317.499 235.588 320.369 237.245 323.274C237.936 324.482 238.872 325.03 240.252 324.992C242.105 324.946 243.96 325.012 245.812 324.959C246.386 324.944 246.957 324.69 247.439 324.568C247.995 322.196 247.987 301.77 247.477 299.649C244.863 298.568 241.996 298.713 239.768 300.182Z"
            fill="#0E121A" />
      </g>
      <mask id="mask18_5_81" style="mask-type:luminance" maskUnits="userSpaceOnUse" x="-1903" y="-1360" width="2741"
         height="4873">
         <path d="M-1902.96 -1359.33H837.656V3512.89H-1902.96V-1359.33Z" fill="white" />
      </mask>
      <g mask="url(#mask18_5_81)">
         <path
            d="M261.513 311.559C261.896 310.204 262.254 308.94 262.612 307.674C262.759 307.669 262.906 307.666 263.051 307.661C263.386 308.9 263.718 310.136 264.099 311.559H261.513ZM268.279 301.256C268.002 300.526 267.662 299.82 267.302 298.983C264.325 298.399 261.43 298.095 258.529 299.224C256.169 305.441 253.781 311.496 251.591 317.619C250.822 319.768 250.904 322.085 251.53 324.346H258.273C259.059 322.024 259.808 319.811 260.519 317.718H265.112C265.881 319.913 266.629 322.055 267.454 324.415C269.994 324.47 272.25 324.757 274.592 324.184C274.8 321.364 274.965 318.723 273.889 316.063C271.907 311.171 270.144 306.195 268.279 301.256Z"
            fill="#0E121A" />
      </g>
      <mask id="mask19_5_81" style="mask-type:luminance" maskUnits="userSpaceOnUse" x="-1903" y="-1360" width="2741"
         height="4873">
         <path d="M-1902.96 -1359.33H837.657V3512.89H-1902.96V-1359.33Z" fill="white" />
      </mask>
      <g mask="url(#mask19_5_81)">
         <path
            d="M88.9909 308.289C87.5394 309.576 87.5394 309.576 85.1134 309.997C84.3648 308.439 85.0068 306.787 84.6744 304.907C86.5193 304.716 87.9784 304.47 88.9909 306.145V308.289ZM95.9541 315.641C95.2131 315.022 94.4747 314.4 93.5814 313.651C93.8936 313.403 94.0204 313.281 94.1702 313.189C97.2102 311.312 97.9715 308.434 97.4665 305.165C96.9412 301.768 94.6193 300.055 91.4092 299.367C90.7241 299.22 90.0313 299.019 89.336 299.002C85.6336 298.908 81.9313 298.849 78.2263 298.824C77.7366 298.821 77.2468 299.078 76.8332 299.192C76.2419 301.26 76.1607 321.515 76.719 324.172C79.3048 325.109 81.9084 325.299 84.7861 323.911V315.684C85.5854 316.265 86.0955 316.47 86.3442 316.849C87.1131 318.024 87.7779 319.269 88.4961 320.482C89.2929 321.825 90.1024 323.162 90.8941 324.482C93.4317 324.406 95.6978 324.758 98.1085 324.243V317.437C97.299 316.765 96.6266 316.204 95.9541 315.641Z"
            fill="#0E121A" />
      </g>
      <mask id="mask20_5_81" style="mask-type:luminance" maskUnits="userSpaceOnUse" x="-1903" y="-1360" width="2741"
         height="4873">
         <path d="M-1902.96 -1359.33H837.656V3512.89H-1902.96V-1359.33Z" fill="white" />
      </mask>
      <g mask="url(#mask20_5_81)">
         <path
            d="M59.8529 311.143C60.2031 309.767 60.5101 308.554 60.8172 307.344L61.3957 307.26C61.7028 308.501 62.0098 309.739 62.3575 311.143H59.8529ZM67.5647 303.494C66.948 301.857 66.3263 300.226 65.7579 298.726C61.888 297.731 60.2766 297.752 56.7671 298.85C54.4046 305.202 51.8898 311.67 49.6314 318.228C49.0299 319.979 49.0858 322.006 49.842 323.942H56.5717C57.3229 321.691 58.0359 319.55 58.7693 317.352H63.4182C64.2049 319.56 64.9636 321.686 65.6792 323.696C68.5137 324.336 70.9448 324.265 72.8201 323.549C73.3707 320.425 73.2565 318.679 72.2872 316.083C70.7215 311.884 69.1405 307.689 67.5647 303.494Z"
            fill="#0E121A" />
      </g>
   </g>
   <defs>
      <clipPath id="clip0_5_81">
         <rect width="323.429" height="327" fill="white" />
      </clipPath>
   </defs>
</svg>