<?xml version="1.0" encoding="UTF-8" standalone="no"?>
<!-- Created with Inkscape (http://www.inkscape.org/) -->

<svg
   version="1.1"
   id="svg1"
   width="352.45801"
   height="44.198975"
   viewBox="0 0 352.45801 44.198975"
   xmlns="http://www.w3.org/2000/svg"
   xmlns:svg="http://www.w3.org/2000/svg">
  <defs
     id="defs1">
    <clipPath
       clipPathUnits="userSpaceOnUse"
       id="clipPath205">
      <path
         d="M 0,1920 H 1080 V 0 H 0 Z"
         transform="translate(-272.99933,-1094.214)"
         id="path205" />
    </clipPath>
    <clipPath
       clipPathUnits="userSpaceOnUse"
       id="clipPath207">
      <path
         d="M 0,1920 H 1080 V 0 H 0 Z"
         transform="translate(-180.89798,-1088.0883)"
         id="path207" />
    </clipPath>
    <clipPath
       clipPathUnits="userSpaceOnUse"
       id="clipPath209">
      <path
         d="M 0,1920 H 1080 V 0 H 0 Z"
         transform="translate(-376.87411,-1074.6334)"
         id="path209" />
    </clipPath>
    <clipPath
       clipPathUnits="userSpaceOnUse"
       id="clipPath211">
      <path
         d="M 0,1920 H 1080 V 0 H 0 Z"
         transform="translate(-216.44813,-1088.0079)"
         id="path211" />
    </clipPath>
    <clipPath
       clipPathUnits="userSpaceOnUse"
       id="clipPath213">
      <path
         d="M 0,1920 H 1080 V 0 H 0 Z"
         transform="translate(-332.47298,-1093.8031)"
         id="path213" />
    </clipPath>
    <clipPath
       clipPathUnits="userSpaceOnUse"
       id="clipPath215">
      <path
         d="M 0,1920 H 1080 V 0 H 0 Z"
         transform="translate(-335.98943,-1093.7689)"
         id="path215" />
    </clipPath>
    <clipPath
       clipPathUnits="userSpaceOnUse"
       id="clipPath217">
      <path
         d="M 0,1920 H 1080 V 0 H 0 Z"
         transform="translate(-418.56159,-1090.3615)"
         id="path217" />
    </clipPath>
    <clipPath
       clipPathUnits="userSpaceOnUse"
       id="clipPath219">
      <path
         d="M 0,1920 H 1080 V 0 H 0 Z"
         transform="translate(-415.07701,-1090.5108)"
         id="path219" />
    </clipPath>
  </defs>
  <g
     id="layer-MC0"
     transform="translate(-4586.6079,-1101.048)">
    <path
       id="path204"
       d="m 0,0 c 0.346,-0.073 0.696,-0.133 1.039,-0.221 1.229,-0.317 2.17,-1.018 2.856,-2.088 3.75,-5.855 7.511,-11.703 11.266,-17.556 2.745,-4.279 5.485,-8.561 8.228,-12.842 0.06,-0.093 0.117,-0.189 0.219,-0.353 -0.246,-0.019 -0.436,-0.046 -0.627,-0.046 -2.014,-0.003 -4.029,0.013 -6.043,-0.014 -0.465,-0.006 -0.739,0.132 -0.976,0.533 -0.928,1.569 -1.912,3.106 -2.824,4.684 -0.257,0.444 -0.537,0.58 -1.029,0.579 -5.204,-0.016 -10.408,0 -15.611,-0.022 -0.575,-0.003 -0.906,0.18 -1.206,0.665 -1.028,1.661 -2.105,3.292 -3.228,5.033 h 16.84 c -3.034,4.876 -5.983,9.616 -8.98,14.432 -0.874,-1.371 -1.71,-2.67 -2.534,-3.976 -4.517,-7.151 -9.029,-14.305 -13.561,-21.447 -0.14,-0.221 -0.481,-0.445 -0.732,-0.449 -2.174,-0.035 -4.349,-0.02 -6.524,-0.018 -0.083,0 -0.166,0.016 -0.356,0.037 0.874,1.373 1.698,2.676 2.529,3.974 4.376,6.835 8.754,13.669 13.131,20.503 1.377,2.15 2.738,4.311 4.14,6.445 0.796,1.213 1.959,1.875 3.416,2.015 0.146,0.015 0.287,0.087 0.43,0.132 z"
       style="fill:#0e121a;fill-opacity:1;fill-rule:nonzero;stroke:none"
       transform="matrix(1.3333333,0,0,-1.3333333,4743.9991,1101.048)"
       clip-path="url(#clipPath205)" />
    <path
       id="path206"
       d="m 0,0 v -0.009 c -3.182,0 -6.365,0.045 -9.546,-0.009 -6.239,-0.106 -11.163,-6.001 -10.176,-12.123 0.87,-5.393 5.264,-9.125 10.745,-9.126 5.86,-0.001 11.721,-0.004 17.581,0.005 0.615,0.001 1.234,0.042 1.845,0.111 4.901,0.552 8.911,4.745 9.264,9.607 C 20.194,-4.917 14.869,0.156 8.859,0.012 5.908,-0.058 2.953,0 0,0 m 0.003,5.702 c 3.294,0 6.588,0.024 9.881,-0.004 7.625,-0.067 14.407,-5.832 15.709,-13.324 1.329,-7.652 -2.425,-14.766 -9.509,-17.973 -1.913,-0.866 -3.94,-1.351 -6.039,-1.36 -6.707,-0.032 -13.415,-0.084 -20.12,0.007 -7.885,0.106 -14.642,6.188 -15.708,13.974 -1.172,8.56 4.242,16.432 12.648,18.29 1.325,0.293 2.718,0.359 4.082,0.384 3.018,0.055 6.037,0.017 9.056,0.017 z"
       style="fill:#0e121a;fill-opacity:1;fill-rule:nonzero;stroke:none"
       transform="matrix(1.3333333,0,0,-1.3333333,4621.1973,1109.2156)"
       clip-path="url(#clipPath207)" />
    <path
       id="path208"
       d="m 0,0 c 0.328,-1.376 0.909,-2.501 1.686,-3.512 2.152,-2.799 5.019,-4.272 8.557,-4.29 7.257,-0.036 14.515,-0.01 21.772,-0.01 h 0.898 c -0.462,-0.737 -0.869,-1.397 -1.288,-2.049 -0.69,-1.074 -1.367,-2.158 -2.099,-3.203 -0.161,-0.229 -0.528,-0.444 -0.801,-0.445 -6.455,-0.02 -12.912,-0.059 -19.367,0.006 -6.646,0.067 -12.808,4.57 -14.98,10.822 -3.278,9.434 2.242,19.327 12.031,21.488 1.172,0.258 2.403,0.338 3.608,0.343 7.297,0.031 14.594,0.017 21.891,0.017 0.113,0 0.227,-0.011 0.397,-0.019 -0.044,-0.142 -0.056,-0.272 -0.119,-0.37 -1.047,-1.63 -2.115,-3.247 -3.143,-4.889 C 28.79,13.486 28.474,13.45 28.068,13.45 22.161,13.457 16.255,13.466 10.348,13.451 5.8,13.439 1.94,10.825 0.317,6.696 0.202,6.404 0.12,6.099 -0.012,5.694 H 30.657 C 29.835,4.406 29.097,3.24 28.347,2.082 27.903,1.395 27.583,0.445 26.946,0.113 26.276,-0.235 25.293,0.002 24.448,0.002 16.618,-0.001 8.789,0 0.959,0 Z"
       style="fill:#0e121a;fill-opacity:1;fill-rule:nonzero;stroke:none"
       transform="matrix(1.3333333,0,0,-1.3333333,4882.4988,1127.1555)"
       clip-path="url(#clipPath209)" />
    <path
       id="path210"
       d="m 0,0 v -26.868 h -6.184 v 32.62 c 0.179,0.014 0.332,0.037 0.485,0.037 9.152,-10e-4 18.303,0.025 27.455,-0.018 5.436,-0.025 10.156,-4.589 10.628,-9.994 0.508,-5.817 -3.585,-11.175 -9.609,-11.952 -1.083,-0.14 -2.195,-0.056 -3.293,-0.074 -0.266,-0.004 -0.532,0 -0.799,0 -0.032,-0.065 -0.064,-0.129 -0.096,-0.194 2.046,-1.714 4.092,-3.427 6.137,-5.141 2.06,-1.727 4.119,-3.454 6.294,-5.278 -0.318,-0.019 -0.488,-0.039 -0.657,-0.039 -2.611,-0.002 -5.221,-0.01 -7.831,0.012 -0.288,0.003 -0.639,0.114 -0.853,0.299 -5.992,5.185 -11.971,10.386 -17.954,15.582 -0.118,0.102 -0.266,0.171 -0.4,0.255 0.032,0.051 0.064,0.102 0.097,0.152 0.173,0.014 0.346,0.039 0.52,0.039 4.648,0.002 9.296,-0.013 13.944,0.01 1.513,0.008 3.06,-0.065 4.53,0.218 2.464,0.475 4.079,3.074 3.8,5.736 C 25.957,-2.15 23.8,0.032 21.4,0.049 14.371,0.1 7.342,0.072 0.312,0.073 0.248,0.073 0.183,0.044 0,0"
       style="fill:#0e121a;fill-opacity:1;fill-rule:nonzero;stroke:none"
       transform="matrix(1.3333333,0,0,-1.3333333,4668.5975,1109.3228)"
       clip-path="url(#clipPath211)" />
    <path
       id="path212"
       d="m 0,0 c -0.626,-0.991 -1.18,-1.872 -1.739,-2.749 -0.526,-0.827 -1.078,-1.639 -1.58,-2.481 -0.23,-0.386 -0.509,-0.495 -0.947,-0.494 -5.931,0.014 -11.861,0.022 -17.792,0.005 -4.911,-0.014 -8.92,-2.993 -10.358,-7.654 -1.89,-6.131 2.435,-12.738 8.838,-13.49 0.612,-0.072 1.23,-0.113 1.845,-0.114 7.122,-0.008 14.243,-0.005 21.364,-0.005 h 0.88 c -0.486,-0.779 -0.918,-1.486 -1.365,-2.183 -0.664,-1.037 -1.321,-2.08 -2.026,-3.089 -0.15,-0.215 -0.491,-0.424 -0.744,-0.425 -6.549,-0.019 -13.101,-0.139 -19.645,0.029 -7.448,0.192 -13.676,5.542 -15.316,12.722 -2.129,9.322 4.383,18.692 13.912,19.75 2.76,0.307 5.573,0.158 8.363,0.17 C -11.186,0.013 -6.061,-0.001 -0.936,0 -0.67,0 -0.403,0 0,0"
       style="fill:#0e121a;fill-opacity:1;fill-rule:nonzero;stroke:none"
       transform="matrix(1.3333333,0,0,-1.3333333,4823.2973,1101.5959)"
       clip-path="url(#clipPath213)" />
    <path
       id="path214"
       d="m 0,0 h 6.226 v -26.916 h 29.43 c -0.395,-0.62 -0.707,-1.113 -1.021,-1.603 -0.786,-1.23 -1.583,-2.452 -2.354,-3.691 -0.219,-0.352 -0.481,-0.463 -0.893,-0.462 -9.318,0.012 -18.636,0.006 -27.955,0.011 -2.136,0.002 -3.432,1.295 -3.432,3.403 C -0.001,-19.768 0,-10.278 0,-0.788 Z"
       style="fill:#0e121a;fill-opacity:1;fill-rule:nonzero;stroke:none"
       transform="matrix(1.3333333,0,0,-1.3333333,4827.9859,1101.6415)"
       clip-path="url(#clipPath215)" />
    <path
       id="path216"
       d="M 0,0 C 0.006,1.623 -1.274,2.911 -2.895,2.915 -4.538,2.919 -5.856,1.598 -5.844,-0.041 -5.832,-1.61 -4.531,-2.908 -2.961,-2.918 -1.289,-2.928 -0.006,-1.664 0,0 m -6.525,0.002 c -0.004,1.999 1.626,3.655 3.588,3.645 2.024,-0.011 3.667,-1.644 3.675,-3.652 0.008,-2.025 -1.625,-3.664 -3.646,-3.658 -2.045,0.005 -3.613,1.593 -3.617,3.665"
       style="fill:#0e121a;fill-opacity:1;fill-rule:nonzero;stroke:none"
       transform="matrix(1.3333333,0,0,-1.3333333,4938.0821,1106.1847)"
       clip-path="url(#clipPath217)" />
    <path
       id="path218"
       d="M 0,0 C 0.463,0.153 0.867,0.236 1.205,0.432 1.301,0.488 1.29,1.017 1.182,1.081 0.849,1.275 0.446,1.349 0,1.492 Z m -0.016,-2.016 h -0.747 v 4.012 c 0.423,0 0.849,0.01 1.274,-0.003 C 1.126,1.975 1.749,1.87 1.977,1.214 2.195,0.583 2.056,-0.011 1.35,-0.381 1.64,-0.932 1.909,-1.444 2.181,-1.961 1.62,-2.185 1.37,-1.964 1.108,-1.522 0.87,-1.119 0.886,-0.341 -0.016,-0.556 Z"
       style="fill:#0e121a;fill-opacity:1;fill-rule:nonzero;stroke:none"
       transform="matrix(1.3333333,0,0,-1.3333333,4933.436,1105.9857)"
       clip-path="url(#clipPath219)" />
  </g>
</svg>
