<!-- Created with Inkscape (http://www.inkscape.org/) -->

<svg
   version="1.1"
   id="svg1"
   width="346.05029"
   height="69.774414"
   viewBox="0 0 346.05029 69.774414"
   xmlns="http://www.w3.org/2000/svg"
   xmlns:svg="http://www.w3.org/2000/svg">
  <defs
     id="defs1">
    <clipPath
       clipPathUnits="userSpaceOnUse"
       id="clipPath109">
      <path
         d="M 0,1920 H 1080 V 0 H 0 Z"
         transform="translate(-161.95418,-192.8112)"
         id="path109" />
    </clipPath>
    <clipPath
       clipPathUnits="userSpaceOnUse"
       id="clipPath111">
      <path
         d="M 0,1920 H 1080 V 0 H 0 Z"
         transform="translate(-199.62863,-203.98928)"
         id="path111" />
    </clipPath>
    <clipPath
       clipPathUnits="userSpaceOnUse"
       id="clipPath113">
      <path
         d="M 0,1920 H 1080 V 0 H 0 Z"
         transform="translate(-219.95588,-200.63558)"
         id="path113" />
    </clipPath>
    <clipPath
       clipPathUnits="userSpaceOnUse"
       id="clipPath115">
      <path
         d="M 0,1920 H 1080 V 0 H 0 Z"
         transform="translate(-237.55081,-208.91603)"
         id="path115" />
    </clipPath>
    <clipPath
       clipPathUnits="userSpaceOnUse"
       id="clipPath117">
      <path
         d="M 0,1920 H 1080 V 0 H 0 Z"
         transform="translate(-260.94211,-185.856)"
         id="path117" />
    </clipPath>
    <clipPath
       clipPathUnits="userSpaceOnUse"
       id="clipPath119">
      <path
         d="M 0,1920 H 1080 V 0 H 0 Z"
         transform="translate(-293.52458,-196.12313)"
         id="path119" />
    </clipPath>
    <clipPath
       clipPathUnits="userSpaceOnUse"
       id="clipPath121">
      <path
         d="M 0,1920 H 1080 V 0 H 0 Z"
         transform="translate(-299.81723,-200.63558)"
         id="path121" />
    </clipPath>
    <clipPath
       clipPathUnits="userSpaceOnUse"
       id="clipPath123">
      <path
         d="M 0,1920 H 1080 V 0 H 0 Z"
         transform="translate(-322.29781,-203.90671)"
         id="path123" />
    </clipPath>
    <clipPath
       clipPathUnits="userSpaceOnUse"
       id="clipPath125">
      <path
         d="M 0,1920 H 1080 V 0 H 0 Z"
         transform="translate(-339.06458,-192.8112)"
         id="path125" />
    </clipPath>
    <clipPath
       clipPathUnits="userSpaceOnUse"
       id="clipPath127">
      <path
         d="M 0,1920 H 1080 V 0 H 0 Z"
         transform="translate(-376.73851,-203.98928)"
         id="path127" />
    </clipPath>
    <clipPath
       clipPathUnits="userSpaceOnUse"
       id="clipPath129">
      <path
         d="M 0,1920 H 1080 V 0 H 0 Z"
         transform="translate(-400.37791,-185.856)"
         id="path129" />
    </clipPath>
  </defs>
  <g
     id="layer-MC0"
     transform="translate(-4589.812,-2278.7959)">
    <path
       id="path108"
       d="m 0,0 c -0.138,-0.194 -0.38,-0.4 -0.725,-0.621 -0.345,-0.222 -0.765,-0.331 -1.262,-0.331 -0.663,0 -1.263,0.234 -1.801,0.704 -0.538,0.468 -0.807,1.103 -0.807,1.904 0,0.331 0.076,0.655 0.227,0.973 0.152,0.317 0.311,0.627 0.476,0.931 1.05,1.712 1.981,3.202 2.795,4.471 0.814,1.269 1.607,2.526 2.38,3.768 0.415,0.662 0.897,1.09 1.449,1.284 0.552,0.192 1.063,0.289 1.532,0.289 0.746,0 1.311,-0.193 1.698,-0.58 0.386,-0.386 0.717,-0.938 0.993,-1.655 0.635,0.413 1.263,0.751 1.884,1.014 0.621,0.262 1.442,0.393 2.464,0.393 1.269,0 2.338,-0.283 3.208,-0.848 0.869,-0.567 1.621,-1.277 2.256,-2.133 0.635,-0.856 1.215,-1.774 1.739,-2.753 0.524,-0.98 1.062,-1.898 1.615,-2.753 0.552,-0.856 1.18,-1.567 1.883,-2.132 0.704,-0.566 1.567,-0.849 2.588,-0.849 0.441,0 0.89,0.117 1.346,0.352 0.455,0.235 0.875,0.51 1.262,0.828 0.387,0.317 0.731,0.621 1.035,0.911 0.304,0.29 0.539,0.49 0.704,0.6 0.166,0.111 0.4,0.207 0.704,0.29 0.303,0.083 0.565,0.125 0.786,0.125 0.635,0 1.228,-0.222 1.781,-0.663 0.551,-0.442 0.828,-1.063 0.828,-1.863 0,-0.553 -0.152,-1.05 -0.456,-1.491 -1.076,-1.407 -2.359,-2.47 -3.85,-3.188 -1.49,-0.717 -2.926,-1.076 -4.306,-1.076 -1.407,0 -2.656,0.283 -3.746,0.849 -1.091,0.565 -2.064,1.276 -2.919,2.132 -0.856,0.855 -1.601,1.78 -2.236,2.774 -0.635,0.993 -1.207,1.918 -1.718,2.774 -0.511,0.855 -0.966,1.566 -1.366,2.132 -0.4,0.565 -0.78,0.849 -1.138,0.849 -0.277,0 -0.656,-0.125 -1.139,-0.373 C 9.681,6.789 9.197,6.465 8.715,6.065 8.232,5.665 7.818,5.209 7.473,4.699 7.127,4.188 6.955,3.67 6.955,3.146 v -7.39 c 0,-2.249 -0.007,-4.347 -0.02,-6.292 -0.015,-1.947 -0.021,-3.789 -0.021,-5.527 0,-1.739 -0.007,-3.457 -0.021,-5.155 -0.014,-1.697 -0.02,-3.408 -0.02,-5.134 v -5.485 c 0,-0.69 -0.235,-1.263 -0.704,-1.718 -0.47,-0.456 -1.229,-0.684 -2.277,-0.684 -0.525,0 -0.932,0.098 -1.222,0.291 -0.29,0.193 -0.511,0.448 -0.662,0.766 -0.152,0.317 -0.242,0.682 -0.269,1.096 -0.028,0.415 -0.041,0.843 -0.041,1.284 0,4.168 0.027,8.411 0.082,12.731 0.055,4.319 0.083,8.659 0.083,13.02 0,1.352 -0.007,2.697 -0.021,4.037 C 1.828,0.324 1.822,1.656 1.822,2.981 1.573,2.539 1.283,2.029 0.952,1.449 0.621,0.869 0.303,0.386 0,0"
       style="fill:#0e121a;fill-opacity:1;fill-rule:nonzero;stroke:none"
       transform="matrix(1.3333333,0,0,-1.3333333,4595.9389,2302.9184)"
       clip-path="url(#clipPath109)" />
    <path
       id="path110"
       d="m 0,0 c -0.497,0 -0.904,-0.138 -1.221,-0.414 -0.318,-0.276 -0.567,-0.615 -0.746,-1.014 -0.179,-0.401 -0.304,-0.828 -0.372,-1.284 -0.07,-0.455 -0.104,-0.876 -0.104,-1.262 0,-0.58 0.09,-1.139 0.269,-1.677 0.18,-0.538 0.414,-1.015 0.704,-1.429 0.29,-0.413 0.635,-0.739 1.035,-0.973 0.4,-0.234 0.835,-0.351 1.304,-0.351 0.746,0 1.318,0.289 1.719,0.869 0.399,0.58 0.6,1.186 0.6,1.822 0,0.358 -0.049,0.862 -0.145,1.511 C 2.946,-3.554 2.78,-2.919 2.546,-2.298 2.311,-1.677 1.987,-1.139 1.573,-0.683 1.159,-0.228 0.635,0 0,0 m 0.869,-13.538 c -0.414,0 -0.883,0.076 -1.407,0.228 -0.525,0.151 -1.05,0.351 -1.573,0.6 -0.525,0.248 -1.022,0.538 -1.491,0.869 -0.47,0.331 -0.856,0.69 -1.159,1.077 -0.331,-0.387 -0.718,-0.711 -1.159,-0.973 -0.442,-0.263 -0.884,-0.393 -1.325,-0.393 -0.386,0 -0.745,0.089 -1.077,0.269 -0.331,0.179 -0.606,0.4 -0.828,0.662 -0.22,0.262 -0.393,0.538 -0.517,0.828 -0.124,0.29 -0.186,0.559 -0.186,0.807 0,0.386 0.076,0.752 0.227,1.098 0.152,0.344 0.346,0.676 0.58,0.993 0.235,0.317 0.483,0.621 0.745,0.911 0.263,0.29 0.518,0.586 0.766,0.89 0,0.359 -0.021,0.621 -0.062,0.787 -0.041,0.165 -0.062,0.469 -0.062,0.911 0,1.159 0.173,2.283 0.517,3.373 0.345,1.09 0.849,2.056 1.511,2.899 0.663,0.841 1.47,1.524 2.422,2.049 0.952,0.524 2.036,0.787 3.25,0.787 1.297,0 2.457,-0.332 3.478,-0.994 C 4.54,3.478 5.409,2.622 6.127,1.573 6.845,0.524 7.396,-0.642 7.783,-1.925 8.169,-3.209 8.363,-4.471 8.363,-5.713 8.363,-6.349 8.328,-6.79 8.259,-7.038 8.19,-7.287 8.128,-7.549 8.073,-7.825 c 0.138,-0.359 0.338,-0.669 0.6,-0.932 0.262,-0.262 0.552,-0.475 0.87,-0.641 0.317,-0.166 0.627,-0.29 0.931,-0.373 0.304,-0.082 0.58,-0.124 0.828,-0.124 0.635,0 1.139,0.221 1.511,0.663 0.373,0.441 0.766,0.869 1.18,1.283 0.276,0.276 0.573,0.503 0.89,0.683 0.317,0.179 0.711,0.269 1.18,0.269 0.69,0 1.297,-0.235 1.822,-0.703 0.524,-0.47 0.787,-1.063 0.787,-1.781 0,-0.387 -0.077,-0.752 -0.228,-1.097 -0.152,-0.345 -0.339,-0.669 -0.559,-0.973 -0.331,-0.442 -0.739,-0.869 -1.221,-1.283 -0.483,-0.414 -1.015,-0.787 -1.594,-1.118 -0.58,-0.331 -1.187,-0.594 -1.822,-0.787 -0.635,-0.193 -1.283,-0.29 -1.946,-0.29 -0.552,0 -1.132,0.097 -1.739,0.29 -0.607,0.193 -1.2,0.435 -1.78,0.725 -0.579,0.289 -1.125,0.607 -1.635,0.952 -0.511,0.345 -0.932,0.669 -1.263,0.973 -0.552,-0.387 -1.118,-0.725 -1.697,-1.014 -0.58,-0.29 -1.353,-0.435 -2.319,-0.435"
       style="fill:#0e121a;fill-opacity:1;fill-rule:nonzero;stroke:none"
       transform="matrix(1.3333333,0,0,-1.3333333,4646.1715,2288.0143)"
       clip-path="url(#clipPath111)" />
    <path
       id="path112"
       d="m 0,0 c 0,-0.469 -0.062,-1.187 -0.186,-2.152 -0.124,-0.967 -0.346,-1.94 -0.663,-2.919 -0.317,-0.981 -0.752,-1.843 -1.304,-2.588 -0.552,-0.745 -1.242,-1.118 -2.07,-1.118 -0.469,0 -0.869,0.083 -1.201,0.249 -0.331,0.165 -0.6,0.379 -0.807,0.641 -0.207,0.262 -0.358,0.545 -0.455,0.849 -0.097,0.304 -0.145,0.593 -0.145,0.869 0,0.441 0.062,0.829 0.186,1.16 0.124,0.331 0.269,0.648 0.435,0.952 0.414,0.717 0.69,1.455 0.828,2.215 0.138,0.759 0.207,1.538 0.207,2.339 0,0.303 -0.041,0.662 -0.124,1.077 -0.083,0.413 -0.179,0.848 -0.29,1.304 -0.11,0.455 -0.207,0.903 -0.29,1.345 -0.083,0.441 -0.124,0.855 -0.124,1.242 0,0.524 0.11,0.959 0.331,1.304 0.221,0.345 0.635,0.518 1.242,0.518 1.077,0 2.146,-0.104 3.209,-0.311 1.062,-0.207 2.173,-0.31 3.332,-0.31 0.524,0 0.973,0.068 1.346,0.207 0.373,0.137 0.731,0.282 1.076,0.434 0.345,0.152 0.731,0.297 1.16,0.435 0.427,0.138 0.973,0.207 1.635,0.207 1.6,0 2.401,-0.856 2.401,-2.567 C 9.729,4.83 9.715,4.209 9.688,3.519 9.66,2.829 9.626,2.118 9.584,1.387 9.543,0.656 9.508,-0.056 9.481,-0.745 9.453,-1.435 9.44,-2.056 9.44,-2.608 c 0,-1.325 0.137,-2.332 0.413,-3.022 0.276,-0.691 0.759,-1.036 1.45,-1.036 0.772,0 1.793,0.718 3.063,2.153 0.303,0.331 0.628,0.559 0.973,0.684 0.345,0.124 0.683,0.186 1.014,0.186 0.718,0 1.332,-0.242 1.843,-0.724 0.51,-0.484 0.766,-1.084 0.766,-1.802 0,-0.441 -0.083,-0.821 -0.249,-1.138 -0.166,-0.318 -0.455,-0.697 -0.869,-1.139 -1.242,-1.352 -2.416,-2.25 -3.519,-2.691 -1.105,-0.441 -2.112,-0.662 -3.022,-0.662 -1.215,0 -2.264,0.221 -3.147,0.662 -0.884,0.441 -1.615,1.063 -2.194,1.864 -0.58,0.8 -1.008,1.765 -1.284,2.898 -0.276,1.131 -0.414,2.386 -0.414,3.767 0,0.883 0.027,1.642 0.083,2.277 C 4.402,0.303 4.443,1.035 4.471,1.863 4.14,1.781 3.822,1.698 3.519,1.615 3.215,1.532 2.87,1.49 2.484,1.49 2.07,1.49 1.642,1.511 1.201,1.553 0.759,1.594 0.358,1.656 0,1.739 Z"
       style="fill:#0e121a;fill-opacity:1;fill-rule:nonzero;stroke:none"
       transform="matrix(1.3333333,0,0,-1.3333333,4673.2745,2292.4859)"
       clip-path="url(#clipPath113)" />
    <path
       id="path114"
       d="m 0,0 c 0.221,0.469 0.538,0.89 0.952,1.263 0.414,0.372 1.021,0.614 1.822,0.724 0.524,0 0.994,-0.104 1.408,-0.31 C 4.595,1.47 4.947,1.207 5.237,0.89 5.527,0.573 5.755,0.228 5.92,-0.145 6.086,-0.517 6.169,-0.856 6.169,-1.159 6.169,-1.96 5.906,-2.685 5.382,-3.333 4.858,-3.982 4.071,-4.306 3.022,-4.306 c -0.387,0 -0.78,0.069 -1.18,0.207 -0.4,0.138 -0.766,0.332 -1.097,0.58 -0.331,0.248 -0.6,0.551 -0.807,0.911 -0.207,0.358 -0.311,0.758 -0.311,1.2 0,0.249 0.028,0.483 0.083,0.704 0.055,0.22 0.151,0.456 0.29,0.704 m 0.787,-16.146 c -0.277,-0.305 -0.566,-0.539 -0.87,-0.704 -0.304,-0.166 -0.69,-0.248 -1.159,-0.248 -0.441,0 -0.828,0.082 -1.159,0.248 -0.331,0.165 -0.6,0.379 -0.808,0.641 -0.207,0.263 -0.365,0.545 -0.476,0.849 -0.11,0.304 -0.165,0.594 -0.165,0.87 0,0.441 0.097,0.849 0.289,1.221 0.194,0.373 0.415,0.724 0.663,1.055 0.248,0.332 0.47,0.656 0.662,0.973 0.194,0.318 0.29,0.642 0.29,0.973 0,0.829 0.214,1.47 0.642,1.926 0.427,0.455 1.165,0.683 2.215,0.683 0.441,0 0.855,-0.111 1.242,-0.331 0.386,-0.222 0.689,-0.608 0.911,-1.16 0.303,-0.773 0.676,-1.601 1.118,-2.484 0.441,-0.884 0.924,-1.697 1.449,-2.442 0.523,-0.745 1.096,-1.367 1.718,-1.864 0.621,-0.496 1.262,-0.745 1.925,-0.745 0.469,0 0.917,0.138 1.345,0.414 0.428,0.276 0.835,0.607 1.222,0.994 0.386,0.386 0.745,0.793 1.076,1.221 0.331,0.428 0.621,0.808 0.87,1.139 0.303,0.386 0.648,0.648 1.034,0.787 0.387,0.137 0.731,0.207 1.035,0.207 0.663,0 1.263,-0.235 1.801,-0.704 0.539,-0.47 0.808,-1.063 0.808,-1.78 0,-0.249 -0.049,-0.546 -0.145,-0.891 -0.097,-0.345 -0.269,-0.683 -0.518,-1.014 -0.414,-0.607 -0.973,-1.236 -1.676,-1.884 -0.704,-0.649 -1.457,-1.242 -2.257,-1.78 -0.801,-0.538 -1.608,-0.979 -2.422,-1.325 -0.814,-0.344 -1.552,-0.517 -2.215,-0.517 -1.656,0 -3.195,0.49 -4.616,1.469 -1.422,0.98 -2.698,2.381 -3.829,4.203"
       style="fill:#0e121a;fill-opacity:1;fill-rule:nonzero;stroke:none"
       transform="matrix(1.3333333,0,0,-1.3333333,4696.7344,2281.4453)"
       clip-path="url(#clipPath115)" />
    <path
       id="path116"
       d="M 0,0 C 0.414,0.028 0.772,0.152 1.077,0.372 1.38,0.594 1.649,0.855 1.884,1.159 2.118,1.463 2.298,1.787 2.422,2.132 2.546,2.477 2.635,2.801 2.691,3.105 2.36,3.049 1.994,2.96 1.594,2.836 1.194,2.711 0.807,2.54 0.435,2.318 0.062,2.097 -0.263,1.821 -0.538,1.49 -0.814,1.159 -0.98,0.759 -1.035,0.29 -0.98,0.124 -0.835,0.034 -0.6,0.021 -0.366,0.007 -0.165,0 0,0 M 1.449,14.821 C 1.118,14.517 0.71,14.118 0.228,13.621 -0.256,13.124 -0.759,12.585 -1.283,12.006 -1.808,11.426 -2.333,10.826 -2.857,10.205 -3.381,9.584 -3.865,9.011 -4.306,8.487 -4.554,8.183 -4.796,7.879 -5.03,7.576 -5.265,7.272 -5.5,7.003 -5.734,6.769 -5.969,6.534 -6.231,6.348 -6.521,6.21 -6.81,6.071 -7.149,6.003 -7.535,6.003 c -0.69,0 -1.297,0.234 -1.822,0.704 -0.523,0.469 -0.786,1.103 -0.786,1.904 0,0.441 0.097,0.821 0.29,1.139 0.193,0.316 0.428,0.642 0.703,0.973 0.939,1.186 1.884,2.318 2.836,3.395 0.953,1.076 1.849,2.034 2.692,2.877 0.841,0.841 1.621,1.538 2.339,2.091 0.717,0.551 1.324,0.896 1.821,1.034 0.249,0.056 0.511,0.097 0.787,0.124 0.275,0.028 0.524,0.042 0.745,0.042 1.109,0 2.047,-0.338 2.811,-1.014 0.765,-0.677 1.377,-1.553 1.836,-2.629 0.46,-1.076 0.793,-2.277 1.002,-3.602 0.208,-1.325 0.313,-2.649 0.313,-3.975 0.248,0 0.552,0.035 0.91,0.104 0.359,0.069 0.739,0.172 1.139,0.311 0.4,0.137 0.793,0.303 1.18,0.496 0.386,0.193 0.745,0.415 1.076,0.663 0.304,0.22 0.586,0.358 0.849,0.414 0.262,0.055 0.503,0.083 0.725,0.083 0.662,0 1.262,-0.228 1.801,-0.683 0.538,-0.456 0.807,-1.07 0.807,-1.843 0,-0.442 -0.111,-0.869 -0.331,-1.283 C 15.967,6.914 15.663,6.596 15.277,6.375 14.78,6.099 14.227,5.823 13.621,5.547 13.013,5.271 12.385,5.023 11.737,4.802 11.088,4.581 10.447,4.388 9.812,4.223 9.177,4.057 8.584,3.946 8.032,3.891 8.004,2.953 7.823,1.953 7.49,0.89 7.156,-0.172 6.662,-1.145 6.008,-2.029 5.354,-2.912 4.541,-3.65 3.57,-4.243 2.597,-4.837 1.449,-5.134 0.124,-5.134 c -0.442,0 -1.021,0.083 -1.739,0.249 -0.718,0.165 -1.414,0.455 -2.09,0.869 -0.677,0.414 -1.263,0.966 -1.76,1.656 -0.497,0.69 -0.745,1.546 -0.745,2.567 0,0.993 0.221,1.953 0.662,2.877 0.441,0.924 1.056,1.753 1.843,2.484 0.786,0.731 1.718,1.332 2.794,1.801 1.077,0.469 2.263,0.759 3.561,0.87 0.027,0.109 0.041,0.241 0.041,0.393 v 0.434 c 0,0.718 -0.056,1.415 -0.166,2.091 -0.11,0.676 -0.234,1.276 -0.372,1.801 -0.139,0.524 -0.276,0.952 -0.414,1.283 -0.139,0.332 -0.235,0.524 -0.29,0.58"
       style="fill:#0e121a;fill-opacity:1;fill-rule:nonzero;stroke:none"
       transform="matrix(1.3333333,0,0,-1.3333333,4727.9228,2312.192)"
       clip-path="url(#clipPath117)" />
    <path
       id="path118"
       d="m 0,0 c 0.138,0.193 0.4,0.386 0.787,0.579 0.386,0.193 0.8,0.291 1.242,0.291 0.8,0 1.428,-0.263 1.884,-0.787 0.454,-0.525 0.682,-1.104 0.682,-1.739 0,-0.221 -0.048,-0.497 -0.144,-0.828 C 4.354,-2.815 4.25,-3.063 4.14,-3.229 3.643,-3.892 2.967,-4.554 2.111,-5.216 1.255,-5.879 0.29,-6.473 -0.786,-6.997 -1.863,-7.521 -2.995,-7.949 -4.181,-8.28 c -1.188,-0.331 -2.347,-0.497 -3.478,-0.497 -2.181,0 -3.989,0.538 -5.423,1.615 -1.436,1.076 -2.568,2.456 -3.396,4.14 -0.138,-0.193 -0.372,-0.449 -0.704,-0.766 -0.331,-0.318 -0.842,-0.476 -1.531,-0.476 -0.497,0 -0.918,0.096 -1.263,0.29 -0.345,0.192 -0.614,0.42 -0.807,0.683 -0.193,0.261 -0.331,0.544 -0.414,0.848 -0.083,0.304 -0.124,0.58 -0.124,0.829 0,0.331 0.089,0.703 0.269,1.117 0.179,0.414 0.407,0.835 0.683,1.263 0.276,0.427 0.559,0.841 0.848,1.242 0.29,0.4 0.546,0.766 0.766,1.097 0.524,0.911 1.042,1.877 1.553,2.898 0.51,1.021 1.104,1.96 1.78,2.816 0.676,0.854 1.484,1.566 2.422,2.131 0.938,0.566 2.098,0.849 3.478,0.849 0.828,0 1.656,-0.165 2.484,-0.496 0.828,-0.332 1.573,-0.76 2.235,-1.284 0.663,-0.525 1.201,-1.118 1.616,-1.78 0.413,-0.662 0.62,-1.325 0.62,-1.988 0,-0.358 -0.062,-0.731 -0.186,-1.117 C -2.877,4.747 -3.057,4.395 -3.291,4.078 -3.526,3.76 -3.788,3.498 -4.078,3.291 -4.368,3.085 -4.678,2.981 -5.01,2.981 -5.7,2.953 -6.217,3.126 -6.562,3.498 -6.908,3.871 -7.191,4.209 -7.411,4.513 -7.55,4.705 -7.68,4.92 -7.804,5.154 c -0.124,0.235 -0.269,0.462 -0.435,0.684 -0.166,0.22 -0.358,0.406 -0.58,0.558 -0.221,0.152 -0.469,0.228 -0.744,0.228 -0.442,0 -0.836,-0.124 -1.18,-0.373 -0.346,-0.248 -0.642,-0.579 -0.89,-0.993 -0.249,-0.414 -0.443,-0.884 -0.581,-1.408 -0.137,-0.524 -0.206,-1.063 -0.206,-1.614 0,-1.767 0.44,-3.188 1.325,-4.265 0.882,-1.076 2.028,-1.614 3.436,-1.614 0.8,0 1.614,0.145 2.443,0.434 0.827,0.29 1.593,0.628 2.298,1.015 0.703,0.386 1.31,0.786 1.821,1.2 C -0.587,-0.579 -0.221,-0.248 0,0"
       style="fill:#0e121a;fill-opacity:1;fill-rule:nonzero;stroke:none"
       transform="matrix(1.3333333,0,0,-1.3333333,4771.3661,2298.5025)"
       clip-path="url(#clipPath119)" />
    <path
       id="path120"
       d="m 0,0 c 0,-0.469 -0.062,-1.187 -0.186,-2.152 -0.124,-0.967 -0.346,-1.94 -0.662,-2.919 -0.318,-0.981 -0.753,-1.843 -1.305,-2.588 -0.552,-0.745 -1.242,-1.118 -2.07,-1.118 -0.469,0 -0.869,0.083 -1.201,0.249 -0.331,0.165 -0.6,0.379 -0.807,0.641 -0.207,0.262 -0.358,0.545 -0.455,0.849 -0.097,0.304 -0.145,0.593 -0.145,0.869 0,0.441 0.062,0.829 0.186,1.16 0.125,0.331 0.269,0.648 0.435,0.952 0.414,0.717 0.69,1.455 0.828,2.215 0.139,0.759 0.207,1.538 0.207,2.339 0,0.303 -0.041,0.662 -0.124,1.077 -0.083,0.413 -0.18,0.848 -0.29,1.304 -0.11,0.455 -0.207,0.903 -0.29,1.345 -0.083,0.441 -0.124,0.855 -0.124,1.242 0,0.524 0.111,0.959 0.331,1.304 0.221,0.345 0.636,0.518 1.242,0.518 1.077,0 2.146,-0.104 3.209,-0.311 1.062,-0.207 2.173,-0.31 3.333,-0.31 0.523,0 0.973,0.068 1.345,0.207 0.373,0.137 0.731,0.282 1.076,0.434 0.345,0.152 0.732,0.297 1.16,0.435 0.427,0.138 0.973,0.207 1.635,0.207 1.6,0 2.401,-0.856 2.401,-2.567 C 9.729,4.83 9.715,4.209 9.688,3.519 9.66,2.829 9.626,2.118 9.584,1.387 9.543,0.656 9.508,-0.056 9.481,-0.745 9.453,-1.435 9.439,-2.056 9.439,-2.608 c 0,-1.325 0.138,-2.332 0.414,-3.022 0.276,-0.691 0.759,-1.036 1.45,-1.036 0.772,0 1.793,0.718 3.063,2.153 0.303,0.331 0.628,0.559 0.973,0.684 0.345,0.124 0.683,0.186 1.014,0.186 0.718,0 1.332,-0.242 1.843,-0.724 0.51,-0.484 0.766,-1.084 0.766,-1.802 0,-0.441 -0.084,-0.821 -0.249,-1.138 -0.166,-0.318 -0.455,-0.697 -0.869,-1.139 -1.242,-1.352 -2.416,-2.25 -3.519,-2.691 -1.105,-0.441 -2.111,-0.662 -3.022,-0.662 -1.215,0 -2.264,0.221 -3.147,0.662 -0.884,0.441 -1.614,1.063 -2.194,1.864 -0.58,0.8 -1.008,1.765 -1.284,2.898 -0.276,1.131 -0.414,2.386 -0.414,3.767 0,0.883 0.028,1.642 0.083,2.277 C 4.402,0.303 4.444,1.035 4.471,1.863 4.14,1.781 3.822,1.698 3.519,1.615 3.215,1.532 2.87,1.49 2.484,1.49 2.07,1.49 1.642,1.511 1.201,1.553 0.759,1.594 0.359,1.656 0,1.739 Z"
       style="fill:#0e121a;fill-opacity:1;fill-rule:nonzero;stroke:none"
       transform="matrix(1.3333333,0,0,-1.3333333,4779.7563,2292.4859)"
       clip-path="url(#clipPath121)" />
    <path
       id="path122"
       d="m 0,0 c -0.608,0 -1.146,-0.235 -1.615,-0.704 -0.469,-0.47 -0.863,-1.035 -1.18,-1.697 -0.317,-0.663 -0.552,-1.346 -0.703,-2.05 -0.152,-0.703 -0.228,-1.29 -0.228,-1.76 0.386,0.221 0.848,0.545 1.387,0.973 0.538,0.428 1.048,0.897 1.532,1.408 0.482,0.511 0.89,1.028 1.221,1.553 0.331,0.524 0.496,0.993 0.496,1.407 0,0.304 -0.096,0.524 -0.289,0.663 C 0.427,-0.069 0.22,0 0,0 M 0,5.133 C 0.855,5.133 1.656,4.981 2.401,4.678 3.147,4.374 3.788,3.96 4.326,3.436 4.864,2.911 5.292,2.277 5.609,1.532 5.927,0.787 6.086,-0.014 6.086,-0.87 6.086,-1.863 5.885,-2.822 5.485,-3.747 5.085,-4.672 4.54,-5.555 3.85,-6.396 3.16,-7.239 2.36,-8.026 1.449,-8.757 c -0.911,-0.731 -1.863,-1.386 -2.857,-1.966 0.386,-0.553 0.938,-0.904 1.656,-1.056 0.718,-0.152 1.491,-0.227 2.319,-0.227 0.772,0 1.594,0.124 2.463,0.372 0.87,0.248 1.759,0.58 2.67,0.994 0.911,0.414 1.815,0.89 2.712,1.428 0.897,0.538 1.76,1.097 2.587,1.677 0.221,0.166 0.484,0.317 0.788,0.455 0.302,0.138 0.62,0.207 0.951,0.207 0.635,0 1.229,-0.235 1.781,-0.703 0.551,-0.47 0.828,-1.091 0.828,-1.864 0,-0.442 -0.07,-0.807 -0.207,-1.097 -0.139,-0.289 -0.331,-0.545 -0.58,-0.766 -0.884,-0.911 -1.857,-1.725 -2.919,-2.442 -1.063,-0.718 -2.194,-1.332 -3.395,-1.843 -1.2,-0.51 -2.449,-0.896 -3.746,-1.159 -1.298,-0.262 -2.608,-0.393 -3.933,-0.393 -1.491,0 -2.912,0.248 -4.265,0.745 -1.352,0.497 -2.553,1.221 -3.602,2.174 -1.048,0.952 -1.883,2.097 -2.504,3.436 -0.621,1.338 -0.932,2.863 -0.932,4.574 0,1.574 0.194,3.05 0.58,4.43 0.387,1.381 0.952,2.581 1.698,3.602 0.745,1.021 1.655,1.829 2.732,2.422 1.076,0.594 2.318,0.89 3.726,0.89"
       style="fill:#0e121a;fill-opacity:1;fill-rule:nonzero;stroke:none"
       transform="matrix(1.3333333,0,0,-1.3333333,4809.7304,2288.1244)"
       clip-path="url(#clipPath123)" />
    <path
       id="path124"
       d="m 0,0 c -0.138,-0.194 -0.38,-0.4 -0.725,-0.621 -0.345,-0.222 -0.765,-0.331 -1.262,-0.331 -0.663,0 -1.263,0.234 -1.801,0.704 -0.538,0.468 -0.808,1.103 -0.808,1.904 0,0.331 0.077,0.655 0.228,0.973 0.152,0.317 0.311,0.627 0.476,0.931 1.049,1.712 1.981,3.202 2.795,4.471 0.814,1.269 1.608,2.526 2.38,3.768 0.414,0.662 0.897,1.09 1.449,1.284 0.552,0.192 1.063,0.289 1.532,0.289 0.745,0 1.311,-0.193 1.698,-0.58 0.386,-0.386 0.717,-0.938 0.993,-1.655 0.635,0.413 1.263,0.751 1.884,1.014 0.621,0.262 1.442,0.393 2.464,0.393 1.269,0 2.338,-0.283 3.208,-0.848 0.869,-0.567 1.621,-1.277 2.256,-2.133 0.635,-0.856 1.214,-1.774 1.739,-2.753 0.524,-0.98 1.062,-1.898 1.615,-2.753 0.551,-0.856 1.18,-1.567 1.883,-2.132 0.704,-0.566 1.567,-0.849 2.588,-0.849 0.441,0 0.89,0.117 1.346,0.352 0.455,0.235 0.876,0.51 1.262,0.828 0.386,0.317 0.731,0.621 1.035,0.911 0.304,0.29 0.538,0.49 0.704,0.6 0.166,0.111 0.4,0.207 0.704,0.29 0.303,0.083 0.565,0.125 0.786,0.125 0.635,0 1.228,-0.222 1.781,-0.663 0.551,-0.442 0.828,-1.063 0.828,-1.863 0,-0.553 -0.152,-1.05 -0.456,-1.491 -1.076,-1.407 -2.36,-2.47 -3.85,-3.188 -1.49,-0.717 -2.926,-1.076 -4.306,-1.076 -1.407,0 -2.656,0.283 -3.746,0.849 -1.091,0.565 -2.064,1.276 -2.919,2.132 -0.856,0.855 -1.601,1.78 -2.236,2.774 C 14.89,2.649 14.318,3.574 13.807,4.43 13.296,5.285 12.841,5.996 12.441,6.562 12.04,7.127 11.661,7.411 11.303,7.411 11.026,7.411 10.646,7.286 10.164,7.038 9.681,6.789 9.197,6.465 8.715,6.065 8.232,5.665 7.817,5.209 7.473,4.699 7.127,4.188 6.955,3.67 6.955,3.146 v -7.39 c 0,-2.249 -0.007,-4.347 -0.02,-6.292 -0.015,-1.947 -0.021,-3.789 -0.021,-5.527 0,-1.739 -0.007,-3.457 -0.021,-5.155 -0.014,-1.697 -0.02,-3.408 -0.02,-5.134 v -5.485 c 0,-0.69 -0.236,-1.263 -0.704,-1.718 -0.47,-0.456 -1.229,-0.684 -2.277,-0.684 -0.525,0 -0.932,0.098 -1.222,0.291 -0.289,0.193 -0.511,0.448 -0.662,0.766 -0.152,0.317 -0.242,0.682 -0.269,1.096 -0.028,0.415 -0.042,0.843 -0.042,1.284 0,4.168 0.028,8.411 0.083,12.731 0.055,4.319 0.083,8.659 0.083,13.02 0,1.352 -0.007,2.697 -0.021,4.037 C 1.828,0.324 1.821,1.656 1.821,2.981 1.573,2.539 1.283,2.029 0.952,1.449 0.621,0.869 0.303,0.386 0,0"
       style="fill:#0e121a;fill-opacity:1;fill-rule:nonzero;stroke:none"
       transform="matrix(1.3333333,0,0,-1.3333333,4832.0861,2302.9184)"
       clip-path="url(#clipPath125)" />
    <path
       id="path126"
       d="m 0,0 c -0.497,0 -0.904,-0.138 -1.221,-0.414 -0.318,-0.276 -0.566,-0.615 -0.746,-1.014 -0.179,-0.401 -0.304,-0.828 -0.372,-1.284 -0.069,-0.455 -0.104,-0.876 -0.104,-1.262 0,-0.58 0.09,-1.139 0.27,-1.677 0.179,-0.538 0.414,-1.015 0.703,-1.429 0.29,-0.413 0.635,-0.739 1.036,-0.973 0.399,-0.234 0.834,-0.351 1.304,-0.351 0.745,0 1.317,0.289 1.718,0.869 0.4,0.58 0.6,1.186 0.6,1.822 0,0.358 -0.048,0.862 -0.145,1.511 -0.097,0.648 -0.262,1.283 -0.496,1.904 -0.236,0.621 -0.56,1.159 -0.973,1.615 C 1.159,-0.228 0.634,0 0,0 m 0.87,-13.538 c -0.415,0 -0.884,0.076 -1.408,0.228 -0.524,0.151 -1.049,0.351 -1.573,0.6 -0.525,0.248 -1.022,0.538 -1.491,0.869 -0.469,0.331 -0.855,0.69 -1.159,1.077 -0.331,-0.387 -0.718,-0.711 -1.159,-0.973 -0.442,-0.263 -0.884,-0.393 -1.325,-0.393 -0.386,0 -0.745,0.089 -1.076,0.269 -0.332,0.179 -0.607,0.4 -0.829,0.662 -0.22,0.262 -0.393,0.538 -0.517,0.828 -0.124,0.29 -0.186,0.559 -0.186,0.807 0,0.386 0.076,0.752 0.227,1.098 0.152,0.344 0.346,0.676 0.58,0.993 0.235,0.317 0.483,0.621 0.745,0.911 0.263,0.29 0.518,0.586 0.766,0.89 0,0.359 -0.02,0.621 -0.062,0.787 -0.041,0.165 -0.062,0.469 -0.062,0.911 0,1.159 0.173,2.283 0.517,3.373 0.345,1.09 0.849,2.056 1.512,2.899 0.662,0.841 1.469,1.524 2.421,2.049 0.953,0.524 2.036,0.787 3.25,0.787 1.297,0 2.457,-0.332 3.478,-0.994 C 4.54,3.478 5.409,2.622 6.127,1.573 6.845,0.524 7.396,-0.642 7.784,-1.925 8.17,-3.209 8.363,-4.471 8.363,-5.713 8.363,-6.349 8.328,-6.79 8.26,-7.038 8.19,-7.287 8.128,-7.549 8.073,-7.825 c 0.138,-0.359 0.338,-0.669 0.6,-0.932 0.263,-0.262 0.552,-0.475 0.87,-0.641 0.317,-0.166 0.628,-0.29 0.932,-0.373 0.303,-0.082 0.579,-0.124 0.828,-0.124 0.634,0 1.138,0.221 1.511,0.663 0.372,0.441 0.765,0.869 1.18,1.283 0.275,0.276 0.572,0.503 0.89,0.683 0.317,0.179 0.71,0.269 1.179,0.269 0.69,0 1.298,-0.235 1.822,-0.703 0.524,-0.47 0.787,-1.063 0.787,-1.781 0,-0.387 -0.076,-0.752 -0.228,-1.097 -0.152,-0.345 -0.338,-0.669 -0.559,-0.973 -0.331,-0.442 -0.738,-0.869 -1.221,-1.283 -0.483,-0.414 -1.014,-0.787 -1.594,-1.118 -0.58,-0.331 -1.187,-0.594 -1.822,-0.787 -0.635,-0.193 -1.283,-0.29 -1.945,-0.29 -0.553,0 -1.132,0.097 -1.739,0.29 -0.608,0.193 -1.201,0.435 -1.78,0.725 -0.58,0.289 -1.125,0.607 -1.636,0.952 -0.511,0.345 -0.932,0.669 -1.263,0.973 -0.552,-0.387 -1.117,-0.725 -1.697,-1.014 -0.58,-0.29 -1.353,-0.435 -2.318,-0.435"
       style="fill:#0e121a;fill-opacity:1;fill-rule:nonzero;stroke:none"
       transform="matrix(1.3333333,0,0,-1.3333333,4882.318,2288.0143)"
       clip-path="url(#clipPath127)" />
    <path
       id="path128"
       d="M 0,0 C 0.414,0.028 0.773,0.152 1.077,0.372 1.38,0.594 1.649,0.855 1.884,1.159 2.118,1.463 2.298,1.787 2.422,2.132 2.547,2.477 2.635,2.801 2.691,3.105 2.36,3.049 1.994,2.96 1.594,2.836 1.194,2.711 0.808,2.54 0.435,2.318 0.062,2.097 -0.262,1.821 -0.538,1.49 -0.814,1.159 -0.98,0.759 -1.035,0.29 -0.98,0.124 -0.835,0.034 -0.6,0.021 -0.366,0.007 -0.165,0 0,0 M 1.449,14.821 C 1.118,14.517 0.711,14.118 0.228,13.621 -0.255,13.124 -0.759,12.585 -1.283,12.006 -1.808,11.426 -2.333,10.826 -2.856,10.205 -3.381,9.584 -3.864,9.011 -4.305,8.487 -4.554,8.183 -4.796,7.879 -5.03,7.576 -5.265,7.272 -5.5,7.003 -5.734,6.769 -5.969,6.534 -6.231,6.348 -6.52,6.21 -6.81,6.071 -7.149,6.003 -7.535,6.003 c -0.689,0 -1.297,0.234 -1.821,0.704 -0.524,0.469 -0.787,1.103 -0.787,1.904 0,0.441 0.097,0.821 0.29,1.139 0.193,0.316 0.428,0.642 0.703,0.973 0.94,1.186 1.884,2.318 2.837,3.395 0.952,1.076 1.849,2.034 2.691,2.877 0.841,0.841 1.621,1.538 2.339,2.091 0.717,0.551 1.325,0.896 1.822,1.034 0.248,0.056 0.51,0.097 0.786,0.124 0.276,0.028 0.524,0.042 0.745,0.042 1.11,0 2.047,-0.338 2.812,-1.014 0.764,-0.677 1.376,-1.553 1.835,-2.629 0.46,-1.076 0.794,-2.277 1.002,-3.602 0.208,-1.325 0.313,-2.649 0.313,-3.975 0.248,0 0.552,0.035 0.911,0.104 0.358,0.069 0.738,0.172 1.138,0.311 0.4,0.137 0.794,0.303 1.18,0.496 0.386,0.193 0.745,0.415 1.076,0.663 0.304,0.22 0.587,0.358 0.849,0.414 0.262,0.055 0.504,0.083 0.725,0.083 0.662,0 1.263,-0.228 1.801,-0.683 0.538,-0.456 0.807,-1.07 0.807,-1.843 0,-0.442 -0.111,-0.869 -0.331,-1.283 C 15.967,6.914 15.663,6.596 15.277,6.375 14.78,6.099 14.228,5.823 13.621,5.547 13.014,5.271 12.386,5.023 11.737,4.802 11.089,4.581 10.447,4.388 9.812,4.223 9.177,4.057 8.584,3.946 8.032,3.891 8.004,2.953 7.824,1.953 7.49,0.89 7.156,-0.172 6.662,-1.145 6.009,-2.029 5.355,-2.912 4.541,-3.65 3.57,-4.243 2.597,-4.837 1.449,-5.134 0.124,-5.134 c -0.441,0 -1.021,0.083 -1.738,0.249 -0.719,0.165 -1.415,0.455 -2.091,0.869 -0.677,0.414 -1.263,0.966 -1.76,1.656 -0.497,0.69 -0.745,1.546 -0.745,2.567 0,0.993 0.221,1.953 0.663,2.877 0.441,0.924 1.055,1.753 1.842,2.484 0.787,0.731 1.718,1.332 2.795,1.801 1.076,0.469 2.262,0.759 3.56,0.87 0.027,0.109 0.041,0.241 0.041,0.393 v 0.434 c 0,0.718 -0.056,1.415 -0.165,2.091 -0.111,0.676 -0.235,1.276 -0.373,1.801 -0.138,0.524 -0.276,0.952 -0.414,1.283 -0.138,0.332 -0.235,0.524 -0.29,0.58"
       style="fill:#0e121a;fill-opacity:1;fill-rule:nonzero;stroke:none"
       transform="matrix(1.3333333,0,0,-1.3333333,4913.8372,2312.192)"
       clip-path="url(#clipPath129)" />
  </g>
</svg>
