<?xml version="1.0" encoding="UTF-8" standalone="no"?>
<!-- Created with Inkscape (http://www.inkscape.org/) -->

<svg
   version="1.1"
   id="svg1"
   width="160.30273"
   height="160.30005"
   viewBox="0 0 160.30273 160.30005"
   xmlns="http://www.w3.org/2000/svg"
   xmlns:svg="http://www.w3.org/2000/svg">
  <defs
     id="defs1">
    <clipPath
       clipPathUnits="userSpaceOnUse"
       id="clipPath131">
      <path
         d="M 0,1920 H 1080 V 0 H 0 Z"
         transform="translate(-813.30325,-147.00248)"
         id="path131" />
    </clipPath>
    <clipPath
       clipPathUnits="userSpaceOnUse"
       id="clipPath133">
      <path
         d="M 0,1920 H 1080 V 0 H 0 Z"
         transform="translate(-813.64442,-125.82458)"
         id="path133" />
    </clipPath>
    <clipPath
       clipPathUnits="userSpaceOnUse"
       id="clipPath135">
      <path
         d="M 0,1920 H 1080 V 0 H 0 Z"
         transform="translate(-825.91052,-194.76788)"
         id="path135" />
    </clipPath>
    <clipPath
       clipPathUnits="userSpaceOnUse"
       id="clipPath137">
      <path
         d="M 0,1920 H 1080 V 0 H 0 Z"
         transform="translate(-777.25854,-208.39613)"
         id="path137" />
    </clipPath>
    <clipPath
       clipPathUnits="userSpaceOnUse"
       id="clipPath139">
      <path
         d="M 0,1920 H 1080 V 0 H 0 Z"
         transform="translate(-792.02439,-227.67113)"
         id="path139" />
    </clipPath>
    <clipPath
       clipPathUnits="userSpaceOnUse"
       id="clipPath141">
      <path
         d="M 0,1920 H 1080 V 0 H 0 Z"
         transform="translate(-802.87015,-237.08978)"
         id="path141" />
    </clipPath>
    <clipPath
       clipPathUnits="userSpaceOnUse"
       id="clipPath143">
      <path
         d="M 0,1920 H 1080 V 0 H 0 Z"
         transform="translate(-816.73255,-228.21458)"
         id="path143" />
    </clipPath>
    <clipPath
       clipPathUnits="userSpaceOnUse"
       id="clipPath145">
      <path
         d="M 0,1920 H 1080 V 0 H 0 Z"
         transform="translate(-836.9197,-220.60853)"
         id="path145" />
    </clipPath>
    <clipPath
       clipPathUnits="userSpaceOnUse"
       id="clipPath147">
      <path
         d="M 0,1920 H 1080 V 0 H 0 Z"
         transform="translate(-843.00962,-215.81671)"
         id="path147" />
    </clipPath>
    <clipPath
       clipPathUnits="userSpaceOnUse"
       id="clipPath149">
      <path
         d="M 0,1920 H 1080 V 0 H 0 Z"
         transform="translate(-768.42662,-170.35358)"
         id="path149" />
    </clipPath>
    <clipPath
       clipPathUnits="userSpaceOnUse"
       id="clipPath151">
      <path
         d="M 0,1920 H 1080 V 0 H 0 Z"
         transform="translate(-771.98364,-157.66808)"
         id="path151" />
    </clipPath>
    <clipPath
       clipPathUnits="userSpaceOnUse"
       id="clipPath153">
      <path
         d="M 0,1920 H 1080 V 0 H 0 Z"
         transform="translate(-785.60064,-141.8127)"
         id="path153" />
    </clipPath>
    <clipPath
       clipPathUnits="userSpaceOnUse"
       id="clipPath155">
      <path
         d="M 0,1920 H 1080 V 0 H 0 Z"
         transform="translate(-789.45392,-134.48633)"
         id="path155" />
    </clipPath>
    <clipPath
       clipPathUnits="userSpaceOnUse"
       id="clipPath157">
      <path
         d="M 0,1920 H 1080 V 0 H 0 Z"
         transform="translate(-807.31952,-130.32383)"
         id="path157" />
    </clipPath>
    <clipPath
       clipPathUnits="userSpaceOnUse"
       id="clipPath159">
      <path
         d="M 0,1920 H 1080 V 0 H 0 Z"
         transform="translate(-823.40905,-141.79253)"
         id="path159" />
    </clipPath>
    <clipPath
       clipPathUnits="userSpaceOnUse"
       id="clipPath161">
      <path
         d="M 0,1920 H 1080 V 0 H 0 Z"
         transform="translate(-835.96292,-141.5796)"
         id="path161" />
    </clipPath>
    <clipPath
       clipPathUnits="userSpaceOnUse"
       id="clipPath163">
      <path
         d="M 0,1920 H 1080 V 0 H 0 Z"
         transform="translate(-850.4584,-143.6544)"
         id="path163" />
    </clipPath>
    <clipPath
       clipPathUnits="userSpaceOnUse"
       id="clipPath165">
      <path
         d="M 0,1920 H 1080 V 0 H 0 Z"
         transform="translate(-855.6448,-148.4901)"
         id="path165" />
    </clipPath>
    <clipPath
       clipPathUnits="userSpaceOnUse"
       id="clipPath167">
      <path
         d="M 0,1920 H 1080 V 0 H 0 Z"
         transform="translate(-864.7192,-164.12438)"
         id="path167" />
    </clipPath>
  </defs>
  <g
     id="layer-MC0"
     transform="translate(-5384.6899,-2233.5325)">
    <path
       id="path130"
       d="m 0,0 c -16.175,0 -30.668,10.252 -36.063,25.51 -7.032,19.885 3.425,41.784 23.31,48.816 4.127,1.459 8.417,2.199 12.753,2.199 16.175,0 30.668,-10.252 36.063,-25.51 C 39.47,41.383 38.921,31 34.518,21.78 30.115,12.559 22.385,5.605 12.753,2.199 8.625,0.74 4.334,0 0,0 m 35.6,21.263 c 4.541,9.51 5.106,20.218 1.593,30.152 C 31.629,67.151 16.682,77.723 0,77.723 -4.474,77.723 -8.899,76.96 -13.152,75.456 -33.661,68.203 -44.446,45.618 -37.194,25.11 -31.629,9.374 -16.682,-1.198 0,-1.198 c 4.473,0 8.898,0.763 13.153,2.267 9.934,3.514 17.906,10.685 22.447,20.194"
       style="fill:#0e121a;fill-opacity:1;fill-rule:nonzero;stroke:none"
       transform="matrix(1.3333333,0,0,-1.3333333,5464.4043,2363.9967)"
       clip-path="url(#clipPath131)" />
    <path
       id="path132"
       d="m 0,0 c -24.905,0 -47.22,15.784 -55.528,39.277 -5.245,14.832 -4.4,30.819 2.379,45.016 6.78,14.197 18.681,24.904 33.513,30.148 6.354,2.247 12.96,3.386 19.636,3.386 24.905,0 47.22,-15.784 55.528,-39.277 C 60.764,63.742 59.91,47.759 53.124,33.546 46.337,19.333 34.444,8.622 19.636,3.386 13.281,1.139 6.675,0 0,0 M 56.658,78.949 C 48.181,102.92 25.412,119.026 0,119.026 c -6.814,0 -13.555,-1.163 -20.036,-3.455 C -35.169,110.22 -47.313,99.295 -54.23,84.81 -61.147,70.324 -62.009,54.012 -56.657,38.878 -48.181,14.907 -25.412,-1.199 0,-1.199 c 6.812,0 13.553,1.162 20.035,3.455 31.241,11.048 47.67,45.453 36.623,76.693"
       style="fill:#0e121a;fill-opacity:1;fill-rule:nonzero;stroke:none"
       transform="matrix(1.3333333,0,0,-1.3333333,5464.8592,2392.2339)"
       clip-path="url(#clipPath133)" />
    <path
       id="path134"
       d="M 0,0 0.721,0.333 0.903,-0.061 0.182,-0.394 Z M -1.513,2.221 -1.968,3.204 C -1.574,3.386 -1.1,3.592 -0.543,3.824 0.014,4.053 0.51,4.271 0.948,4.473 0.878,4.281 0.741,4.085 0.543,3.887 0.343,3.687 0.172,3.398 0.031,3.014 0.223,2.943 0.383,2.938 0.515,3 0.646,3.06 0.778,3.12 0.909,3.181 0.589,2.608 0.214,2.329 -0.216,2.343 -0.647,2.355 -1.079,2.314 -1.513,2.221 m -2.18,-5.798 c -0.192,0.071 -0.316,0.253 -0.372,0.544 -0.055,0.294 -0.047,0.536 0.023,0.728 -0.191,0.07 -0.336,0.095 -0.434,0.077 -0.099,-0.019 -0.212,-0.057 -0.344,-0.119 0.132,0.062 0.355,0.15 0.672,0.271 0.315,0.12 0.706,0.367 1.17,0.74 l 0.465,-1.695 z m -1.405,-9.201 c -0.18,-0.009 -0.334,-0.091 -0.461,-0.245 -0.034,0.098 -0.013,0.242 0.065,0.433 0.078,0.193 0.1,0.338 0.065,0.434 0.133,-0.062 0.281,-0.147 0.447,-0.253 0.164,-0.105 0.265,-0.207 0.299,-0.305 -0.097,-0.034 -0.236,-0.056 -0.415,-0.064 m -1.628,1.505 c -0.366,0.108 -0.766,0.048 -1.196,-0.177 l -0.466,1.315 c 0.181,0.209 0.298,0.37 0.351,0.48 0.052,0.109 0.072,0.208 0.06,0.296 -0.013,0.085 -0.06,0.169 -0.144,0.25 -0.023,0.021 -0.042,0.054 -0.063,0.083 -0.01,0.007 -0.023,0.011 -0.029,0.021 -0.007,0.012 -0.011,0.028 -0.018,0.04 0.014,-0.024 0.031,-0.041 0.047,-0.061 0.064,-0.047 0.203,-0.034 0.428,0.046 0.097,0.034 0.23,0.071 0.399,0.113 0.168,0.041 0.269,0.013 0.303,-0.085 0.058,-0.162 -0.032,-0.349 -0.267,-0.56 -0.236,-0.211 -0.309,-0.446 -0.217,-0.706 0.046,-0.13 0.14,-0.216 0.283,-0.257 0.142,-0.04 0.282,-0.073 0.419,-0.098 0.136,-0.025 0.268,-0.061 0.393,-0.107 0.126,-0.047 0.213,-0.135 0.258,-0.264 l 0.241,-0.682 c -0.155,0.127 -0.415,0.246 -0.782,0.353 m -2.092,3.286 0.173,0.281 0.746,-0.558 -0.241,-0.249 z M 4.104,2.216 4.559,1.233 C 4.191,1.222 3.854,1.318 3.549,1.523 3.242,1.725 2.971,1.852 2.736,1.903 Z M 7.641,4.8 C 8.162,4.445 8.367,4.125 8.262,3.84 8.021,3.844 7.806,3.925 7.619,4.077 7.241,4.375 6.942,4.771 6.713,5.263 7.044,5.059 7.353,4.903 7.641,4.8 M -9.191,-11.35 c -0.046,-0.126 -0.101,-0.255 -0.164,-0.387 0.02,0.044 0.03,0.12 0.028,0.229 0.009,0.076 0.019,0.153 0.029,0.229 0.009,0.076 0.004,0.147 -0.02,0.212 0.131,-0.063 0.174,-0.157 0.127,-0.283 m -1.093,1.311 c -0.081,0.227 -0.235,0.3 -0.462,0.22 -0.162,-0.058 -0.379,-0.216 -0.652,-0.477 -0.273,-0.26 -0.393,-0.439 -0.357,-0.537 -0.033,-0.012 -0.055,-0.002 -0.066,0.031 -0.035,0.098 -0.032,0.189 0.01,0.278 -0.099,0.075 -0.235,0.072 -0.408,-0.007 -0.173,-0.081 -0.379,-0.144 -0.617,-0.191 0.149,0.198 0.339,0.438 0.567,0.721 0.228,0.281 0.473,0.467 0.733,0.56 0.26,0.091 0.516,0.137 0.773,0.136 0.256,-10e-4 0.481,0.034 0.676,0.103 l 0.221,-1.402 c -0.198,0.15 -0.338,0.337 -0.418,0.565 m -1.19,-1.9 -0.104,0.292 0.352,0.399 0.2,-0.257 z m -1.28,-1.492 -0.344,0.043 0.12,0.589 0.278,-0.011 z m -0.8,3.112 c -0.067,-0.17 -0.198,-0.289 -0.393,-0.358 l 0.297,0.708 c 0.132,-0.063 0.164,-0.18 0.096,-0.35 m -0.399,-5.454 c -0.183,-0.101 -0.316,-0.241 -0.401,-0.414 -0.076,0.007 -0.148,0.056 -0.213,0.141 -0.112,0.107 -0.191,0.226 -0.237,0.356 l 1.272,0.121 c -0.097,-0.035 -0.236,-0.102 -0.421,-0.204 m -1.151,0.47 c -0.035,0.097 -0.031,0.243 0.008,0.44 0.04,0.197 0.091,0.361 0.154,0.493 0.066,-0.085 0.128,-0.155 0.184,-0.209 0.055,-0.054 0.108,-0.099 0.158,-0.136 0.049,-0.037 0.085,-0.089 0.108,-0.154 -0.097,-0.033 -0.208,-0.082 -0.332,-0.144 -0.124,-0.063 -0.217,-0.159 -0.28,-0.29 m -1.3,14.91 c -0.27,0.007 -0.469,-0.018 -0.601,-0.079 -0.117,-0.32 -0.065,-0.719 0.158,-1.2 -0.101,0.218 -0.312,0.386 -0.631,0.504 -0.321,0.116 -0.519,0.317 -0.597,0.6 -0.124,0.153 -0.225,0.2 -0.302,0.138 -0.078,-0.063 -0.181,-0.124 -0.313,-0.184 l -0.456,0.983 c 0.132,0.062 0.345,0.119 0.636,0.175 0.294,0.055 0.583,0.229 0.872,0.523 0.122,-0.262 0.121,-0.49 -0.004,-0.679 -0.124,-0.191 -0.125,-0.416 -0.003,-0.679 0.191,-0.07 0.398,-0.001 0.62,0.208 0.221,0.209 0.529,0.404 0.924,0.586 l 0.454,-0.984 c -0.235,0.05 -0.488,0.079 -0.757,0.088 m 0.525,-17.211 -0.327,-0.006 0.111,1.08 0.327,0.006 z m -1.75,-8.284 0.055,0.621 c 0.096,0.034 0.274,0.024 0.53,-0.031 0.257,-0.055 0.451,-0.113 0.584,-0.176 z m 0.093,-1.501 c -0.035,0.097 -0.119,0.232 -0.253,0.404 -0.067,0.085 -0.117,0.177 -0.151,0.274 0.131,-0.063 0.327,-0.103 0.59,-0.119 0.26,-0.018 0.523,-0.088 0.788,-0.214 z m -0.514,-2.263 -0.121,0.341 0.73,0.258 0.121,-0.34 z m 0.191,19.892 c 0.018,-0.103 0.028,-0.209 0.03,-0.318 0.002,-0.109 -0.02,-0.199 -0.069,-0.271 -0.048,-0.071 -0.153,-0.081 -0.317,-0.03 0.063,0.132 0.114,0.296 0.154,0.492 0.04,0.198 0.109,0.313 0.206,0.348 -0.02,-0.045 -0.023,-0.118 -0.004,-0.221 m -0.26,2.208 0.054,0.622 c 0.097,0.034 0.273,0.023 0.531,-0.032 0.257,-0.055 0.451,-0.114 0.583,-0.177 z m 0.278,-0.942 c 0.262,-0.017 0.524,-0.088 0.787,-0.214 l -0.973,-0.345 c -0.035,0.097 -0.118,0.233 -0.252,0.404 -0.067,0.086 -0.118,0.178 -0.152,0.275 0.132,-0.063 0.329,-0.103 0.59,-0.12 m -0.821,-2.48 0.731,0.257 0.121,-0.34 -0.731,-0.259 z m -0.736,-16.417 -0.681,-0.24 -0.064,0.799 0.73,0.258 c 0.034,-0.097 0.063,-0.233 0.089,-0.406 0.025,-0.175 0,-0.312 -0.074,-0.411 m -1.236,18.895 0.731,0.259 c 0.034,-0.098 0.063,-0.234 0.089,-0.407 0.024,-0.175 0,-0.311 -0.075,-0.41 l -0.681,-0.241 z m -0.214,3.705 0.401,0.414 0.201,-0.257 -0.499,-0.45 z m 0.063,12.84 c -0.061,0.13 -0.021,0.388 0.12,0.771 0.141,0.384 0.277,0.606 0.408,0.666 0.06,-0.13 0.053,-0.372 -0.023,-0.726 -0.075,-0.352 -0.243,-0.59 -0.505,-0.711 m 0.515,-10.446 c 0.064,0.023 0.145,0.024 0.244,0.004 0.088,-0.018 0.176,-0.036 0.266,-0.054 0.006,0.006 0.013,0.012 0.02,0.018 0.07,0.061 0.149,0.071 0.237,0.029 -0.054,-0.056 -0.129,-0.073 -0.228,-0.053 l -0.029,0.006 c -0.063,-0.055 -0.125,-0.111 -0.188,-0.165 -0.07,-0.061 -0.135,-0.112 -0.194,-0.15 -0.059,-0.04 -0.112,0.006 -0.157,0.135 -0.046,0.13 -0.037,0.207 0.029,0.23 m -1.07,14.568 c 0.391,0.073 0.841,0.162 1.35,0.266 0.51,0.102 0.926,0.149 1.25,0.139 -0.393,-0.182 -0.847,-0.406 -1.362,-0.67 -0.515,-0.264 -1.013,-0.508 -1.493,-0.73 z m -0.327,-29.439 c -0.061,-0.187 -0.133,-0.476 -0.212,-0.87 -0.035,0.098 -0.033,0.226 0,0.384 0.036,0.158 0.063,0.342 0.081,0.549 0.017,0.207 0.012,0.406 -0.019,0.595 -0.03,0.191 -0.129,0.366 -0.296,0.526 0.23,-0.029 0.364,-0.073 0.403,-0.132 0.04,-0.059 0.06,-0.142 0.062,-0.251 0.05,-0.348 0.044,-0.616 -0.019,-0.801 m -0.577,27.349 c -0.099,0.271 -0.092,0.514 0.023,0.727 0.192,-0.072 0.26,-0.278 0.207,-0.621 -0.053,-0.344 -0.094,-0.601 -0.12,-0.772 0.026,0.171 -0.011,0.393 -0.11,0.666 m 1.05,3.151 c 0.083,0.279 0.096,0.483 0.035,0.615 0.193,-0.072 0.361,-0.18 0.508,-0.323 0.146,-0.145 0.316,-0.252 0.507,-0.324 -0.191,0.072 -0.403,0.039 -0.634,-0.093 -0.23,-0.134 -0.38,-0.295 -0.451,-0.487 -0.06,0.131 -0.048,0.335 0.035,0.612 m 4.403,-9.863 0.819,-1.771 c -0.303,-0.033 -0.615,0.126 -0.939,0.481 -0.323,0.355 -0.61,0.633 -0.863,0.834 z m 0.103,4.425 c 0.148,-0.09 0.187,-0.233 0.117,-0.424 -0.065,0.022 -0.15,0.091 -0.253,0.202 -0.168,0.133 -0.294,0.289 -0.375,0.464 0.193,-0.07 0.362,-0.151 0.511,-0.242 m 4.875,-13.663 c 0.053,0.054 0.166,0.149 0.337,0.283 0.295,-0.005 0.589,-0.093 0.887,-0.261 0.297,-0.169 0.503,-0.362 0.615,-0.577 -0.097,-0.034 -0.257,-0.128 -0.477,-0.279 -0.22,-0.151 -0.476,-0.277 -0.768,-0.381 -0.035,0.098 -0.111,0.18 -0.225,0.249 -0.117,0.069 -0.219,0.233 -0.312,0.493 -0.092,0.259 -0.111,0.417 -0.057,0.473 m -11.919,-4.708 0.003,0.768 0.293,0.103 0.031,-0.865 z m -3.814,-1.842 c -0.035,0.098 -0.119,0.232 -0.253,0.404 -0.067,0.085 -0.118,0.177 -0.151,0.275 0.132,-0.063 0.328,-0.104 0.59,-0.121 0.261,-0.016 0.524,-0.088 0.787,-0.213 z m -0.49,4.936 c -0.075,-0.353 -0.245,-0.591 -0.507,-0.712 -0.06,0.131 -0.021,0.388 0.121,0.772 0.141,0.384 0.278,0.605 0.408,0.667 0.061,-0.131 0.053,-0.374 -0.022,-0.727 m -4.069,-3.553 c 0.013,-0.142 0.135,-0.227 0.364,-0.256 0.055,-0.053 0.089,-0.095 0.1,-0.128 0.023,-0.065 -0.063,-0.131 -0.257,-0.2 -0.261,-0.092 -0.506,-0.143 -0.74,-0.152 -0.234,-0.011 -0.449,-0.049 -0.643,-0.118 l -0.466,1.314 c 0.032,0.12 0.123,0.299 0.276,0.536 0.155,0.236 0.328,0.39 0.523,0.458 0.259,0.093 0.515,0.092 0.767,-0.002 0.253,-0.094 0.493,-0.155 0.723,-0.183 -0.01,-0.076 -0.079,-0.191 -0.207,-0.346 -0.128,-0.156 -0.236,-0.313 -0.325,-0.472 -0.09,-0.16 -0.128,-0.31 -0.115,-0.451 M 0.306,-10.224 13.811,9.83 -8.881,1.805 l -14.984,18.993 0.834,-23.996 -23.152,-8.186 23.11,-7.108 0.707,-24.816 13.967,20.513 23.756,-7.174 z"
       style="fill:#0e121a;fill-opacity:1;fill-rule:nonzero;stroke:none"
       transform="matrix(1.3333333,0,0,-1.3333333,5481.214,2300.3095)"
       clip-path="url(#clipPath135)" />
    <path
       id="path136"
       d="m 0,0 -9.171,7.774 2.349,2.772 7.667,-3.639 -4.861,6.948 2.354,2.778 L 7.509,8.858 6.051,7.138 -1.168,13.258 4.508,5.317 2.996,3.535 -5.761,7.84 1.458,1.72 Z"
       style="fill:#0e121a;fill-opacity:1;fill-rule:nonzero;stroke:none"
       transform="matrix(1.3333333,0,0,-1.3333333,5416.3447,2282.1385)"
       clip-path="url(#clipPath137)" />
    <path
       id="path138"
       d="m 0,0 -3.629,3.078 0.769,-4.685 z m 6.227,-1.958 -2.303,-1.293 -2.253,1.866 -4.19,-2.353 0.472,-2.867 -2.245,-1.261 -1.805,12.775 2.238,1.258 z"
       style="fill:#0e121a;fill-opacity:1;fill-rule:nonzero;stroke:none"
       transform="matrix(1.3333333,0,0,-1.3333333,5436.0325,2256.4385)"
       clip-path="url(#clipPath139)" />
    <path
       id="path140"
       d="m 0,0 1.26,-7.863 1.79,0.287 c 0.669,0.107 1.146,0.222 1.431,0.345 0.373,0.16 0.669,0.376 0.888,0.649 0.22,0.274 0.368,0.689 0.444,1.247 0.077,0.557 0.042,1.295 -0.105,2.213 -0.147,0.918 -0.341,1.609 -0.582,2.075 -0.24,0.465 -0.528,0.812 -0.864,1.041 C 3.926,0.222 3.527,0.349 3.063,0.375 2.716,0.396 2.054,0.329 1.077,0.173 Z M -2.719,1.624 1.662,2.326 C 2.65,2.485 3.415,2.529 3.958,2.461 4.687,2.368 5.342,2.099 5.923,1.655 6.503,1.211 6.984,0.63 7.365,-0.087 7.745,-0.804 8.025,-1.718 8.203,-2.83 8.359,-3.807 8.373,-4.669 8.243,-5.415 8.085,-6.326 7.773,-7.093 7.308,-7.716 6.957,-8.188 6.446,-8.594 5.775,-8.934 5.273,-9.186 4.579,-9.383 3.694,-9.525 l -4.511,-0.722 z"
       style="fill:#0e121a;fill-opacity:1;fill-rule:nonzero;stroke:none"
       transform="matrix(1.3333333,0,0,-1.3333333,5450.4935,2243.8803)"
       clip-path="url(#clipPath141)" />
    <path
       id="path142"
       d="M 0,0 2.299,11.801 11.049,10.096 10.661,8.1 4.293,9.34 3.783,6.724 9.708,5.57 9.321,3.581 3.396,4.736 2.77,1.524 9.363,0.239 8.975,-1.749 Z"
       style="fill:#0e121a;fill-opacity:1;fill-rule:nonzero;stroke:none"
       transform="matrix(1.3333333,0,0,-1.3333333,5468.9767,2255.7139)"
       clip-path="url(#clipPath143)" />
    <path
       id="path144"
       d="M 0,0 7.137,9.675 9.091,8.234 1.953,-1.441 Z"
       style="fill:#0e121a;fill-opacity:1;fill-rule:nonzero;stroke:none"
       transform="matrix(1.3333333,0,0,-1.3333333,5495.8929,2265.8553)"
       clip-path="url(#clipPath145)" />
    <path
       id="path146"
       d="M 0,0 9.218,7.719 10.734,5.908 7.738,-3.019 13.893,2.136 15.341,0.407 6.124,-7.312 4.56,-5.445 7.459,3.305 1.448,-1.729 Z"
       style="fill:#0e121a;fill-opacity:1;fill-rule:nonzero;stroke:none"
       transform="matrix(1.3333333,0,0,-1.3333333,5504.0128,2272.2444)"
       clip-path="url(#clipPath147)" />
    <path
       id="path148"
       d="m 0,0 0.475,-1.844 c 0.309,-1.195 0.552,-1.928 0.729,-2.199 0.178,-0.272 0.412,-0.46 0.703,-0.565 0.29,-0.104 0.62,-0.109 0.991,-0.013 0.415,0.107 0.722,0.304 0.92,0.592 0.198,0.287 0.279,0.642 0.242,1.063 -0.024,0.209 -0.167,0.819 -0.427,1.829 L 3.131,0.808 Z M -7.764,0.655 4.576,3.838 5.929,-1.407 C 6.269,-2.725 6.405,-3.712 6.338,-4.367 6.27,-5.022 5.999,-5.602 5.525,-6.107 5.051,-6.613 4.449,-6.959 3.72,-7.147 2.794,-7.386 1.959,-7.311 1.215,-6.923 c -0.743,0.389 -1.334,1.105 -1.77,2.147 -0.175,-0.619 -0.406,-1.153 -0.691,-1.601 -0.286,-0.447 -0.832,-1.092 -1.638,-1.935 l -2.019,-2.128 -0.768,2.98 2.22,2.494 c 0.795,0.888 1.287,1.481 1.476,1.781 0.189,0.3 0.296,0.594 0.32,0.882 0.025,0.288 -0.037,0.718 -0.184,1.29 l -0.131,0.505 -5.151,-1.329 z"
       style="fill:#0e121a;fill-opacity:1;fill-rule:nonzero;stroke:none"
       transform="matrix(1.3333333,0,0,-1.3333333,5404.5688,2332.8619)"
       clip-path="url(#clipPath149)" />
    <path
       id="path150"
       d="m 0,0 c -1.18,-0.83 -1.883,-1.732 -2.109,-2.706 -0.226,-0.973 -0.043,-1.88 0.547,-2.719 0.59,-0.839 1.377,-1.315 2.359,-1.428 0.983,-0.112 2.079,0.256 3.288,1.106 1.194,0.841 1.901,1.73 2.121,2.667 0.219,0.937 0.023,1.839 -0.587,2.707 C 5.009,0.494 4.22,0.984 3.251,1.097 2.283,1.209 1.199,0.844 0,0 M -1.597,2.119 C -0.535,2.865 0.468,3.333 1.412,3.523 2.109,3.659 2.813,3.671 3.524,3.558 4.234,3.444 4.863,3.215 5.41,2.87 6.142,2.414 6.806,1.762 7.403,0.914 8.484,-0.622 8.871,-2.186 8.567,-3.778 8.263,-5.37 7.262,-6.764 5.565,-7.957 3.883,-9.141 2.244,-9.61 0.65,-9.363 c -1.594,0.246 -2.929,1.135 -4.006,2.666 -1.09,1.55 -1.485,3.115 -1.182,4.695 0.302,1.58 1.282,2.953 2.941,4.121"
       style="fill:#0e121a;fill-opacity:1;fill-rule:nonzero;stroke:none"
       transform="matrix(1.3333333,0,0,-1.3333333,5409.3115,2349.7759)"
       clip-path="url(#clipPath151)" />
    <path
       id="path152"
       d="m 0,0 1.609,-2.064 c -1.102,-0.93 -2.211,-1.422 -3.327,-1.475 -1.115,-0.054 -2.237,0.307 -3.365,1.081 -1.395,0.958 -2.214,2.221 -2.458,3.791 -0.244,1.57 0.201,3.182 1.336,4.835 1.201,1.749 2.584,2.797 4.152,3.145 C -0.486,9.66 1.033,9.329 2.505,8.319 3.79,7.436 4.573,6.34 4.855,5.029 5.024,4.252 4.94,3.361 4.601,2.356 L 2.157,3.296 C 2.407,3.926 2.443,4.534 2.265,5.12 2.087,5.706 1.716,6.192 1.153,6.579 0.374,7.114 -0.45,7.268 -1.319,7.042 -2.187,6.816 -3.051,6.077 -3.911,4.825 -4.823,3.497 -5.233,2.387 -5.142,1.495 c 0.09,-0.892 0.518,-1.6 1.283,-2.125 0.563,-0.387 1.171,-0.541 1.824,-0.461 C -1.383,-1.012 -0.705,-0.648 0,0"
       style="fill:#0e121a;fill-opacity:1;fill-rule:nonzero;stroke:none"
       transform="matrix(1.3333333,0,0,-1.3333333,5427.4675,2370.9164)"
       clip-path="url(#clipPath153)" />
    <path
       id="path154"
       d="M 0,0 3.888,12.137 6.338,11.352 4.612,5.962 11.289,9.766 14.584,8.711 8.5,5.447 10.945,-3.506 7.774,-2.49 6.262,4.274 3.625,2.883 2.451,-0.785 Z"
       style="fill:#0e121a;fill-opacity:1;fill-rule:nonzero;stroke:none"
       transform="matrix(1.3333333,0,0,-1.3333333,5432.6052,2380.6849)"
       clip-path="url(#clipPath155)" />
    <path
       id="path156"
       d="m 0,0 0.35,5.352 -4.176,7.67 3.01,-0.197 L 1.848,7.598 5.109,12.437 8.067,12.244 2.908,5.167 2.559,-0.168 Z"
       style="fill:#0e121a;fill-opacity:1;fill-rule:nonzero;stroke:none"
       transform="matrix(1.3333333,0,0,-1.3333333,5456.426,2386.2349)"
       clip-path="url(#clipPath157)" />
    <path
       id="path158"
       d="m 0,0 0.909,-3.5 1.363,0.354 c 0.982,0.255 1.621,0.49 1.919,0.705 0.297,0.215 0.504,0.484 0.621,0.808 0.116,0.323 0.127,0.667 0.032,1.032 C 4.728,-0.152 4.5,0.184 4.161,0.407 3.821,0.63 3.44,0.726 3.017,0.694 2.705,0.673 2.101,0.546 1.203,0.313 Z M 0.171,-10.895 -3.033,1.44 0.964,2.478 C 2.479,2.871 3.482,3.066 3.974,3.062 4.729,3.06 5.425,2.812 6.063,2.316 6.701,1.82 7.147,1.081 7.402,0.099 7.599,-0.658 7.627,-1.33 7.486,-1.918 7.345,-2.505 7.101,-3.001 6.754,-3.406 6.407,-3.81 6.027,-4.117 5.614,-4.326 5.05,-4.598 4.205,-4.881 3.077,-5.174 l -1.624,-0.421 1.209,-4.653 z"
       style="fill:#0e121a;fill-opacity:1;fill-rule:nonzero;stroke:none"
       transform="matrix(1.3333333,0,0,-1.3333333,5477.8787,2370.9433)"
       clip-path="url(#clipPath159)" />
    <path
       id="path160"
       d="M 0,0 C 0.719,-1.251 1.554,-2.033 2.503,-2.347 3.452,-2.66 4.371,-2.561 5.26,-2.05 6.149,-1.538 6.695,-0.798 6.897,0.17 7.098,1.139 6.831,2.263 6.094,3.545 5.366,4.811 4.546,5.595 3.632,5.899 2.719,6.203 1.803,6.091 0.883,5.562 -0.036,5.033 -0.596,4.292 -0.796,3.338 -0.996,2.384 -0.731,1.271 0,0 m -2.255,-1.397 c -0.647,1.125 -1.022,2.167 -1.125,3.124 -0.072,0.707 -0.02,1.409 0.158,2.106 0.177,0.697 0.463,1.302 0.856,1.816 0.521,0.687 1.231,1.289 2.13,1.807 1.628,0.936 3.221,1.18 4.779,0.732 C 6.1,7.74 7.397,6.616 8.431,4.818 9.456,3.034 9.774,1.36 9.384,-0.205 8.993,-1.77 7.987,-3.019 6.364,-3.952 4.721,-4.897 3.126,-5.147 1.581,-4.702 c -1.547,0.445 -2.825,1.546 -3.836,3.305"
       style="fill:#0e121a;fill-opacity:1;fill-rule:nonzero;stroke:none"
       transform="matrix(1.3333333,0,0,-1.3333333,5494.6172,2371.2272)"
       clip-path="url(#clipPath161)" />
    <path
       id="path162"
       d="M 0,0 -8.589,9.416 -6.687,11.15 1.901,1.734 Z"
       style="fill:#0e121a;fill-opacity:1;fill-rule:nonzero;stroke:none"
       transform="matrix(1.3333333,0,0,-1.3333333,5513.9445,2368.4608)"
       clip-path="url(#clipPath163)" />
    <path
       id="path164"
       d="m 0,0 -10.405,7.359 1.446,2.044 9.96,-0.656 -6.948,4.915 1.381,1.951 L 5.838,8.254 4.347,6.146 -5.405,6.751 1.38,1.952 Z"
       style="fill:#0e121a;fill-opacity:1;fill-rule:nonzero;stroke:none"
       transform="matrix(1.3333333,0,0,-1.3333333,5520.8597,2362.0132)"
       clip-path="url(#clipPath165)" />
    <path
       id="path166"
       d="m 0,0 -9.967,3.573 -1.276,-3.56 -2.03,0.728 3.418,9.533 2.029,-0.727 -1.273,-3.552 9.967,-3.573 z"
       style="fill:#0e121a;fill-opacity:1;fill-rule:nonzero;stroke:none"
       transform="matrix(1.3333333,0,0,-1.3333333,5532.9589,2341.1675)"
       clip-path="url(#clipPath167)" />
  </g>
</svg>
