<?xml version="1.0" encoding="UTF-8" standalone="no"?>
<!-- Created with Inkscape (http://www.inkscape.org/) -->

<svg
   version="1.1"
   id="svg1"
   width="368.29443"
   height="63.975098"
   viewBox="0 0 368.29443 63.975098"
   xmlns="http://www.w3.org/2000/svg"
   xmlns:svg="http://www.w3.org/2000/svg">
  <defs
     id="defs1">
    <clipPath
       clipPathUnits="userSpaceOnUse"
       id="clipPath295">
      <path
         d="M 0,1920 H 1080 V 0 H 0 Z"
         transform="translate(-700.83219,-609.50792)"
         id="path295" />
    </clipPath>
    <clipPath
       clipPathUnits="userSpaceOnUse"
       id="clipPath297">
      <path
         d="M 0,1920 H 1080 V 0 H 0 Z"
         transform="translate(-901.76425,-620.26824)"
         id="path297" />
    </clipPath>
    <clipPath
       clipPathUnits="userSpaceOnUse"
       id="clipPath299">
      <path
         d="M 0,1920 H 1080 V 0 H 0 Z"
         transform="translate(-736.86632,-613.34469)"
         id="path299" />
    </clipPath>
    <clipPath
       clipPathUnits="userSpaceOnUse"
       id="clipPath301">
      <path
         d="M 0,1920 H 1080 V 0 H 0 Z"
         transform="translate(-922.48885,-622.15734)"
         id="path301" />
    </clipPath>
    <clipPath
       clipPathUnits="userSpaceOnUse"
       id="clipPath303">
      <path
         d="M 0,1920 H 1080 V 0 H 0 Z"
         transform="translate(-848.17112,-620.34579)"
         id="path303" />
    </clipPath>
    <clipPath
       clipPathUnits="userSpaceOnUse"
       id="clipPath305">
      <path
         d="M 0,1920 H 1080 V 0 H 0 Z"
         transform="translate(-778.49769,-620.43452)"
         id="path305" />
    </clipPath>
    <clipPath
       clipPathUnits="userSpaceOnUse"
       id="clipPath307">
      <path
         d="M 0,1920 H 1080 V 0 H 0 Z"
         transform="translate(-789.43629,-619.48629)"
         id="path307" />
    </clipPath>
    <clipPath
       clipPathUnits="userSpaceOnUse"
       id="clipPath309">
      <path
         d="M 0,1920 H 1080 V 0 H 0 Z"
         transform="translate(-859.1761,-619.56654)"
         id="path309" />
    </clipPath>
    <clipPath
       clipPathUnits="userSpaceOnUse"
       id="clipPath311">
      <path
         d="M 0,1920 H 1080 V 0 H 0 Z"
         transform="translate(-829.29445,-611.90942)"
         id="path311" />
    </clipPath>
    <clipPath
       clipPathUnits="userSpaceOnUse"
       id="clipPath313">
      <path
         d="M 0,1920 H 1080 V 0 H 0 Z"
         transform="translate(-938.2162,-619.58064)"
         id="path313" />
    </clipPath>
  </defs>
  <g
     id="layer-MC0"
     transform="translate(-5280.6934,-1688.1708)">
    <path
       id="path294"
       d="m 0,0 c 2.009,3.559 2.206,7.05 0.403,10.474 -2.028,3.85 -4.331,7.554 -6.479,11.341 -2.14,3.772 -2.212,7.574 -0.149,11.464 4.219,-7.421 8.372,-14.726 12.627,-22.212 1.46,2.468 2.214,5.073 1.296,7.628 -1.062,2.959 -2.676,5.73 -4.142,8.534 -0.997,1.906 -2.171,3.719 -3.233,5.592 -2.138,3.773 -2.287,7.579 -0.14,11.543 1.281,-2.302 2.48,-4.493 3.713,-6.666 1.907,-3.362 3.893,-6.681 5.727,-10.082 0.638,-1.184 0.867,-2.582 1.402,-3.831 0.229,-0.535 0.673,-1.188 1.17,-1.364 3.337,-1.178 6.589,-2.479 9.34,-4.8 5.236,-4.416 5.323,-10.21 0.158,-14.689 -3.742,-3.244 -8.274,-4.807 -13.023,-5.715 -6.269,-1.199 -12.568,-1.13 -18.789,0.365 -4.511,1.084 -8.782,2.741 -12.19,6.09 -3.907,3.84 -4.01,8.813 -0.262,12.776 2.893,3.059 6.603,4.653 10.521,5.852 0.27,0.083 0.992,-0.333 1.016,-0.568 0.528,-5.07 4.009,-8.74 6.146,-13.038 C -3.541,5.983 -2.007,3.365 -0.549,0.709 -0.441,0.511 -0.272,0.346 0,0"
       style="fill:#0e121a;fill-opacity:1;fill-rule:nonzero;stroke:none"
       transform="matrix(1.3333333,0,0,-1.3333333,5314.4429,1747.3228)"
       clip-path="url(#clipPath295)" />
    <path
       id="path296"
       d="m 0,0 h 0.006 c 0,1.271 -0.002,2.542 0,3.812 0.007,4.119 -0.5,4.579 -4.689,4.26 -3.774,-0.287 -5.831,-1.847 -6.796,-5.534 -0.387,-1.476 -0.407,-3.093 -0.34,-4.634 0.257,-5.908 5.491,-8.763 10.649,-5.893 0.814,0.453 1.212,1.013 1.186,1.977 C -0.038,-4.009 0,-2.004 0,0 m -0.127,-10.227 c -1.826,-2.144 -3.984,-3.056 -6.67,-3.028 -4.41,0.046 -7.582,2.008 -9.2,6.013 -1.808,4.477 -1.786,9.088 0.217,13.557 1.454,3.245 4.143,5.084 7.535,5.675 2.187,0.381 4.467,0.34 6.7,0.286 1.161,-0.028 1.611,0.223 1.566,1.409 -0.064,1.662 0.023,3.328 -0.033,4.99 -0.034,0.994 0.266,1.487 1.323,1.688 3.813,0.723 3.811,0.76 3.813,-3.075 C 5.128,7.894 5.1,-1.5 5.157,-10.894 c 0.008,-1.424 -0.432,-1.997 -1.834,-1.781 -0.047,0.007 -0.097,0.001 -0.146,0.001 -2.45,-0.006 -2.45,-0.006 -3.304,2.447"
       style="fill:#0e121a;fill-opacity:1;fill-rule:nonzero;stroke:none"
       transform="matrix(1.3333333,0,0,-1.3333333,5582.3523,1732.9757)"
       clip-path="url(#clipPath297)" />
    <path
       id="path298"
       d="m 0,0 c 3.659,-1.401 7.119,-2.141 10.752,-1.699 0.291,0.035 0.584,0.07 0.871,0.129 2.338,0.477 3.742,1.638 4.004,3.343 0.345,2.242 -0.7,3.854 -2.566,4.84 -2.762,1.461 -5.662,2.66 -8.432,4.108 -4.774,2.496 -6.092,6.938 -4.604,11.685 0.741,2.365 2.505,3.835 4.782,4.627 4.57,1.591 9.164,1.137 13.728,-0.072 0.376,-0.1 0.937,-0.624 0.915,-0.914 -0.099,-1.336 -0.373,-2.659 -0.554,-3.789 -2.927,0.35 -5.569,0.737 -8.225,0.947 C 9.677,23.284 8.616,23.071 7.646,22.784 4.656,21.898 3.723,18.418 6.01,16.284 7.194,15.179 8.751,14.449 10.2,13.662 12.682,12.313 15.327,11.231 17.692,9.708 20.617,7.824 21.457,4.815 21.076,1.48 20.698,-1.84 18.797,-4.07 15.763,-5.342 12.852,-6.562 9.771,-6.816 6.683,-6.49 4.56,-6.266 2.47,-5.705 0.374,-5.254 -0.589,-5.047 -1.021,-4.449 -0.765,-3.422 -0.491,-2.317 -0.266,-1.2 0,0"
       style="fill:#0e121a;fill-opacity:1;fill-rule:nonzero;stroke:none"
       transform="matrix(1.3333333,0,0,-1.3333333,5362.4884,1742.2071)"
       clip-path="url(#clipPath299)" />
    <path
       id="path300"
       d="M 0,0 C 1.418,0 2.836,-0.011 4.254,0.003 5.847,0.018 6.025,0.254 5.709,1.852 5.135,4.762 2.879,6.394 -0.306,6.236 -3.753,6.064 -5.289,3.739 -5.816,1.107 -5.99,0.237 -5.445,-0.001 -4.694,0.001 -3.129,0.008 -1.565,0.003 0,0 m 10.245,-9.152 c -0.223,-1.503 -0.348,-2.705 -0.609,-3.876 -0.08,-0.359 -0.476,-0.803 -0.826,-0.923 -4.793,-1.65 -9.6,-1.89 -14.262,0.371 -2.856,1.386 -4.466,3.855 -5.204,6.917 -0.761,3.156 -0.703,6.305 0.076,9.439 1.371,5.515 6.718,8.691 12.916,7.703 5.548,-0.884 8.607,-4.36 8.757,-9.991 0.03,-1.124 -0.107,-2.253 -0.049,-3.374 0.063,-1.215 -0.527,-1.472 -1.598,-1.464 -4.501,0.036 -9.004,0.021 -13.505,0.011 -1.837,-0.004 -1.921,-0.156 -1.357,-1.83 0.94,-2.791 2.99,-4.133 5.798,-4.457 2.872,-0.332 5.654,0.156 8.381,1.039 0.361,0.117 0.728,0.215 1.482,0.435"
       style="fill:#0e121a;fill-opacity:1;fill-rule:nonzero;stroke:none"
       transform="matrix(1.3333333,0,0,-1.3333333,5609.9851,1730.4569)"
       clip-path="url(#clipPath301)" />
    <path
       id="path302"
       d="m 0,0 h 0.009 c 0,2.102 0.033,4.205 -0.026,6.305 -0.013,0.468 -0.217,1.169 -0.555,1.351 -3.173,1.71 -9.15,-0.43 -10.344,-3.94 -0.67,-1.968 -0.857,-4.22 -0.736,-6.313 0.318,-5.529 5.393,-8.191 10.318,-5.608 0.921,0.483 1.385,1.107 1.352,2.193 C -0.044,-4.01 0,-2.004 0,0 m 0.05,-10.446 c -2.029,-2.102 -4.226,-2.941 -6.894,-2.886 -3.887,0.08 -6.914,1.66 -8.594,5.109 -2.378,4.883 -2.392,9.993 -0.013,14.871 2.022,4.147 5.94,5.573 10.246,5.67 2.907,0.065 5.829,-0.433 8.74,-0.721 C 4.71,11.481 5.279,10.905 5.267,9.568 5.201,2.668 5.204,-4.233 5.26,-11.133 c 0.011,-1.309 -0.412,-1.808 -1.681,-1.621 -0.192,0.028 -0.392,0.011 -0.587,0.003 -1.504,-0.059 -3.146,-0.325 -2.942,2.305"
       style="fill:#0e121a;fill-opacity:1;fill-rule:nonzero;stroke:none"
       transform="matrix(1.3333333,0,0,-1.3333333,5510.8948,1732.8723)"
       clip-path="url(#clipPath303)" />
    <path
       id="path304"
       d="m 0,0 c 0,0.734 0,1.467 0,2.201 -0.001,0.783 0.006,1.565 -0.004,2.348 -0.047,3.445 0.59,3.1 -3.251,3.347 -4.67,0.301 -7.788,-2.182 -8.407,-6.73 -0.214,-1.568 -0.154,-3.246 0.153,-4.8 0.997,-5.033 5.705,-7.078 10.257,-4.606 0.87,0.473 1.3,1.05 1.27,2.078 C -0.042,-4.11 0,-2.054 0,0 m -0.218,-10.68 c -2.889,-3.056 -6.307,-3.29 -9.947,-2.189 -2.862,0.866 -4.763,2.872 -5.809,5.604 -1.66,4.333 -1.675,8.739 0.113,13.025 1.916,4.592 5.882,6.286 10.478,6.459 2.9,0.11 5.826,-0.406 8.738,-0.67 C 4.613,11.434 5.17,10.826 5.155,9.432 5.086,2.586 5.093,-4.262 5.15,-11.108 c 0.011,-1.323 -0.348,-1.809 -1.723,-1.764 -2.471,0.081 -2.474,0.006 -3.645,2.192"
       style="fill:#0e121a;fill-opacity:1;fill-rule:nonzero;stroke:none"
       transform="matrix(1.3333333,0,0,-1.3333333,5417.9969,1732.754)"
       clip-path="url(#clipPath305)" />
    <path
       id="path306"
       d="m 0,0 c -0.002,3.524 0.039,7.049 -0.027,10.572 -0.019,1.048 0.356,1.487 1.337,1.684 4.294,0.864 8.593,1.395 12.965,0.609 4.216,-0.757 6.812,-3.592 6.891,-7.878 0.096,-5.236 0.008,-10.475 0.041,-15.712 0.006,-0.917 -0.345,-1.194 -1.207,-1.176 -4.94,0.103 -3.922,-0.712 -4.004,3.821 -0.072,3.964 0.021,7.931 -0.083,11.893 C 15.831,6.957 14.496,8.375 11.389,8.692 9.943,8.84 8.466,8.67 7.004,8.682 5.709,8.692 5.26,8.135 5.275,6.806 5.341,1.178 5.26,-4.452 5.327,-10.08 5.344,-11.459 4.993,-11.956 3.54,-11.926 -0.001,-11.854 -0.001,-11.923 0.001,-8.37 0.003,-5.58 0.002,-2.79 0,0"
       style="fill:#0e121a;fill-opacity:1;fill-rule:nonzero;stroke:none"
       transform="matrix(1.3333333,0,0,-1.3333333,5432.5817,1734.0183)"
       clip-path="url(#clipPath307)" />
    <path
       id="path308"
       d="m 0,0 c 0,3.475 0.041,6.95 -0.024,10.423 -0.02,1.1 0.379,1.599 1.422,1.797 4.248,0.808 8.498,1.352 12.819,0.566 4.267,-0.777 6.708,-3.406 6.831,-7.88 0.143,-5.232 0.024,-10.472 0.055,-15.708 0.006,-0.914 -0.367,-1.199 -1.223,-1.177 -4.629,0.12 -3.844,-0.765 -3.917,3.795 -0.053,3.327 0.029,6.655 -0.004,9.983 -0.012,1.167 -0.097,2.35 -0.311,3.495 C 15.314,7.073 14.114,8.208 12.374,8.416 10.5,8.641 8.585,8.52 6.688,8.565 5.523,8.592 5.221,7.983 5.227,6.905 5.261,1.228 5.191,-4.449 5.274,-10.125 5.295,-11.626 4.841,-12.051 3.362,-12.008 0.003,-11.91 0,-11.984 0,-8.662 -0.001,-5.775 0,-2.887 0,0"
       style="fill:#0e121a;fill-opacity:1;fill-rule:nonzero;stroke:none"
       transform="matrix(1.3333333,0,0,-1.3333333,5525.5681,1733.9113)"
       clip-path="url(#clipPath309)" />
    <path
       id="path310"
       d="m 0,0 c -0.204,-1.352 -0.324,-2.554 -0.602,-3.717 -0.075,-0.309 -0.605,-0.634 -0.98,-0.725 -2.869,-0.695 -5.724,-0.815 -8.427,0.624 -2.147,1.144 -3.091,3.133 -3.252,5.426 -0.181,2.584 -0.153,5.184 -0.161,7.777 -0.019,5.778 0.033,11.555 -0.032,17.332 -0.014,1.296 0.403,1.794 1.679,2.003 3.634,0.594 3.625,0.648 3.622,-2.96 -10e-4,-1.42 0.065,-2.844 -0.024,-4.258 -0.076,-1.205 0.429,-1.526 1.545,-1.487 1.858,0.066 3.72,-0.007 5.58,0.025 0.81,0.013 1.158,-0.236 1.077,-1.106 -0.346,-3.721 0.304,-3.225 -3.312,-3.267 -1.175,-0.014 -2.352,-0.045 -3.525,0.009 -1.031,0.047 -1.366,-0.392 -1.355,-1.391 0.038,-3.525 -0.009,-7.05 0.023,-10.575 0.027,-2.926 1.49,-4.304 4.438,-4.17 C -2.59,-0.409 -1.481,-0.19 0,0"
       style="fill:#0e121a;fill-opacity:1;fill-rule:nonzero;stroke:none"
       transform="matrix(1.3333333,0,0,-1.3333333,5485.7259,1744.1208)"
       clip-path="url(#clipPath311)" />
    <path
       id="path312"
       d="m 0,0 c 0,3.474 0.044,6.948 -0.025,10.42 -0.023,1.175 0.438,1.776 1.531,1.871 3.497,0.304 6.996,0.586 10.498,0.828 1.048,0.073 1.629,-0.379 1.504,-1.584 C 13.184,8.386 13.572,8.508 10.417,8.746 9.255,8.833 8.076,8.653 6.904,8.646 5.685,8.639 5.203,8.137 5.216,6.858 5.273,1.232 5.247,-4.394 5.242,-10.02 5.24,-11.978 5.228,-11.978 3.337,-11.988 c -3.335,-0.016 -3.334,-0.016 -3.331,3.329 0.002,2.886 0,5.773 0,8.659 z"
       style="fill:#0e121a;fill-opacity:1;fill-rule:nonzero;stroke:none"
       transform="matrix(1.3333333,0,0,-1.3333333,5630.9549,1733.8925)"
       clip-path="url(#clipPath313)" />
  </g>
</svg>
