<?xml version="1.0" encoding="UTF-8" standalone="no"?>
<!-- Created with Inkscape (http://www.inkscape.org/) -->

<svg
   version="1.1"
   id="svg1"
   width="177.01221"
   height="118.94629"
   viewBox="0 0 177.01221 118.94629"
   xmlns="http://www.w3.org/2000/svg"
   xmlns:svg="http://www.w3.org/2000/svg">
  <defs
     id="defs1">
    <clipPath
       clipPathUnits="userSpaceOnUse"
       id="clipPath349">
      <path
         d="M 0,1920 H 1080 V 0 H 0 Z"
         transform="translate(-824.32712,-380.34211)"
         id="path349" />
    </clipPath>
    <clipPath
       clipPathUnits="userSpaceOnUse"
       id="clipPath351">
      <path
         d="M 0,1920 H 1080 V 0 H 0 Z"
         transform="translate(-800.5198,-380.40511)"
         id="path351" />
    </clipPath>
    <clipPath
       clipPathUnits="userSpaceOnUse"
       id="clipPath353">
      <path
         d="M 0,1920 H 1080 V 0 H 0 Z"
         transform="translate(-824.80825,-426.28944)"
         id="path353" />
    </clipPath>
    <clipPath
       clipPathUnits="userSpaceOnUse"
       id="clipPath355">
      <path
         d="M 0,1920 H 1080 V 0 H 0 Z"
         transform="translate(-857.17255,-382.73858)"
         id="path355" />
    </clipPath>
    <clipPath
       clipPathUnits="userSpaceOnUse"
       id="clipPath357">
      <path
         d="M 0,1920 H 1080 V 0 H 0 Z"
         transform="translate(-784.71842,-379.91963)"
         id="path357" />
    </clipPath>
    <clipPath
       clipPathUnits="userSpaceOnUse"
       id="clipPath359">
      <path
         d="M 0,1920 H 1080 V 0 H 0 Z"
         transform="translate(-756.60609,-392.45363)"
         id="path359" />
    </clipPath>
    <clipPath
       clipPathUnits="userSpaceOnUse"
       id="clipPath361">
      <path
         d="M 0,1920 H 1080 V 0 H 0 Z"
         transform="translate(-871.78862,-368.38088)"
         id="path361" />
    </clipPath>
  </defs>
  <g
     id="layer-MC0"
     transform="translate(-5376.335,-1960.4443)">
    <path
       id="path348"
       d="M 0,0 C 0,-0.962 0.032,-1.926 -0.012,-2.887 -0.039,-3.473 0.131,-3.958 0.458,-4.418 2.248,-6.934 5.321,-7.044 7.1,-4.35 8.916,-1.601 8.903,1.394 7.188,4.261 5.964,6.307 3.447,6.988 1.463,5.474 0.591,4.809 -0.133,3.987 -0.016,2.709 0.066,1.813 0,0.903 0,0 m -5.875,-19.885 c 0.005,2.851 0.013,5.701 0.015,8.551 0.002,6.214 0.007,12.427 -0.012,18.641 -0.002,0.578 0.178,1.021 0.546,1.432 1.852,2.063 4.188,3.15 6.928,3.322 1.306,0.081 2.651,0.151 3.929,-0.065 2.778,-0.468 4.775,-2.177 6.3,-4.472 1.899,-2.858 2.444,-5.996 2.067,-9.383 -0.282,-2.531 -1.247,-4.765 -2.806,-6.683 -1.282,-1.577 -2.841,-2.863 -4.97,-3.374 -1.45,-0.349 -2.842,-0.383 -4.231,-0.024 -0.664,0.172 -1.243,0.673 -1.871,1.031 -0.002,-0.044 -0.019,-0.242 -0.019,-0.439 -0.002,-2.615 0.001,-5.23 -0.005,-7.845 0,-0.231 -0.055,-0.461 -0.085,-0.692 z"
       style="fill:#0e121a;fill-opacity:1;fill-rule:nonzero;stroke:none"
       transform="matrix(1.3333333,0,0,-1.3333333,5479.1028,2052.8772)"
       clip-path="url(#clipPath349)" />
    <path
       id="path350"
       d="m 0,0 c 0,-0.924 0.051,-1.853 -0.016,-2.772 -0.054,-0.726 0.19,-1.312 0.607,-1.845 1.955,-2.5 4.744,-2.272 6.546,0.221 0.862,1.192 1.24,2.592 1.271,4.091 C 8.446,1.57 7.988,3.259 6.799,4.733 5.422,6.437 3.144,6.726 1.453,5.382 0.597,4.701 -0.135,3.873 -0.015,2.595 0.065,1.737 0,0.865 0,0 m -5.802,-19.948 c 0,9.084 0.005,18.168 -0.012,27.252 -0.001,0.558 0.165,0.986 0.521,1.38 1.857,2.056 4.193,3.146 6.934,3.314 1.306,0.08 2.651,0.151 3.928,-0.066 2.801,-0.476 4.797,-2.211 6.328,-4.526 1.846,-2.792 2.375,-5.856 2.05,-9.158 -0.254,-2.573 -1.212,-4.844 -2.789,-6.803 -1.291,-1.603 -2.856,-2.904 -5.005,-3.424 -1.449,-0.35 -2.844,-0.392 -4.23,-0.021 -0.693,0.185 -1.292,0.723 -1.939,1.104 v -9.052 z"
       style="fill:#0e121a;fill-opacity:1;fill-rule:nonzero;stroke:none"
       transform="matrix(1.3333333,0,0,-1.3333333,5447.3597,2052.7932)"
       clip-path="url(#clipPath351)" />
    <path
       id="path352"
       d="m 0,0 c 4.292,-0.047 12.87,-0.164 21.448,-0.223 3.225,-0.023 6.456,-0.002 9.676,0.162 3.077,0.157 6.149,0.472 9.212,0.816 2.772,0.311 5.496,0.888 8.03,2.123 0.523,0.254 1.007,0.602 1.474,0.954 0.423,0.318 0.34,0.692 -0.07,0.954 -0.378,0.24 -0.785,0.446 -1.202,0.609 -1.753,0.688 -3.604,0.935 -5.46,1.123 -2.816,0.283 -5.631,0.572 -8.452,0.794 -2.293,0.181 -4.592,0.312 -6.891,0.389 -16.131,0.544 -32.266,0.066 -48.399,0.221 -0.196,0.002 -0.407,-0.042 -0.586,0.015 -0.172,0.055 -0.312,0.214 -0.466,0.327 0.155,0.119 0.299,0.321 0.466,0.342 0.857,0.112 1.719,0.181 2.58,0.258 2.72,0.242 5.445,0.439 8.159,0.733 2.537,0.275 5.07,0.6 7.59,0.997 3.06,0.482 6.128,0.956 9.148,1.629 3.71,0.827 7.396,1.81 10.794,3.588 1.621,0.848 3.141,1.873 4.206,3.418 0.714,1.036 1.02,2.188 0.869,3.458 -0.026,0.22 0.041,0.575 0.186,0.659 0.151,0.088 0.477,-0.026 0.678,-0.138 3.054,-1.697 6.052,-3.501 9.161,-5.089 2.808,-1.434 5.745,-2.585 8.823,-3.382 3.18,-0.822 6.261,-1.958 8.985,-3.863 1.634,-1.144 3.181,-2.421 4.233,-4.139 1.276,-2.082 1.386,-4.229 0.083,-6.397 -1.244,-2.071 -3.158,-3.402 -5.033,-4.804 -1.514,-1.132 -3.3,-1.622 -5.01,-2.286 -5.891,-2.289 -11.699,-4.767 -17.435,-7.422 -5.331,-2.469 -10.548,-5.151 -15.667,-8.03 -0.12,-0.067 -0.234,-0.164 -0.362,-0.192 -0.212,-0.046 -0.433,-0.047 -0.65,-0.066 0.043,0.231 0.043,0.482 0.141,0.687 0.125,0.263 0.33,0.486 0.5,0.727 0.773,1.102 1.392,2.274 1.658,3.609 0.484,2.418 -0.509,4.298 -2.192,5.9 -2.08,1.979 -4.667,3.092 -7.284,4.126 -4.619,1.824 -9.437,2.937 -14.314,3.769 -4.371,0.746 -8.757,1.416 -13.154,1.986 -3.642,0.473 -7.308,0.762 -10.965,1.113 -1.467,0.141 -2.94,0.217 -4.408,0.356 -0.198,0.018 -0.377,0.23 -0.565,0.352 0.196,0.111 0.393,0.32 0.589,0.318 3.089,-0.018 6.178,-0.063 9.266,-0.102 C -21.835,0.27 -13.061,0.162 0,0"
       style="fill:#0e121a;fill-opacity:1;fill-rule:nonzero;stroke:none"
       transform="matrix(1.3333333,0,0,-1.3333333,5479.7443,1991.6141)"
       clip-path="url(#clipPath353)" />
    <path
       id="path354"
       d="M 0,0 C -0.742,2.445 -2.42,4.186 -4.965,3.807 -6.582,3.566 -8.041,1.949 -8.456,0 Z M 5.851,-4.449 H -8.67 c 0.552,-1.914 1.432,-3.455 3.378,-4.075 2.061,-0.657 3.369,0.579 4.641,1.998 1.519,-1.095 3.039,-2.19 4.598,-3.313 -1.478,-1.983 -3.16,-3.537 -5.538,-4.346 -3.719,-1.267 -7.723,0.316 -10.043,3.217 -2.053,2.566 -2.956,5.485 -2.918,8.748 0.03,2.619 0.633,5.067 2.091,7.248 2.309,3.455 5.473,5.266 9.717,4.652 2.336,-0.338 4.145,-1.657 5.69,-3.409 2.634,-2.989 3.531,-7.4 2.905,-10.72"
       style="fill:#0e121a;fill-opacity:1;fill-rule:nonzero;stroke:none"
       transform="matrix(1.3333333,0,0,-1.3333333,5522.8967,2049.6819)"
       clip-path="url(#clipPath355)" />
    <path
       id="path356"
       d="M 0,0 C 0.014,1.979 -0.377,3.439 -1.223,4.738 -2.76,7.098 -5.564,7.297 -7.246,5.635 -9.812,3.101 -9.999,-1.522 -7.69,-4.303 -5.684,-6.718 -2.915,-6.258 -1.238,-3.898 -0.34,-2.635 0.041,-1.132 0,0 m 5.639,0.398 c 0.062,-3.193 -0.972,-6.037 -2.912,-8.513 -1.196,-1.525 -2.736,-2.626 -4.658,-3.24 -3.059,-0.977 -5.787,-0.363 -8.268,1.479 -1.581,1.174 -2.749,2.753 -3.529,4.573 -1.615,3.764 -1.647,7.593 -0.041,11.329 1.23,2.861 3.211,5.163 6.315,6.128 C -3.561,13.365 0.13,12.191 2.668,8.999 4.993,6.076 5.57,3.63 5.639,0.398"
       style="fill:#0e121a;fill-opacity:1;fill-rule:nonzero;stroke:none"
       transform="matrix(1.3333333,0,0,-1.3333333,5426.2912,2053.4405)"
       clip-path="url(#clipPath357)" />
    <path
       id="path358"
       d="M 0,0 H -9.355 V 5.776 H 15.167 V 0.027 H 5.768 v -24.39 H 0 Z"
       style="fill:#0e121a;fill-opacity:1;fill-rule:nonzero;stroke:none"
       transform="matrix(1.3333333,0,0,-1.3333333,5388.8081,2036.7285)"
       clip-path="url(#clipPath359)" />
    <path
       id="path360"
       d="m 0,0 h -5.766 c -0.012,0.218 -0.032,0.409 -0.032,0.599 -0.002,6.292 -0.006,12.583 0.011,18.874 0.001,0.328 0.107,0.71 0.295,0.974 1.315,1.854 3.176,2.883 5.353,3.359 0.741,0.163 1.514,0.22 2.275,0.245 1.809,0.059 3.618,0.071 5.427,0.101 0.191,0.003 0.382,0 0.654,0 C 7.826,23.013 7.459,21.945 7.09,20.877 6.93,20.414 6.693,19.964 6.617,19.488 6.481,18.629 5.948,18.445 5.191,18.396 4.314,18.34 3.428,18.242 2.572,18.045 1.109,17.708 0,16.225 0,14.738 0,10.078 0,5.419 0,0.759 0,0.527 0,0.294 0,0"
       style="fill:#0e121a;fill-opacity:1;fill-rule:nonzero;stroke:none"
       transform="matrix(1.3333333,0,0,-1.3333333,5542.3848,2068.8255)"
       clip-path="url(#clipPath361)" />
  </g>
</svg>
