<svg width="416" height="93" viewBox="0 0 416 93" fill="none" xmlns="http://www.w3.org/2000/svg">
    <path
        d="M53.7333 -3.33041e-05C22 5.7333 0.133329 24.6666 0.399995 46.2666C0.666662 74.6666 38.5333 96.2666 80.6667 91.8666C107.733 89.0666 127.867 78 137.067 60.6666C141.333 52.5333 141.067 38.8 136.4 29.8666C129.867 17.4666 114.933 7.19997 96 1.99997C86.6667 -0.533367 62.8 -1.73337 53.7333 -3.33041e-05ZM86 6.66663C103.067 9.46663 112.667 16.5333 108.8 23.7333C107.333 26.5333 96.8 31.6 90.8 32.2666C87.3333 32.6666 86.9333 32.1333 85.4667 26.6666C78.8 0.933304 63.0667 0.399971 55.6 25.6C53.4667 32.9333 53.2 33.0666 49.3333 32.4C42.9333 31.3333 34 26.6666 31.7333 23.2C29.8667 20.2666 29.8667 19.7333 31.7333 16.8C37.6 7.86663 63.2 3.06663 86 6.66663ZM74.2667 19.6C76.4 22.1333 79.3333 29.7333 79.3333 32.8C79.3333 34.1333 77.0667 34.6666 70.8 34.6666C66 34.6666 61.8667 34.2666 61.6 33.6C60.5333 32.1333 64.1333 22.8 66.8 19.8666C69.6 16.6666 71.6 16.6666 74.2667 19.6ZM33.6 39.7333C37.2 41.2 42.9333 43.2 46.4 44L52.6667 45.6V51.8666C52.6667 60.4 56.1333 74.1333 60 80.9333C61.7333 84.1333 62.8 86.6666 62.2667 86.6666C61.7333 86.6666 57.3333 85.7333 52.5333 84.8C24.9333 78.9333 6.79999 58.1333 11.4667 37.6C12.1333 34.1333 13.7333 30 14.8 28.2666L16.8 25.2L22 31.0666C24.9333 34.4 30 38.1333 33.6 39.7333ZM127.2 31.0666C138.267 53.8666 117.067 80.5333 83.7333 85.7333L78.1333 86.6666L82 78.4C84.6667 72.8 86.4 65.8666 87.4667 57.6C88.9333 46 89.2 45.2 92.5333 44.5333C106.133 41.6 117.067 35.4666 120.667 28.8C121.6 26.9333 122.933 25.3333 123.467 25.3333C124 25.3333 125.733 27.8666 127.2 31.0666ZM80.1333 53.6C78.8 63.2 74.2667 71.3333 70.1333 71.3333C65.8667 71.3333 61.7333 63.3333 60.9333 53.7333L60.4 46.6666H70.6667H81.0667L80.1333 53.6Z"
        fill="black" />
    <path
        d="M206.667 24.5333C198.533 28.1333 193.867 36.1333 193.733 46.1333C193.733 52.9333 196.4 58.4 202.533 63.6C214.667 74.4 234.667 67.8667 239.2 51.7333C244.4 33.0667 224.667 16.5333 206.667 24.5333ZM225.2 35.3333C231.067 41.6 230.267 52.1333 223.733 57.3333C218.8 61.2 213.2 60.8 208.533 56.1333C203.333 50.8 202.933 40.9333 208 35.4667C212.4 30.6667 220.8 30.5333 225.2 35.3333Z"
        fill="black" />
    <path
        d="M296 25.7333C286.267 31.2 282 44.4 286.533 55.0666C290.133 63.8666 302.4 70.5333 311.6 68.8C329.467 65.4666 337.333 44.4 325.6 31.0666C317.867 22.2666 306 20.1333 296 25.7333ZM314.933 34C318.533 36.5333 321.067 44.2666 320 49.3333C319.467 51.4666 317.333 54.8 315.067 56.6666C308.667 62.1333 301.2 60.6666 297.333 53.3333C292.267 43.6 297.6 32 307.2 32C309.867 32 313.333 32.9333 314.933 34Z"
        fill="black" />
    <path
        d="M154.933 24.9333C154.4 25.3333 154 27.2 154 28.8C154 31.4667 154.8 31.8667 160.4 32.2667L166.667 32.6667L167.333 50L168 67.3333H172.667H177.333L178 50L178.667 32.6667L185.067 32.2667C191.067 31.8667 191.333 31.6 191.333 27.8667V24H173.6C163.733 24 155.333 24.4 154.933 24.9333Z"
        fill="black" />
    <path
        d="M240.667 24.8C240.667 25.3333 244.133 31.2 248.4 37.8667C255.2 48.6667 256.133 50.9333 256.667 58.6667L257.333 67.3333L262.4 67.7333L267.333 68.1333V59.4667C267.333 51.2 267.733 50.2667 274.8 39.2C284.667 24 284.667 24 278.933 24C273.467 24 271.467 25.7333 266.4 34.6667C264.4 38.4 262.4 41.3333 262 41.3333C261.6 41.3333 259.2 37.4667 256.667 32.9333C252.133 25.0667 251.733 24.6667 246.267 24.2667C243.2 24 240.667 24.2667 240.667 24.8Z"
        fill="black" />
    <path
        d="M333.2 26C331.467 30.2667 333.733 32 340.667 32H347.333V50.1333V68.1333L352.4 67.7333L357.333 67.3333L357.733 49.6L358.133 32H364.667C371.2 32 371.333 31.8667 371.333 28V24H352.667C337.2 24 333.733 24.4 333.2 26Z"
        fill="black" />
    <path
        d="M385.067 25.6C383.733 27.3333 367.333 66 367.333 67.3333C367.333 67.8667 369.867 68 373.067 67.7333C378 67.3333 378.933 66.8 380.533 62.9333C382.4 58.8 382.667 58.6667 391.333 58.6667C400 58.6667 400.267 58.8 402.133 62.9333C403.733 66.8 404.667 67.3333 409.867 67.7333C414.267 68.1333 415.467 67.7333 414.933 66.4C397.467 22.4 398.4 24 391.467 24C388.667 24 385.733 24.8 385.067 25.6ZM396.667 49.6C396.667 50.2667 394.267 50.6667 391.2 50.6667C385.2 50.6667 385.2 50.6667 389.6 40.1333L391.6 35.3333L394.133 42C395.467 45.7333 396.667 49.0667 396.667 49.6Z"
        fill="black" />
</svg>