<?xml version="1.0" encoding="UTF-8" standalone="no"?>
<!-- Created with Inkscape (http://www.inkscape.org/) -->

<svg
   version="1.1"
   id="svg1"
   width="342.5459"
   height="78.006104"
   viewBox="0 0 342.5459 78.006104"
   xmlns="http://www.w3.org/2000/svg"
   xmlns:svg="http://www.w3.org/2000/svg">
  <defs
     id="defs1">
    <clipPath
       clipPathUnits="userSpaceOnUse"
       id="clipPath315">
      <path
         d="M 0,1920 H 1080 V 0 H 0 Z"
         transform="translate(-188.86748,-644.05712)"
         id="path315" />
    </clipPath>
    <clipPath
       clipPathUnits="userSpaceOnUse"
       id="clipPath317">
      <path
         d="M 0,1920 H 1080 V 0 H 0 Z"
         transform="translate(-400.69321,-615.63744)"
         id="path317" />
    </clipPath>
    <clipPath
       clipPathUnits="userSpaceOnUse"
       id="clipPath319">
      <path
         d="M 0,1920 H 1080 V 0 H 0 Z"
         transform="translate(-310.35833,-635.52362)"
         id="path319" />
    </clipPath>
    <clipPath
       clipPathUnits="userSpaceOnUse"
       id="clipPath321">
      <path
         d="M 0,1920 H 1080 V 0 H 0 Z"
         transform="translate(-270.77963,-644.06612)"
         id="path321" />
    </clipPath>
    <clipPath
       clipPathUnits="userSpaceOnUse"
       id="clipPath323">
      <path
         d="M 0,1920 H 1080 V 0 H 0 Z"
         transform="translate(-239.98771,-638.26652)"
         id="path323" />
    </clipPath>
    <clipPath
       clipPathUnits="userSpaceOnUse"
       id="clipPath325">
      <path
         d="M 0,1920 H 1080 V 0 H 0 Z"
         transform="translate(-369.16118,-621.25464)"
         id="path325" />
    </clipPath>
    <clipPath
       clipPathUnits="userSpaceOnUse"
       id="clipPath327">
      <path
         d="M 0,1920 H 1080 V 0 H 0 Z"
         transform="translate(-339.74048,-615.66444)"
         id="path327" />
    </clipPath>
    <clipPath
       clipPathUnits="userSpaceOnUse"
       id="clipPath329">
      <path
         d="M 0,1920 H 1080 V 0 H 0 Z"
         transform="translate(-414.99631,-651.97622)"
         id="path329" />
    </clipPath>
    <clipPath
       clipPathUnits="userSpaceOnUse"
       id="clipPath331">
      <path
         d="M 0,1920 H 1080 V 0 H 0 Z"
         transform="translate(-410.26614,-653.09612)"
         id="path331" />
    </clipPath>
  </defs>
  <g
     id="layer-MC0"
     transform="translate(-4591.564,-1681.1554)">
    <path
       id="path314"
       d="m 0,0 c -8.192,-10.772 -16.162,-21.252 -24.155,-31.763 -7.75,9.164 -9.006,26.22 1.974,37.752 11.62,12.205 31.284,12.18 42.846,-0.463 10.709,-11.709 10.222,-30.49 -2.141,-41.553 -12.352,-11.054 -30.94,-9.194 -40.925,2.045 0.896,0.332 1.689,0.706 2.522,0.921 4.774,1.229 9.568,0.876 14.378,0.185 3.407,-0.489 6.824,-1.025 10.254,-1.217 5.57,-0.313 9.561,2.346 12.134,7.194 0.683,1.288 1.224,2.659 1.717,4.033 0.128,0.358 -0.174,0.87 -0.278,1.311 -0.398,-0.223 -0.972,-0.345 -1.165,-0.684 -1.515,-2.66 -3.493,-4.804 -6.357,-6.024 -2.399,-1.022 -4.937,-1.142 -7.489,-1.059 -4.644,0.15 -9.287,0.339 -13.93,0.515 -0.123,0.005 -0.245,0.051 -0.648,0.141 7.952,10.659 15.826,21.213 23.889,32.02 -0.717,0.08 -1.114,0.164 -1.512,0.164 C 1.93,3.527 -7.254,3.513 -16.437,3.546 -17.482,3.55 -17.981,3.23 -18.216,2.175 c -0.507,-2.267 -1.177,-4.498 -1.7,-6.763 -0.09,-0.392 0.215,-0.876 0.338,-1.318 0.437,0.242 1.049,0.373 1.282,0.744 1.297,2.056 2.761,3.918 5.282,4.442 C -8.824,0.15 -4.574,0.071 0,0"
       style="fill:#0e121a;fill-opacity:1;fill-rule:nonzero;stroke:none"
       transform="matrix(1.3333333,0,0,-1.3333333,4631.8233,1701.2572)"
       clip-path="url(#clipPath315)" />
    <path
       id="path316"
       d="m 0,0 h -8.014 c 2.399,3.806 1.104,7.937 1.374,11.894 0.019,0.28 -0.592,0.861 -0.918,0.866 -3.62,0.064 -7.241,0.064 -10.86,0 -0.303,-0.005 -0.846,-0.597 -0.854,-0.926 -0.061,-2.756 -0.118,-5.52 0.029,-8.271 0.062,-1.149 0.622,-2.271 0.984,-3.505 h -8.121 c 1.968,2.579 1.409,5.486 1.424,8.276 0.029,5.429 0.007,10.86 -0.143,16.286 -0.034,1.247 -0.666,2.477 -1.038,3.767 h 8.505 c -1.849,-1.828 -1.703,-3.998 -1.688,-6.142 0.012,-1.595 0.027,-3.19 -0.007,-4.784 -0.017,-0.833 0.313,-1.139 1.148,-1.132 3.491,0.028 6.983,0.019 10.474,0.003 0.736,-0.004 1.127,0.238 1.12,1.038 -0.023,2.37 0.118,4.751 -0.072,7.107 -0.105,1.304 -0.743,2.566 -1.158,3.903 H 0.686 C -0.834,26.783 -0.982,24.929 -0.977,23.01 -0.959,16.846 -1.031,10.682 -0.929,4.52 -0.905,3.047 -0.341,1.583 0,0"
       style="fill:#0e121a;fill-opacity:1;fill-rule:nonzero;stroke:none"
       transform="matrix(1.3333333,0,0,-1.3333333,4914.2576,1739.1501)"
       clip-path="url(#clipPath317)" />
    <path
       id="path318"
       d="m 0,0 c 0,-1.418 -0.055,-2.84 0.038,-4.252 0.023,-0.359 0.539,-1.003 0.784,-0.982 2.113,0.178 4.199,0.543 5.793,2.136 C 8.911,-0.803 8.264,3.323 5.327,4.468 3.998,4.986 2.495,5.072 1.063,5.305 0.3,5.429 -0.024,5.02 -0.011,4.254 0.014,2.836 -0.004,1.418 0,0 m -0.069,-8.403 c 0.498,-3.767 -0.94,-7.709 1.372,-11.439 h -8.365 c 2.15,2.932 1.373,6.236 1.421,9.393 0.076,4.997 0.022,9.999 -0.129,14.995 C -5.809,5.848 -6.41,7.134 -6.789,8.565 -6.976,8.476 -6.834,8.604 -6.695,8.6 -2.134,8.467 2.447,8.532 6.981,8.104 10.196,7.801 12.762,6.006 13.779,2.73 14.856,-0.737 13.221,-4.018 9.64,-5.938 8.814,-6.381 7.932,-6.721 6.882,-7.196 c 3.53,-4.486 7.243,-8.655 11.548,-12.623 -4.226,-0.392 -8.005,-0.454 -10.832,3.085 -2.15,2.691 -4.448,5.263 -6.668,7.897 C 0.746,-8.619 0.651,-8.326 0.515,-8.068 0.32,-8.18 0.125,-8.291 -0.069,-8.403"
       style="fill:#0e121a;fill-opacity:1;fill-rule:nonzero;stroke:none"
       transform="matrix(1.3333333,0,0,-1.3333333,4793.8111,1712.6352)"
       clip-path="url(#clipPath319)" />
    <path
       id="path320"
       d="M 0,0 H 8.594 C 6.756,-2.138 6.927,-4.543 6.925,-6.892 c -0.003,-4.093 0.046,-8.187 0.101,-12.28 0.034,-2.547 0.824,-4.739 3.412,-5.697 2.682,-0.993 5.403,-1.029 7.665,0.98 0.803,0.714 1.335,1.897 1.639,2.965 0.336,1.178 0.349,2.47 0.36,3.714 0.037,4.224 -0.004,8.448 0.018,12.673 0.008,1.596 -0.281,3.077 -1.5,4.487 h 8.685 c -1.813,-1.739 -1.627,-3.86 -1.626,-5.955 0,-4.224 -0.028,-8.448 -0.063,-12.671 -0.06,-7.318 -5.132,-10.325 -10.574,-10.69 -1.87,-0.126 -3.814,-0.037 -5.645,0.338 -5.396,1.106 -8.334,4.835 -8.382,10.382 C 0.972,-13.689 1.03,-8.731 0.911,-3.777 0.882,-2.553 0.338,-1.341 0,0"
       style="fill:#0e121a;fill-opacity:1;fill-rule:nonzero;stroke:none"
       transform="matrix(1.3333333,0,0,-1.3333333,4741.0395,1701.2452)"
       clip-path="url(#clipPath321)" />
    <path
       id="path322"
       d="m 0,0 c 0.855,1.907 1.578,3.602 2.391,5.253 0.148,0.302 0.66,0.602 1.006,0.604 7.026,0.029 14.052,0.016 21.078,0.003 0.109,0 0.218,-0.095 0.508,-0.229 -5.669,-8.197 -11.301,-16.341 -17.171,-24.829 6.223,0.112 12.079,-0.33 17.449,2.761 0.067,-0.085 0.133,-0.171 0.199,-0.256 -0.818,-1.867 -1.616,-3.744 -2.48,-5.589 -0.105,-0.223 -0.571,-0.391 -0.87,-0.391 -7.801,-0.014 -15.603,-0.002 -23.405,0.011 -0.07,0 -0.14,0.084 -0.398,0.249 C 3.978,-14.287 9.644,-6.167 15.348,2.008 12.544,2.835 6.492,2.029 0,0"
       style="fill:#0e121a;fill-opacity:1;fill-rule:nonzero;stroke:none"
       transform="matrix(1.3333333,0,0,-1.3333333,4699.9836,1708.978)"
       clip-path="url(#clipPath323)" />
    <path
       id="path324"
       d="m 0,0 c 0,-1.618 0.029,-3.064 -0.027,-4.505 -0.01,-0.259 -0.327,-0.659 -0.578,-0.733 -5.895,-1.732 -11.787,-2.164 -17.246,1.205 -5.305,3.274 -7.078,8.37 -6.321,14.374 0.917,7.273 6.602,11.919 13.776,13.016 3.098,0.474 6.182,0.319 9.242,-0.406 0.813,-0.192 1.159,-0.56 1.121,-1.417 -0.058,-1.323 -0.015,-2.65 -0.015,-4.074 -6.064,2.818 -11.826,3.581 -16.266,-2.436 C -19.188,11.129 -18.912,4.673 -15.917,1.176 -11.18,-4.352 -5.718,-3.154 0,0"
       style="fill:#0e121a;fill-opacity:1;fill-rule:nonzero;stroke:none"
       transform="matrix(1.3333333,0,0,-1.3333333,4872.2149,1731.6605)"
       clip-path="url(#clipPath325)" />
    <path
       id="path326"
       d="m 0,0 h -8.095 c 2.197,3.026 1.472,6.371 1.528,9.587 0.077,4.477 0.042,8.955 0.007,13.433 -0.015,1.846 -0.029,3.726 -1.741,5.334 H 0.604 C -1.432,26.388 -1.006,23.951 -1.024,21.632 -1.069,15.864 -1.123,10.094 -1.016,4.327 -0.989,2.896 -0.363,1.475 0,0"
       style="fill:#0e121a;fill-opacity:1;fill-rule:nonzero;stroke:none"
       transform="matrix(1.3333333,0,0,-1.3333333,4832.9873,1739.1141)"
       clip-path="url(#clipPath327)" />
    <path
       id="path328"
       d="M 0,0 C 0.002,1.956 -1.548,3.585 -3.435,3.609 -5.272,3.633 -6.966,1.955 -7.006,0.072 -7.046,-1.851 -5.327,-3.625 -3.44,-3.606 -1.544,-3.588 -0.002,-1.972 0,0 m -3.394,4.082 c 2.232,-0.019 3.985,-1.819 3.98,-4.087 -0.005,-2.3 -1.825,-4.108 -4.122,-4.094 -2.171,0.012 -3.976,1.88 -3.969,4.105 0.007,2.317 1.801,4.095 4.111,4.076"
       style="fill:#0e121a;fill-opacity:1;fill-rule:nonzero;stroke:none"
       transform="matrix(1.3333333,0,0,-1.3333333,4933.3284,1690.6984)"
       clip-path="url(#clipPath329)" />
    <path
       id="path330"
       d="m 0,0 c 0.465,-0.382 0.828,-0.834 0.975,-0.772 0.366,0.155 0.633,0.543 0.94,0.837 C 1.61,0.34 1.341,0.738 0.986,0.841 0.804,0.893 0.47,0.419 0,0 M 1.921,-1.152 C 2.264,-1.909 2.607,-2.667 2.95,-3.424 2.829,-3.491 2.709,-3.559 2.588,-3.626 2.345,-3.163 2.157,-2.658 1.842,-2.25 1.557,-1.882 1.134,-1.62 0.771,-1.311 0.627,-1.714 0.456,-2.109 0.348,-2.521 0.266,-2.836 0.263,-3.171 0.225,-3.497 0.111,-3.503 -0.004,-3.51 -0.118,-3.516 c -0.042,0.568 -0.096,1.136 -0.12,1.705 -0.02,0.47 -0.064,0.952 0.011,1.41 0.095,0.579 0.212,1.569 0.475,1.623 C 0.873,1.349 1.843,1.247 2.197,0.832 2.535,0.435 2.27,-0.475 2.27,-1.16 2.154,-1.157 2.037,-1.154 1.921,-1.152"
       style="fill:#0e121a;fill-opacity:1;fill-rule:nonzero;stroke:none"
       transform="matrix(1.3333333,0,0,-1.3333333,4927.0215,1689.2052)"
       clip-path="url(#clipPath331)" />
  </g>
</svg>
