<?xml version="1.0" encoding="UTF-8" standalone="no"?>
<!-- Created with Inkscape (http://www.inkscape.org/) -->

<svg
   width="27.797544mm"
   height="44.836994mm"
   viewBox="0 0 27.797544 44.836994"
   version="1.1"
   id="svg1"
   xmlns="http://www.w3.org/2000/svg"
   xmlns:svg="http://www.w3.org/2000/svg"
   >
   
  <defs
     id="defs1">
    <clipPath
       clipPathUnits="userSpaceOnUse"
       id="clipPath24"
       class="logo-svg"
       >
      <path
         d="M 0,1920 H 1080 V 0 H 0 Z"
         transform="translate(-356.67591,-1035.192)"
         id="path24" />
    </clipPath>
    <clipPath
       clipPathUnits="userSpaceOnUse"
       id="clipPath26">
      <path
         d="M 0,1920 H 1080 V 0 H 0 Z"
         transform="translate(-333.28931,-1035.192)"
         id="path26" />
    </clipPath>
  </defs>
  <g
     id="layer1"
     transform="translate(-90.48749,-126.20625)">
    <path
       id="path23"
       d="m 0,0 v -38.825 c 0.459,0 0.828,-0.013 1.108,-0.038 0.28,-0.026 0.547,-0.065 0.803,-0.115 2.037,0 3.374,0.459 4.012,1.376 0.637,0.917 0.955,2.649 0.955,5.197 v 24.381 c 0,3.363 -0.267,5.54 -0.802,6.534 C 5.541,-0.497 3.999,0 1.452,0 Z M -21.782,16.584 H 4.855 c 6.888,0 11.991,-0.752 15.309,-2.254 3.317,-1.504 5.537,-4.077 6.659,-7.719 1.123,-3.643 1.684,-8.93 1.684,-15.858 v -16.585 c 0,-4.383 -0.217,-7.872 -0.649,-10.471 -0.434,-2.598 -1.365,-4.828 -2.79,-6.687 -1.427,-1.86 -3.567,-3.452 -6.42,-4.776 3.821,-1.428 6.42,-3.657 7.796,-6.688 1.375,-3.032 2.063,-7.325 2.063,-12.877 v -43.182 H 6.878 v 47.079 c 0,2.14 -0.382,3.642 -1.146,4.509 -0.764,0.866 -2.09,1.299 -3.974,1.299 -0.357,0 -0.663,-0.013 -0.917,-0.038 C 0.585,-57.69 0.306,-57.729 0,-57.779 v -52.734 h -21.782 z"
       style="fill:#fcd558;fill-opacity:1;fill-rule:nonzero;stroke:none"
       transform="matrix(0.35277776,0,0,-0.35277776,108.2284,132.05672)"
       clip-path="url(#clipPath24)" />
    <path
       id="path25"
       clip-path="url(#clipPath26)"
       style="fill:#fcd558;fill-opacity:1;fill-rule:nonzero;stroke:none"
       d="m -3.2497468,16.583391 c -7.0929932,0 -12.2846872,-0.674951 -15.5756842,-2.022949 -3.290996,-1.350999 -5.462302,-3.78432 -6.508301,-7.2993168 -1.045999,-3.5169965 -1.568847,-9.019797 -1.568847,-16.5087895 V -39.588974 c 0,-5.655994 0.256649,-10.087855 0.764648,-13.297852 0.51,-3.209996 1.529131,-5.745005 3.057129,-7.604004 1.528998,-1.861998 3.809824,-3.172501 6.840821,-3.9375 3.030996,-0.762999 7.2982749,-1.145508 12.8012694,-1.145508 H 1.6047455 V -110.51232 H 23.386973 V 16.583391 Z M -7.2328127e-4,-1.0546875e-4 H 1.6047455 V -48.836532 h -1.91015629 c -2.29199771,0 -3.69410221,0.458954 -4.20410171,1.376953 -0.5089994,0.916999 -0.7631836,3.00414 -0.7631836,6.265137 v 33.1699223 c 0,3.4119966 0.2541842,5.6032902 0.7631836,6.5712892 0.5099995,0.96799903 2.0127917,1.45312503125 4.50878921873,1.45312503125 z"
       transform="matrix(0.35277776,0,0,-0.35277776,99.978126,132.05672)" />
  </g>
</svg>
