<?xml version="1.0" encoding="UTF-8" standalone="no"?>
<!-- Created with Inkscape (http://www.inkscape.org/) -->

<svg
   width="44.96302mm"
   height="45.459404mm"
   viewBox="0 0 44.96302 45.459404"
   version="1.1"
   id="svg1"
   xmlns="http://www.w3.org/2000/svg"
   xmlns:svg="http://www.w3.org/2000/svg">
  <defs
     id="defs1">
    <clipPath
       clipPathUnits="userSpaceOnUse"
       id="clipPath51">
      <path
         d="M 0,1920 H 1080 V 0 H 0 Z"
         transform="translate(-771.33564,-1369.7899)"
         id="path51" />
    </clipPath>
    <clipPath
       clipPathUnits="userSpaceOnUse"
       id="clipPath53">
      <path
         d="M 0,1920 H 1080 V 0 H 0 Z"
         transform="translate(-799.77369,-1298.9265)"
         id="path53" />
    </clipPath>
    <clipPath
       clipPathUnits="userSpaceOnUse"
       id="clipPath55">
      <path
         d="M 0,1920 H 1080 V 0 H 0 Z"
         transform="translate(-827.7637,-1334.9196)"
         id="path55" />
    </clipPath>
    <clipPath
       clipPathUnits="userSpaceOnUse"
       id="clipPath57">
      <path
         d="M 0,1920 H 1080 V 0 H 0 Z"
         transform="translate(-865.453,-1310.8123)"
         id="path57" />
    </clipPath>
    <clipPath
       clipPathUnits="userSpaceOnUse"
       id="clipPath59">
      <path
         d="M 0,1920 H 1080 V 0 H 0 Z"
         transform="translate(-818.32172,-1382.7321)"
         id="path59" />
    </clipPath>
    <clipPath
       clipPathUnits="userSpaceOnUse"
       id="clipPath61">
      <path
         d="M 0,1920 H 1080 V 0 H 0 Z"
         transform="translate(-810.21925,-1265.5825)"
         id="path61" />
    </clipPath>
    <clipPath
       clipPathUnits="userSpaceOnUse"
       id="clipPath63">
      <path
         d="M 0,1920 H 1080 V 0 H 0 Z"
         transform="translate(-795.85719,-1258.8906)"
         id="path63" />
    </clipPath>
    <clipPath
       clipPathUnits="userSpaceOnUse"
       id="clipPath65">
      <path
         d="M 0,1920 H 1080 V 0 H 0 Z"
         transform="translate(-804.15362,-1263.436)"
         id="path65" />
    </clipPath>
    <clipPath
       clipPathUnits="userSpaceOnUse"
       id="clipPath67">
      <path
         d="M 0,1920 H 1080 V 0 H 0 Z"
         transform="translate(-824.6854,-1263.469)"
         id="path67" />
    </clipPath>
    <clipPath
       clipPathUnits="userSpaceOnUse"
       id="clipPath69">
      <path
         d="M 0,1920 H 1080 V 0 H 0 Z"
         transform="translate(-835.38572,-1256.3313)"
         id="path69" />
    </clipPath>
    <clipPath
       clipPathUnits="userSpaceOnUse"
       id="clipPath71">
      <path
         d="M 0,1920 H 1080 V 0 H 0 Z"
         transform="translate(-822.44575,-1308.4453)"
         id="path71" />
    </clipPath>
    <clipPath
       clipPathUnits="userSpaceOnUse"
       id="clipPath73">
      <path
         d="M 0,1920 H 1080 V 0 H 0 Z"
         transform="translate(-775.14392,-1326.9874)"
         id="path73" />
    </clipPath>
    <clipPath
       clipPathUnits="userSpaceOnUse"
       id="clipPath75">
      <path
         d="M 0,1920 H 1080 V 0 H 0 Z"
         transform="translate(-791.28692,-1284.2892)"
         id="path75" />
    </clipPath>
    <clipPath
       clipPathUnits="userSpaceOnUse"
       id="clipPath77">
      <path
         d="M 0,1920 H 1080 V 0 H 0 Z"
         transform="translate(-849.53552,-1354.4741)"
         id="path77" />
    </clipPath>
    <clipPath
       clipPathUnits="userSpaceOnUse"
       id="clipPath79">
      <path
         d="M 0,1920 H 1080 V 0 H 0 Z"
         transform="translate(-868.17655,-1324.3136)"
         id="path79" />
    </clipPath>
    <clipPath
       clipPathUnits="userSpaceOnUse"
       id="clipPath81">
      <path
         d="M 0,1920 H 1080 V 0 H 0 Z"
         transform="translate(-842.4223,-1279.0046)"
         id="path81" />
    </clipPath>
    <clipPath
       clipPathUnits="userSpaceOnUse"
       id="clipPath83">
      <path
         d="M 0,1920 H 1080 V 0 H 0 Z"
         transform="translate(-799.61124,-1358.6461)"
         id="path83" />
    </clipPath>
    <clipPath
       clipPathUnits="userSpaceOnUse"
       id="clipPath85">
      <path
         d="M 0,1920 H 1080 V 0 H 0 Z"
         transform="translate(-844.38932,-1266.0345)"
         id="path85" />
    </clipPath>
    <clipPath
       clipPathUnits="userSpaceOnUse"
       id="clipPath87">
      <path
         d="M 0,1920 H 1080 V 0 H 0 Z"
         transform="translate(-852.9586,-1261.5511)"
         id="path87" />
    </clipPath>
    <clipPath
       clipPathUnits="userSpaceOnUse"
       id="clipPath89">
      <path
         d="M 0,1920 H 1080 V 0 H 0 Z"
         transform="translate(-784.97244,-1262.8396)"
         id="path89" />
    </clipPath>
    <clipPath
       clipPathUnits="userSpaceOnUse"
       id="clipPath91">
      <path
         d="M 0,1920 H 1080 V 0 H 0 Z"
         transform="translate(-773.49002,-1261.7151)"
         id="path91" />
    </clipPath>
  </defs>
  <g
     id="layer1"
     transform="translate(-41.67405,-108.12288)">
    <path
       id="path50"
       d="m 0,0 c -0.4,-1.811 -0.782,-3.537 -1.164,-5.263 -1.163,-5.252 -2.328,-10.503 -3.491,-15.754 -0.563,-2.54 -1.136,-5.079 -1.683,-7.623 -0.322,-1.502 0.222,-2.521 1.691,-3.013 0.848,-0.284 1.748,-0.499 2.637,-0.558 2.984,-0.196 5.972,-0.306 8.959,-0.452 4.061,-0.199 8.121,-0.401 12.182,-0.602 2.708,-0.134 5.416,-0.275 8.125,-0.4 1.042,-0.048 2.086,-0.071 3.13,-0.085 0.229,-0.003 0.46,0.078 0.665,0.116 0.23,1.056 0.442,8.066 0.275,8.877 -0.857,0 -1.722,0.049 -2.579,-0.009 -3.502,-0.237 -7.002,-0.511 -10.503,-0.762 -2.808,-0.201 -5.618,-0.387 -8.426,-0.582 -0.991,-0.069 -1.95,0.07 -2.823,0.547 -0.821,0.449 -1.261,1.082 -1.123,2.127 0.292,2.204 0.474,4.423 0.7,6.635 0.236,2.317 0.466,4.633 0.706,6.949 0.251,2.42 0.509,4.839 0.766,7.258 0.181,1.693 0.38,3.384 0.544,5.079 C 8.653,3.157 8.831,3.839 8.556,4.711 5.593,3.196 2.73,1.68 0,0"
       style="fill:#0e121a;fill-opacity:1;fill-rule:nonzero;stroke:none"
       transform="matrix(0.35277776,0,0,-0.35277776,49.234765,113.25145)"
       clip-path="url(#clipPath51)" />
    <path
       id="path52"
       d="m 0,0 c 0.291,-3.312 0.532,-6.413 0.974,-9.539 0.377,-0.053 0.643,-0.12 0.909,-0.122 0.731,-0.006 1.462,0.006 2.192,0.028 3.474,0.105 6.947,0.225 10.421,0.322 1.913,0.054 3.827,0.077 5.74,0.11 0.243,0.004 0.491,0.009 0.728,-0.034 1.066,-0.192 1.521,-1.306 0.826,-2.133 -0.273,-0.324 -0.705,-0.571 -1.113,-0.716 -5.587,-1.99 -11.181,-3.959 -16.775,-5.926 -1.706,-0.599 -2.059,-1.09 -2.024,-2.912 0.002,-0.104 0.001,-0.209 0.008,-0.313 0.157,-2.531 0.32,-5.062 0.47,-7.594 0.026,-0.438 0.093,-0.831 0.642,-1.089 0.28,0 0.661,-0.001 1.042,0 6.195,0.01 12.39,0.016 18.586,0.035 1.18,0.004 2.361,0.074 3.542,0.093 0.464,0.007 0.809,0.158 1.064,0.739 -0.059,1.899 -0.122,3.938 -0.181,5.85 -0.533,0.488 -1.034,0.42 -1.516,0.408 -2.641,-0.069 -5.282,-0.148 -7.923,-0.215 -0.939,-0.024 -1.88,-0.052 -2.818,-0.024 -0.725,0.022 -1.362,0.515 -1.522,1.075 -0.182,0.639 0.11,1.374 0.742,1.814 0.256,0.178 0.537,0.32 0.81,0.472 3.73,2.084 7.447,4.192 11.2,6.236 1.289,0.702 1.836,1.728 1.813,3.134 -0.032,1.947 -0.064,3.894 -0.105,5.84 -0.018,0.83 -0.062,1.659 -0.096,2.562 -0.332,0.06 -0.628,0.142 -0.928,0.163 -3.363,0.233 -6.727,0.454 -10.09,0.684 -1.144,0.078 -2.287,0.176 -3.431,0.26 -2.529,0.187 -5.059,0.368 -7.588,0.557 C 4.144,-0.127 2.69,0.003 1.233,0.097 0.877,0.12 0.515,0.044 0,0"
       style="fill:#0e121a;fill-opacity:1;fill-rule:nonzero;stroke:none"
       transform="matrix(0.35277776,0,0,-0.35277776,59.267075,138.25049)"
       clip-path="url(#clipPath53)" />
    <path
       id="path54"
       d="m 0,0 c -0.4,2.317 -0.77,4.453 -1.141,6.603 -0.356,0.032 -0.595,0.085 -0.831,0.071 -3.052,-0.183 -6.105,-0.371 -9.156,-0.567 -1.001,-0.064 -1.934,0.11 -2.764,0.703 -0.641,0.458 -0.976,1.093 -0.944,1.873 0.103,2.5 0.231,5 0.352,7.499 0.075,1.563 0.151,3.125 0.234,4.687 0.179,3.401 0.37,6.802 0.543,10.203 0.1,1.979 0.169,3.96 0.26,5.939 0.076,1.632 0.164,3.264 0.248,4.895 0.116,2.256 0.237,4.512 0.341,6.769 0.011,0.221 -0.079,0.447 -0.134,0.733 -2.617,-0.302 -5.16,-0.595 -7.778,-0.897 -0.082,-0.382 -0.194,-0.744 -0.235,-1.114 -0.431,-3.909 -0.453,-7.84 -0.604,-11.763 -0.077,-2.015 -0.063,-4.035 -0.121,-6.051 -0.087,-2.987 -0.206,-5.974 -0.302,-8.961 -0.077,-2.397 -0.148,-4.795 -0.207,-7.193 -0.088,-3.615 -0.145,-7.23 -0.255,-10.845 -0.038,-1.245 0.518,-2.026 1.598,-2.546 1.133,-0.546 2.335,-0.648 3.558,-0.615 2.015,0.056 4.029,0.143 6.043,0.203 3.405,0.102 6.81,0.192 10.214,0.29 C -0.779,-0.075 -0.478,-0.038 0,0"
       style="fill:#0e121a;fill-opacity:1;fill-rule:nonzero;stroke:none"
       transform="matrix(0.35277776,0,0,-0.35277776,69.141325,125.55292)"
       clip-path="url(#clipPath55)" />
    <path
       id="path56"
       d="m 0,0 c -0.467,0 -0.812,0.018 -1.156,-0.003 -3.573,-0.22 -7.147,-0.44 -10.72,-0.673 -1.317,-0.085 -2.631,-0.216 -3.948,-0.304 -1.631,-0.11 -3.262,-0.203 -4.894,-0.291 -0.736,-0.039 -1.455,0.052 -2.142,0.349 -1.098,0.475 -1.458,0.998 -1.352,2.174 0.14,1.558 0.332,3.111 0.502,4.665 0.246,2.246 0.494,4.491 0.739,6.737 0.241,2.211 0.476,4.423 0.719,6.634 0.241,2.176 0.494,4.351 0.727,6.528 0.028,0.258 -0.033,0.526 -0.056,0.843 -1.767,0.112 -3.464,0.193 -5.156,0.334 -1.716,0.144 -3.429,0.301 -5.175,0.351 -0.023,-0.297 -0.046,-0.468 -0.047,-0.638 -0.061,-7.065 -0.122,-14.13 -0.179,-21.196 -0.008,-0.974 10e-4,-1.95 -0.003,-2.925 -0.008,-2.193 0.004,-4.387 -0.041,-6.58 -0.017,-0.805 0.32,-1.328 0.99,-1.679 0.305,-0.161 0.624,-0.335 0.956,-0.394 0.953,-0.17 1.916,-0.397 2.876,-0.4 3.339,-0.008 6.679,0.08 10.019,0.109 3.829,0.032 7.658,0.04 11.488,0.058 1.671,0.008 3.342,0.011 5.013,0.025 0.301,0.003 0.601,0.048 1.019,0.084 C 0.119,-4.113 0.061,-2.116 0,0"
       style="fill:#0e121a;fill-opacity:1;fill-rule:nonzero;stroke:none"
       transform="matrix(0.35277776,0,0,-0.35277776,82.437275,134.05744)"
       clip-path="url(#clipPath57)" />
    <path
       id="path58"
       d="m 0,0 c -0.03,-0.34 -0.047,-0.476 -0.053,-0.613 -0.107,-2.326 -0.202,-4.652 -0.322,-6.977 -0.172,-3.33 -0.37,-6.658 -0.541,-9.988 -0.097,-1.909 -0.154,-3.82 -0.244,-5.729 -0.077,-1.631 -0.178,-3.26 -0.262,-4.89 -0.139,-2.671 -0.265,-5.343 -0.416,-8.013 -0.05,-0.879 0.351,-1.469 1.087,-1.851 0.365,-0.189 0.767,-0.373 1.167,-0.416 0.997,-0.109 2.003,-0.188 3.005,-0.186 2.921,0.007 5.841,0.055 8.761,0.097 0.266,0.003 0.53,0.075 0.83,0.12 -0.052,2.484 -0.102,4.9 -0.155,7.41 -1.245,0 -2.417,0.024 -3.588,-0.008 -0.85,-0.024 -1.66,0.057 -2.4,0.509 -0.61,0.374 -0.963,0.894 -0.919,1.633 0.033,0.555 0.063,1.111 0.115,1.665 0.177,1.867 0.365,3.732 0.544,5.599 0.17,1.763 0.332,3.527 0.502,5.291 0.177,1.832 0.359,3.663 0.541,5.494 0.182,1.832 0.373,3.663 0.547,5.496 0.141,1.479 0.261,2.96 0.4,4.563 C 5.71,-0.527 2.896,-0.267 0,0"
       style="fill:#0e121a;fill-opacity:1;fill-rule:nonzero;stroke:none"
       transform="matrix(0.35277776,0,0,-0.35277776,65.810405,108.68573)"
       clip-path="url(#clipPath59)" />
    <path
       id="path60"
       d="m 0,0 v -3.344 c 0,-1.078 -0.016,-2.156 0.004,-3.234 0.021,-1.096 -0.096,-2.202 0.079,-3.27 1.05,-0.34 1.987,-0.404 2.999,0.087 0,0.79 -0.032,1.586 0.009,2.378 0.041,0.798 -0.194,1.628 0.215,2.51 1.23,-1.675 1.982,-3.528 3.215,-5.097 0.637,0 1.227,-0.025 1.815,0.007 0.574,0.032 1.178,-0.161 1.708,0.162 0.198,0.899 0.196,8.94 -0.011,9.856 C 9.05,0.345 8.063,0.44 7.003,-0.102 V -4.8 C 6.934,-4.822 6.865,-4.843 6.796,-4.865 6.265,-4.115 5.877,-3.275 5.423,-2.477 4.945,-1.638 4.476,-0.793 4.051,-0.037 3.054,0.206 1.181,0.228 0,0"
       style="fill:#0e121a;fill-opacity:1;fill-rule:nonzero;stroke:none"
       transform="matrix(0.35277776,0,0,-0.35277776,62.952035,150.01351)"
       clip-path="url(#clipPath61)" />
    <path
       id="path62"
       d="m 0,0 c -1.568,-0.45 -2.288,-0.061 -2.564,1.417 -0.119,0.637 -0.128,1.32 -0.045,1.964 0.216,1.679 1.13,1.894 2.511,1.635 C 0.203,4.96 0.483,4.795 0.774,4.683 0.994,4.599 1.215,4.521 1.424,4.445 2.183,4.909 2.612,5.545 2.878,6.28 2.583,6.993 1.994,7.23 1.397,7.4 -0.109,7.828 -1.639,7.807 -3.12,7.344 -4.374,6.952 -5.263,6.098 -5.681,4.806 -6.201,3.197 -6.18,1.597 -5.634,0.001 c 0.45,-1.314 1.371,-2.15 2.679,-2.555 1.009,-0.313 2.056,-0.395 3.093,-0.226 1.095,0.178 2.174,0.453 3.062,1.36 C 3.214,0.044 3.347,1.553 3.12,3.021 2.286,3.26 0.038,3.306 -1.206,3.137 -1.559,2.354 -1.566,1.716 -1.21,0.82 -0.837,0.777 -0.436,0.729 0,0.678 Z"
       style="fill:#0e121a;fill-opacity:1;fill-rule:nonzero;stroke:none"
       transform="matrix(0.35277776,0,0,-0.35277776,57.885425,152.37426)"
       clip-path="url(#clipPath63)" />
    <path
       id="path64"
       d="M 0,0 H 3.924 C 4.233,0.857 4.422,1.61 3.916,2.451 1.592,2.453 -0.754,2.508 -3.189,2.413 -3.245,1.969 -3.33,1.602 -3.332,1.235 c -0.011,-2.572 -0.011,-5.144 0,-7.716 0.002,-0.365 0.083,-0.73 0.132,-1.13 h 7.594 c 0.43,0.85 0.39,1.626 -0.094,2.488 H 0.034 v 1.203 c 1.067,0.127 2.06,0.246 3.062,0.365 0.467,0.701 0.454,1.364 -0.02,2.066 -1.018,0.13 -2.034,0.26 -3.076,0.392 z"
       style="fill:#0e121a;fill-opacity:1;fill-rule:nonzero;stroke:none"
       transform="matrix(0.35277776,0,0,-0.35277776,60.812215,150.77075)"
       clip-path="url(#clipPath65)" />
    <path
       id="path66"
       d="m 0,0 c 0.022,-2.637 -0.009,-5.095 0.019,-7.537 1.137,-0.367 2.138,-0.402 3.225,0.009 v 2.532 c 0,0.835 -0.022,1.671 0.006,2.505 0.027,0.817 -0.137,1.651 0.151,2.539 h 2.47 C 6.257,1.087 6.262,1.411 5.942,2.322 4.811,2.515 -2.031,2.468 -2.753,2.262 -3.022,1.226 -2.99,0.825 -2.523,0 Z"
       style="fill:#0e121a;fill-opacity:1;fill-rule:nonzero;stroke:none"
       transform="matrix(0.35277776,0,0,-0.35277776,68.055375,150.75911)"
       clip-path="url(#clipPath67)" />
    <path
       id="path68"
       d="m 0,0 v 9.792 c -1.093,0.263 -2.112,0.344 -3.117,-0.06 V -0.017 C -2.154,-0.411 -0.915,-0.407 0,0"
       style="fill:#0e121a;fill-opacity:1;fill-rule:nonzero;stroke:none"
       transform="matrix(0.35277776,0,0,-0.35277776,71.830205,153.27713)"
       clip-path="url(#clipPath69)" />
    <path
       id="path70"
       d="m 0,0 c -0.121,-1.221 -0.898,-1.952 -2.045,-2.203 -0.806,-0.176 -1.65,-0.184 -2.48,-0.238 -0.484,-0.032 -0.973,-0.006 -1.46,-0.006 -0.003,-0.038 -0.006,-0.076 -0.009,-0.115 -1.311,0.107 -2.627,0.172 -3.93,0.335 -0.795,0.1 -1.505,0.482 -2.175,0.942 -1.461,1.002 -1.527,3.513 -0.335,4.598 1.006,0.916 2.199,1.403 3.48,1.483 2.143,0.133 4.303,0.165 6.448,0.064 C -0.841,4.782 -0.158,4.027 0.023,2.384 0.11,1.599 0.078,0.789 0,0 M 7.957,-1.096 C 7.688,1.322 7.514,3.75 7.31,6.175 7.074,8.981 6.857,11.789 6.612,14.594 6.555,15.25 6.484,15.916 6.31,16.547 c -0.861,3.125 -3.528,5.737 -7.453,5.663 -3.095,-0.057 -6.19,-0.117 -9.284,-0.189 -2.26,-0.053 -4.525,-0.05 -6.778,-0.212 -2.757,-0.198 -5.039,-1.442 -6.886,-3.5 -1.76,-1.961 -1.972,-4.269 -1.585,-6.819 0.379,-0.077 0.743,-0.211 1.107,-0.213 1.288,-0.007 2.575,0.03 3.862,0.054 0.474,0.01 0.882,0.162 1.174,0.569 -0.006,0.106 -0.01,0.209 -0.019,0.311 -0.155,1.853 0.564,3 2.303,3.597 0.488,0.168 1.006,0.318 1.516,0.338 2.397,0.095 4.797,0.166 7.196,0.188 0.613,0.006 1.243,-0.15 1.841,-0.32 1.856,-0.528 2.502,-1.392 2.775,-3.283 C -3.649,10.854 -4.452,9.638 -6.151,8.82 -7.237,8.298 -8.395,8.1 -9.588,8.081 c -1.983,-0.034 -3.969,-0.006 -5.949,-0.096 -1.349,-0.061 -2.714,-0.171 -4.031,-0.45 -2.58,-0.545 -3.953,-2.455 -3.826,-5.076 0.061,-1.25 0.148,-2.501 0.136,-3.751 -0.019,-2.051 1.143,-3.821 3.357,-4.296 1.079,-0.231 2.197,-0.303 3.302,-0.375 2.603,-0.17 5.208,-0.3 7.812,-0.439 1.979,-0.106 3.963,-0.159 5.938,-0.313 1.394,-0.109 2.773,-0.149 4.157,0.08 1.805,0.299 3.521,0.827 4.998,1.943 1.181,0.893 1.826,2.025 1.651,3.596"
       style="fill:#0e121a;fill-opacity:1;fill-rule:nonzero;stroke:none"
       transform="matrix(0.35277776,0,0,-0.35277776,67.265275,134.89247)"
       clip-path="url(#clipPath71)" />
    <path
       id="path72"
       d="m 0,0 c 0.911,0.551 1.919,0.87 2.957,0.911 1.974,0.077 3.953,0.063 5.93,0.032 0.84,-0.014 1.634,-0.295 2.342,-0.773 0.698,-0.471 1.155,-1.078 1.183,-1.964 0.058,-1.84 0.137,-3.679 0.203,-5.412 0,-1.603 -0.018,-3.099 0.006,-4.594 0.016,-0.966 -0.408,-1.651 -1.186,-2.176 -0.829,-0.56 -1.76,-0.882 -2.733,-0.916 -1.975,-0.069 -3.955,-0.073 -5.93,-0.021 -1.052,0.028 -2.037,0.399 -2.904,1.031 -0.689,0.502 -1.064,1.154 -1.078,2.028 -0.052,3.126 -0.101,6.253 -0.197,9.378 C -1.442,-1.327 -0.933,-0.564 0,0 m -3.153,-18.566 c 0.657,-0.055 1.316,-0.092 1.975,-0.127 1.874,-0.098 3.749,-0.188 5.623,-0.289 2.116,-0.114 4.231,-0.277 6.349,-0.344 1.914,-0.06 3.827,0.045 5.675,0.622 2.097,0.654 2.866,1.741 2.82,3.919 -0.07,3.303 -0.135,6.606 -0.205,9.909 -0.048,2.294 -0.113,4.587 -0.148,6.881 -0.015,1.042 -0.409,1.902 -1.178,2.57 -0.441,0.383 -0.94,0.716 -1.453,0.999 -1.774,0.983 -3.731,1.307 -5.717,1.396 -4.027,0.179 -8.056,0.288 -12.085,0.429 -3.925,0.137 -7.85,0.287 -11.775,0.415 -3.093,0.102 -6.187,0.181 -9.28,0.264 -0.515,0.014 -1.03,0.002 -1.573,0.002 -0.118,-0.192 -0.206,-0.275 -0.221,-0.37 -0.297,-1.85 -0.588,-3.701 -0.871,-5.553 -0.065,-0.43 -0.017,-0.839 0.453,-1.151 0.111,0 0.284,-0.017 0.452,0.002 2.863,0.336 5.725,0.687 8.589,1.011 1.528,0.174 2.177,-0.5 2.109,-2.031 -0.125,-2.812 -0.216,-5.625 -0.308,-8.438 -0.048,-1.495 -0.058,-2.991 -0.104,-4.486 -0.099,-3.264 -0.214,-6.529 -0.315,-9.794 -0.06,-1.946 -0.022,-3.9 -0.187,-5.837 -0.095,-1.115 0.271,-1.8 1.204,-2.286 1.571,-0.818 3.137,-1.645 4.708,-2.462 0.423,-0.22 0.859,-0.415 1.265,-0.61 0.63,0.435 0.53,1.017 0.52,1.562 -0.069,3.79 -0.125,7.58 -0.231,11.369 -0.03,1.076 0.252,1.615 1.352,2.076 0.815,0.342 1.677,0.424 2.557,0.352"
       style="fill:#0e121a;fill-opacity:1;fill-rule:nonzero;stroke:none"
       transform="matrix(0.35277776,0,0,-0.35277776,50.578235,128.35123)"
       clip-path="url(#clipPath73)" />
    <path
       id="path74"
       d="m 0,0 c -0.24,-1.534 -1.063,-2.362 -2.605,-2.521 -1.346,-0.138 -2.702,-0.182 -3.614,-0.24 -1.383,0 -2.322,0.008 -3.261,-10e-4 -1.308,-0.014 -2.267,0.71 -2.42,2.322 -0.065,0.687 -0.023,1.393 0.053,2.081 0.305,2.726 0.658,5.448 0.96,8.174 0.125,1.133 0.657,1.955 1.643,2.493 0.747,0.408 1.564,0.57 2.404,0.596 1.009,0.032 2.019,0.065 3.026,0.038 0.549,-0.015 1.116,-0.083 1.636,-0.25 1.306,-0.418 2.104,-1.514 2.143,-2.899 C 0.007,8.333 -0.001,6.871 0.026,5.41 0.05,4.09 0.105,2.77 0.118,1.45 0.122,0.967 0.075,0.478 0,0 m 6.261,10.963 c -0.116,1.523 -0.145,3.068 -0.444,4.557 -0.488,2.425 -1.908,4.156 -4.379,4.812 -0.83,0.22 -1.712,0.334 -2.571,0.336 -2.155,0.004 -4.311,-0.085 -6.467,-0.137 -1.426,-0.034 -2.855,-0.032 -4.278,-0.114 -1.829,-0.105 -3.577,-0.52 -5.082,-1.644 -1.29,-0.963 -2.067,-2.249 -2.258,-3.845 -0.125,-1.033 -0.151,-2.078 -0.211,-3.119 -0.167,-2.916 -0.325,-5.832 -0.493,-8.748 -0.077,-1.354 -0.184,-2.706 -0.249,-4.06 -0.057,-1.18 -0.126,-2.364 -0.095,-3.543 0.029,-1.091 0.374,-2.12 0.974,-3.041 1.227,-1.883 3.057,-2.66 5.222,-2.75 1.632,-0.068 3.267,-0.086 4.901,-0.107 1.288,-0.016 2.577,-0.003 3.865,-0.003 v -0.031 c 1.88,0 3.763,-0.063 5.64,0.013 3.858,0.157 6.582,2.272 6.763,6.439 0.097,2.248 -0.128,4.513 -0.26,6.768 -0.162,2.741 -0.37,5.479 -0.578,8.217"
       style="fill:#0e121a;fill-opacity:1;fill-rule:nonzero;stroke:none"
       transform="matrix(0.35277776,0,0,-0.35277776,56.273135,143.4142)"
       clip-path="url(#clipPath75)" />
    <path
       id="path76"
       d="m 0,0 c 0.966,-0.176 1.754,-0.71 2.268,-1.534 0.953,-1.531 1.011,-3.184 0.256,-4.782 -0.716,-1.517 -2.063,-2.207 -3.716,-2.253 -1.315,-0.035 -2.644,-0.127 -3.943,0.02 -2.079,0.234 -3.325,1.698 -3.404,3.805 -0.025,0.65 -0.026,1.332 0.141,1.951 0.418,1.556 1.861,2.66 3.526,2.8 0.898,0.075 1.8,0.113 2.701,0.167 0.004,0.023 0.008,0.046 0.013,0.069 C -1.438,0.165 -0.711,0.129 0,0 m -15.375,5.793 c 0.317,0.01 0.629,0.193 1.005,0.316 0,0.971 -0.022,1.771 0.009,2.568 0.018,0.482 0.096,0.965 0.186,1.44 0.136,0.723 0.619,1.162 1.298,1.356 0.429,0.122 0.885,0.197 1.331,0.205 2.089,0.036 4.178,0.043 6.267,0.056 0.209,0.002 0.419,-0.007 0.626,-0.031 1.498,-0.175 2.858,-1.217 3.125,-2.666 C -1.323,7.927 -1.365,6.76 -1.402,5.623 -1.429,4.782 -2.026,4.325 -2.821,4.192 -3.367,4.1 -3.926,4.085 -4.48,4.055 -6.284,3.956 -8.104,3.984 -9.889,3.747 c -3.39,-0.45 -5.52,-2.986 -5.526,-6.379 -0.002,-1.428 0.007,-2.856 0.034,-4.283 0.016,-0.873 0.149,-1.731 0.545,-2.525 1.133,-2.274 3.033,-3.384 5.513,-3.496 1.177,-0.053 2.362,0.077 3.544,0.113 3.407,0.105 6.814,0.19 10.22,0.31 3.198,0.113 6.394,0.262 9.591,0.392 1.208,0.049 2.418,0.089 3.707,0.136 0.25,1.86 -0.317,3.547 -0.398,5.262 -0.02,0.421 -0.229,0.834 -0.354,1.261 C 15.874,-5.646 14.888,-5.844 13.893,-5.964 12.272,-6.16 10.646,-6.32 9.02,-6.464 8.505,-6.51 7.968,-6.511 7.489,-6.042 7.453,-5.873 7.384,-5.643 7.354,-5.409 7.014,-2.667 7.201,0.084 7.25,2.829 c 0.06,3.338 0.245,6.673 0.314,10.01 0.054,2.591 -1.506,4.717 -3.963,5.528 -1.173,0.387 -2.373,0.371 -3.602,0.29 -4.233,-0.276 -8.47,-0.485 -12.707,-0.705 -1.276,-0.066 -2.471,-0.366 -3.543,-1.08 -0.97,-0.646 -1.744,-1.483 -2.385,-2.453 -1.632,-2.469 -1.718,-5.223 -1.491,-8.035 0.013,-0.162 0.127,-0.316 0.226,-0.552 1.497,-0.387 3.017,-0.085 4.526,-0.039"
       style="fill:#0e121a;fill-opacity:1;fill-rule:nonzero;stroke:none"
       transform="matrix(0.35277776,0,0,-0.35277776,76.821945,118.65453)"
       clip-path="url(#clipPath77)" />
    <path
       id="path78"
       d="m 0,0 c -0.036,-1.221 -0.594,-2.115 -1.711,-2.642 -0.863,-0.407 -1.784,-0.577 -2.725,-0.619 -1.84,-0.081 -3.681,-0.135 -5.521,-0.194 -2.125,-0.068 -3.341,0.788 -3.88,2.864 -0.522,2.01 -0.529,4.061 -0.134,6.097 0.104,0.53 0.357,1.058 0.647,1.521 0.524,0.834 1.298,1.374 2.311,1.41 2.466,0.087 4.934,0.146 7.401,0.198 0.975,0.02 1.731,-0.45 2.328,-1.186 0.92,-1.134 1.172,-2.496 1.26,-3.9 0.035,-0.555 0.006,-1.113 0.006,-1.67 H 0.003 C 0.003,1.252 0.018,0.626 0,0 M 9.155,-2.865 C 9.01,-0.823 8.663,1.204 8.432,3.241 8.247,4.863 8.094,6.49 7.94,8.115 7.791,9.694 7.4,11.189 6.509,12.526 5.814,13.57 4.932,14.432 3.714,14.754 c -0.822,0.217 -1.717,0.234 -2.578,0.22 -3.581,-0.059 -7.162,-0.162 -10.744,-0.25 -2.051,-0.051 -4.102,-0.106 -6.154,-0.155 -1.846,-0.044 -3.174,-0.921 -3.989,-2.551 -0.309,-0.616 -0.538,-1.279 -0.742,-1.94 -0.608,-1.971 -0.73,-4.028 -1.015,-6.055 -0.276,-1.96 -0.504,-3.928 -0.761,-5.891 -0.255,-1.951 -0.274,-3.883 0.421,-5.764 0.867,-2.345 2.853,-3.738 5.17,-3.613 1.11,0.06 2.227,0.011 3.341,0.011 v 0.019 c 4.175,0.075 8.349,0.145 12.524,0.226 1.321,0.025 2.641,0.091 3.961,0.114 1.042,0.018 1.99,0.312 2.825,0.926 2.393,1.758 3.388,4.188 3.182,7.084"
       style="fill:#0e121a;fill-opacity:1;fill-rule:nonzero;stroke:none"
       transform="matrix(0.35277776,0,0,-0.35277776,83.398085,129.29448)"
       clip-path="url(#clipPath79)" />
    <path
       id="path80"
       d="M 0,0 C -1.491,0.42 -2.666,1.328 -2.442,3.44 -2.32,4.594 -1.991,5.687 -1.34,6.653 -0.616,7.726 0.378,8.345 1.716,8.318 2.305,8.306 2.895,8.316 3.485,8.316 3.487,8.36 3.49,8.405 3.492,8.449 4.526,8.362 5.564,8.303 6.593,8.174 6.994,8.123 7.389,7.945 7.764,7.774 8.812,7.294 9.344,6.451 9.375,5.307 9.398,4.474 9.398,3.64 9.375,2.807 9.351,1.915 8.942,1.221 8.211,0.707 7.542,0.238 6.788,-0.089 5.997,-0.126 4.27,-0.206 2.537,-0.178 0.807,-0.173 0.537,-0.173 0.265,-0.075 0,0 m 6.828,-4.164 c 1.981,-0.069 3.69,0.586 5.153,1.881 1.304,1.155 2.033,2.575 2.062,4.378 0.048,3.058 0.192,6.115 0.296,9.172 0.071,2.084 0.131,4.169 0.219,6.253 0.048,1.137 -0.441,2.026 -1.242,2.754 -0.809,0.735 -1.773,1.211 -2.832,1.487 -1.614,0.421 -3.254,0.25 -4.88,0.171 -3.4,-0.165 -6.797,-0.394 -10.194,-0.606 -0.762,-0.048 -1.531,-0.086 -2.281,-0.218 -1.166,-0.207 -2.299,-0.545 -3.3,-1.218 -0.769,-0.518 -1.438,-1.157 -1.647,-2.076 -0.231,-1.015 -0.143,-2.058 -0.062,-3.047 1.04,-0.412 5.328,-0.282 6.256,0.168 0.019,0.179 0.052,0.382 0.059,0.586 0.053,1.593 0.526,2.217 2.061,2.517 1.679,0.329 3.389,0.326 5.079,0.166 C 3.758,17.999 4.94,16.556 5.007,14.355 5.049,13.001 4.431,12.119 3.318,11.48 2.417,10.963 1.43,10.8 0.415,10.775 c -1.67,-0.04 -3.34,-0.038 -5.008,-0.086 -1.679,-0.048 -3.323,-0.303 -4.846,-1.063 -1.613,-0.806 -2.452,-2.09 -2.39,-3.931 0.053,-1.563 0.08,-3.127 0.103,-4.69 0.012,-0.83 0.255,-1.573 0.76,-2.226 1.336,-1.726 3.112,-2.649 5.278,-2.725 2.779,-0.098 5.561,-0.12 8.341,-0.167 1.392,-0.023 2.785,-0.002 4.175,-0.051"
       style="fill:#0e121a;fill-opacity:1;fill-rule:nonzero;stroke:none"
       transform="matrix(0.35277776,0,0,-0.35277776,74.312555,145.27849)"
       clip-path="url(#clipPath81)" />
    <path
       id="path82"
       d="m 0,0 c -0.103,-1.141 -0.269,-2.277 -0.348,-3.42 -0.07,-1.012 -0.651,-1.655 -1.422,-2.18 -0.254,-0.174 -0.552,-0.317 -0.85,-0.387 -1.54,-0.361 -3.1,-0.424 -4.645,-0.073 -1.408,0.319 -1.998,1.081 -2.027,2.503 -0.023,1.147 -0.005,2.295 -0.005,3.442 -0.035,0 -0.071,0 -0.106,0 0,1.043 0.034,2.088 -0.008,3.13 -0.062,1.517 0.851,2.402 2.047,2.787 0.457,0.147 0.952,0.218 1.433,0.236 1.043,0.041 2.092,0.084 3.129,0.009 C -2.197,6.004 -1.566,5.822 -1.024,5.548 -0.152,5.108 0.296,4.321 0.247,3.326 0.192,2.216 0.101,1.107 0,0 m 2.587,9.693 c -0.76,0.659 -1.659,1.036 -2.632,1.175 -0.994,0.141 -2.005,0.163 -3.008,0.249 -2.564,0.221 -5.124,0.473 -7.69,0.666 -1.588,0.119 -3.116,-0.152 -4.498,-1.002 -1.146,-0.706 -1.79,-1.715 -1.843,-3.082 -0.019,-0.486 -0.065,-0.972 -0.113,-1.456 -0.177,-1.764 -0.358,-3.528 -0.54,-5.291 -0.178,-1.729 -0.365,-3.457 -0.537,-5.186 -0.11,-1.107 -0.277,-2.216 -0.279,-3.324 -0.004,-2.093 1.091,-3.461 3.093,-3.866 0.664,-0.134 1.389,-0.088 2.071,-0.003 4.103,0.513 8.205,1.042 12.301,1.616 0.778,0.108 1.567,0.348 2.277,0.685 1.73,0.819 2.602,2.217 2.577,4.166 C 3.74,-2.976 3.76,-0.991 3.76,0.994 h 0.053 c 0,2.019 -0.016,4.039 0.006,6.058 0.012,1.093 -0.425,1.943 -1.232,2.641"
       style="fill:#0e121a;fill-opacity:1;fill-rule:nonzero;stroke:none"
       transform="matrix(0.35277776,0,0,-0.35277776,59.209765,117.18274)"
       clip-path="url(#clipPath83)" />
    <path
       id="path84"
       d="m 0,0 c 0,-0.696 0.009,-1.455 -0.003,-2.215 -0.011,-0.766 0.054,-1.54 -0.164,-2.326 -0.552,0.746 -0.99,1.515 -1.424,2.287 -0.457,0.814 -0.911,1.631 -1.399,2.504 -1.292,0.312 -2.578,0.231 -3.842,0.073 -0.238,-0.971 -0.23,-9.129 -0.014,-9.939 1.124,-0.342 1.891,-0.326 2.905,0.102 0.013,1.53 0.026,3.11 0.039,4.689 0.097,0.025 0.194,0.05 0.29,0.075 0.205,-0.313 0.42,-0.62 0.611,-0.941 0.675,-1.133 1.354,-2.264 2.007,-3.409 0.272,-0.476 0.641,-0.692 1.185,-0.677 0.73,0.018 1.461,-0.008 2.191,0.013 0.226,0.006 0.451,0.106 0.641,0.154 0.219,0.935 0.216,8.984 0.015,9.82 C 2.008,0.636 0.878,0.579 0,0"
       style="fill:#0e121a;fill-opacity:1;fill-rule:nonzero;stroke:none"
       transform="matrix(0.35277776,0,0,-0.35277776,75.006475,149.85405)"
       clip-path="url(#clipPath85)" />
    <path
       id="path86"
       d="M 0,0 C 0.151,0.534 0.292,1.032 0.433,1.531 0.491,1.533 0.549,1.534 0.606,1.536 0.738,1.048 0.869,0.561 1.019,0 Z M 2.666,4.06 C 2.557,4.348 2.423,4.626 2.281,4.956 1.108,5.186 -0.033,5.306 -1.176,4.861 -2.106,2.411 -3.047,0.025 -3.91,-2.388 -4.213,-3.235 -4.181,-4.148 -3.934,-5.039 h 2.657 c 0.31,0.915 0.605,1.787 0.885,2.612 h 1.81 c 0.303,-0.865 0.598,-1.709 0.923,-2.639 1.001,-0.022 1.89,-0.135 2.813,0.091 0.082,1.111 0.147,2.152 -0.277,3.2 C 4.096,0.153 3.401,2.114 2.666,4.06"
       style="fill:#0e121a;fill-opacity:1;fill-rule:nonzero;stroke:none"
       transform="matrix(0.35277776,0,0,-0.35277776,78.029525,151.4357)"
       clip-path="url(#clipPath87)" />
    <path
       id="path88"
       d="M 0,0 C -0.572,-0.507 -0.572,-0.507 -1.528,-0.673 -1.823,-0.059 -1.57,0.592 -1.701,1.333 -0.974,1.408 -0.399,1.505 0,0.845 Z m 2.744,-2.897 c -0.292,0.244 -0.583,0.489 -0.935,0.784 0.123,0.098 0.173,0.146 0.232,0.182 1.198,0.74 1.498,1.874 1.299,3.162 C 3.133,2.57 2.218,3.245 0.953,3.516 0.683,3.574 0.41,3.653 0.136,3.66 -1.323,3.697 -2.782,3.72 -4.242,3.73 -4.435,3.731 -4.628,3.63 -4.791,3.585 -5.024,2.77 -5.056,-5.212 -4.836,-6.259 c 1.019,-0.369 2.045,-0.444 3.179,0.103 v 3.242 c 0.315,-0.229 0.516,-0.31 0.614,-0.459 0.303,-0.463 0.565,-0.954 0.848,-1.432 0.314,-0.529 0.633,-1.056 0.945,-1.576 1,0.03 1.893,-0.109 2.843,0.094 v 2.682 C 3.274,-3.34 3.009,-3.119 2.744,-2.897"
       style="fill:#0e121a;fill-opacity:1;fill-rule:nonzero;stroke:none"
       transform="matrix(0.35277776,0,0,-0.35277776,54.045525,150.98114)"
       clip-path="url(#clipPath89)" />
    <path
       id="path90"
       d="M 0,0 C 0.138,0.542 0.259,1.02 0.38,1.497 L 0.608,1.53 C 0.729,1.041 0.85,0.553 0.987,0 Z M 3.039,3.014 C 2.796,3.659 2.551,4.302 2.327,4.893 0.802,5.285 0.167,5.277 -1.216,4.844 -2.147,2.341 -3.138,-0.208 -4.028,-2.792 c -0.237,-0.69 -0.215,-1.489 0.083,-2.252 h 2.652 c 0.296,0.887 0.577,1.731 0.866,2.597 h 1.832 c 0.31,-0.87 0.609,-1.708 0.891,-2.5 1.117,-0.252 2.075,-0.224 2.814,0.058 0.217,1.231 0.172,1.919 -0.21,2.942 -0.617,1.655 -1.24,3.308 -1.861,4.961"
       style="fill:#0e121a;fill-opacity:1;fill-rule:nonzero;stroke:none"
       transform="matrix(0.35277776,0,0,-0.35277776,49.994785,151.37784)"
       clip-path="url(#clipPath91)" />
  </g>
</svg>
